<svg width="195" height="195" viewBox="0 0 195 195" fill="none" xmlns="http://www.w3.org/2000/svg">
<g clip-path="url(#clip0_97_133)">
<path d="M86.4965 0.183203C85.849 0.261633 83.9064 0.575358 82.1796 0.849869C80.4529 1.12438 78.5887 1.4185 78.0393 1.51653C76.7638 1.71262 74.5072 2.24203 72.7607 2.73222C72.015 2.94791 70.9947 3.24203 70.5042 3.37928C67.9924 4.08516 66.0694 4.693 65.8928 4.86947C65.7947 4.96751 65.5593 5.04594 65.3827 5.04594C65.0686 5.04594 61.8897 6.1832 60.9872 6.61457C60.7713 6.71262 60.1237 6.98712 59.5547 7.20281C57.7494 7.88909 53.5109 9.88909 51.2739 11.1244C46.074 13.9675 39.5592 18.2812 35.9094 21.2812C34.2415 22.6538 33.8686 23.4185 34.1041 24.9282C34.2218 25.6734 34.8498 26.34 42.4045 33.9282C48.0362 39.5557 50.8423 42.2421 51.431 42.5165C52.6868 43.144 53.5698 42.9282 55.4929 41.5362C58.3381 39.4774 64.3426 35.6341 64.7154 35.6341C64.7547 35.6341 65.6181 35.2224 66.6189 34.7322C70.5042 32.8303 76.0573 30.7518 79.5306 29.8891C82.3169 29.2028 84.966 28.6146 85.9079 28.4774C87.8309 28.2421 89.7736 27.7715 90.2445 27.4576C91.3237 26.7518 91.3041 27.0263 91.3041 14.0459C91.3041 2.20281 91.3041 2.04594 90.8921 1.37928C90.6566 1.02634 90.1463 0.555751 89.7147 0.340064C88.9298 -0.0716998 88.4 -0.0913076 86.4965 0.183203ZM85.5547 14.2616C85.5939 18.6341 85.5351 22.3204 85.4369 22.4576C85.2603 22.7322 84.6716 22.9087 82.2778 23.3793C78.3925 24.144 78.3336 24.144 74.1343 25.5557C71.0731 26.5557 69.9547 26.9479 69.4248 27.2028C69.2091 27.3009 68.2475 27.7126 67.2664 28.1047C66.3048 28.5165 64.4799 29.3793 63.2437 30.0263C62.0075 30.6734 60.7124 31.34 60.3789 31.4969C59.6332 31.8891 57.4747 33.2224 55.2377 34.6929C54.2762 35.3204 53.3147 35.8303 53.0204 35.8303C52.6083 35.8303 51.4113 34.7322 47.0355 30.34C44.0332 27.3204 41.5412 24.7322 41.5019 24.5753C41.4234 24.1832 45.5833 21.1635 49.7041 18.6341C52.6083 16.8694 57.1019 14.4969 59.3193 13.5754C60.0257 13.3009 61.1245 12.791 61.7917 12.4773C62.4393 12.1636 63.0868 11.9087 63.2046 11.9087C63.3419 11.9087 63.5969 11.8303 63.7932 11.7322C64.5192 11.3597 68.6204 9.90869 70.5042 9.35968C71.3086 9.12438 72.1916 8.86947 72.4664 8.77144C75.6453 7.73222 82.8271 6.24203 84.4362 6.28123L85.5155 6.32046L85.5547 14.2616Z" fill="#B50003"/>
<path d="M105.334 0.202797C104.53 0.575345 103.706 1.57535 103.568 2.35966C103.509 2.7126 103.47 8.20279 103.509 14.5557C103.568 25.34 103.588 26.1832 103.921 26.6734C104.491 27.5557 105.295 27.8891 107.63 28.2616C109.71 28.5753 111.712 28.9675 113.281 29.3597C113.654 29.4576 114.596 29.6734 115.342 29.8694C116.99 30.2616 122.288 31.9871 123.387 32.4969C123.819 32.6929 124.722 33.0656 125.389 33.3597C129.529 35.1047 134.454 37.9282 139.183 41.3204C141.146 42.7322 141.656 42.9282 142.814 42.7518C143.54 42.6538 144.266 41.9675 152.193 34.0851L160.768 25.5362V24.3793C160.768 23.0656 160.396 22.3597 159.297 21.5165C151.644 15.6929 146.62 12.4773 141.146 9.83025C139.89 9.24201 137.202 7.98712 136.731 7.79103C136.515 7.693 135.73 7.35966 134.965 7.04594C134.219 6.7126 133.061 6.26162 132.414 6.02632C131.766 5.77142 131.06 5.51653 130.844 5.41848C130.02 5.06554 126.782 4.06554 123.093 2.98712C122.602 2.84985 121.857 2.63417 121.425 2.51653C120.993 2.39888 120.208 2.20279 119.659 2.08515C116.382 1.43809 115.499 1.28123 113.38 0.908679C111.241 0.53613 110.201 0.398875 107.002 0.0459339C106.276 -0.0324976 105.727 0.0263259 105.334 0.202797ZM112.968 6.53613C113.851 6.693 115.087 6.9479 115.734 7.10476C116.382 7.24201 117.579 7.51653 118.383 7.7126C119.875 8.04594 121.778 8.55573 123.583 9.10476C124.133 9.26161 125.016 9.51653 125.546 9.67338C126.095 9.83025 126.743 10.0263 127.017 10.1244C127.292 10.2224 128.175 10.5557 128.98 10.8499C129.784 11.1244 130.824 11.5361 131.275 11.7322C131.727 11.9479 132.178 12.1048 132.296 12.1048C132.708 12.1048 139.929 15.5557 141.931 16.7126C145.306 18.6538 146.189 19.2028 148.484 20.7126C151.545 22.7322 153.311 24.1244 153.311 24.5165C153.311 24.8891 142.559 35.6929 141.97 35.9282C141.813 35.9871 140.969 35.5557 140.086 34.9675C135.141 31.6734 130.157 29.0068 125.742 27.3204C124.996 27.0263 123.976 26.6146 123.485 26.4185C122.72 26.1244 121.229 25.6341 117.01 24.3597C116.519 24.2028 115.205 23.9087 114.066 23.6734C110.083 22.8891 109.73 22.791 109.494 22.5362C109.18 22.144 109.043 7.20279 109.357 6.61456C109.632 6.12437 110.691 6.08514 112.968 6.53613Z" fill="#B50003"/>
<path d="M23.1155 34.2812C21.9773 34.8891 21.8596 35.0068 19.4264 38.2616C15.0702 44.0656 12.3426 48.4969 9.53657 54.2616C8.5162 56.3597 7.61355 58.2616 7.51545 58.4774C5.69054 62.5753 3.00223 70.4969 2.41355 73.5753C2.31544 74.0068 2.0996 74.9675 1.92299 75.7322C0.902612 79.9675 0.0784606 85.3988 0.0588379 88.0263C0.0588379 89.4185 0.0980832 89.595 0.627895 90.1832C1.60902 91.3009 1.86413 91.3204 14.0694 91.3204C23.4883 91.3204 25.2543 91.2812 25.9803 91.0263C27.5895 90.4576 28.0015 89.7322 28.3155 86.9479C28.4332 85.9479 28.6491 84.5165 28.7864 83.7715C29.3162 81.0851 31.1215 74.5753 31.4355 74.1635C31.5336 74.0656 31.6709 73.6538 31.7494 73.2812C31.828 72.9087 31.9653 72.4774 32.0634 72.3009C32.1614 72.144 32.5539 71.2028 32.966 70.2421C34.8498 65.6929 37.8521 60.4576 41.0898 56.0263C42.6988 53.8106 42.8363 53.5557 42.8363 52.6341C42.8363 51.9871 42.6988 51.5753 42.2672 51.0068C41.9532 50.595 38.1857 46.7322 33.8686 42.4576C28.08 36.6929 25.8234 34.5753 25.1759 34.2812C24.077 33.7715 24.0574 33.7715 23.1155 34.2812ZM30.3758 47.1832C33.4565 50.2616 35.9683 52.8891 35.9683 53.0263C35.9683 53.2812 35.4385 54.2421 35.1834 54.4576C35.0068 54.595 32.4362 58.5362 32.4362 58.6341C32.4362 58.6929 32.0634 59.3793 31.5925 60.1832C29.5517 63.6538 27.5502 67.9871 26 72.3009C24.96 75.2421 24.3517 77.3988 23.6845 80.595C23.5276 81.34 23.3706 82.0068 23.3313 82.0851C23.2724 82.1635 23.1351 82.8499 23.0173 83.5753C22.8996 84.3204 22.7034 85.0459 22.5857 85.1832C22.4287 85.3793 20.6626 85.4381 14.3637 85.4381C6.53431 85.4381 6.33809 85.4381 6.14185 85.0459C6.02412 84.8303 5.98488 84.5557 6.06337 84.4185C6.14185 84.3009 6.31846 83.3597 6.45582 82.3204C6.84827 79.5362 7.20147 77.7518 7.90789 75.2421C8.24148 74.0068 8.63394 72.4969 8.79091 71.9087C9.14412 70.4185 11.0279 64.9479 11.9698 62.6929C14.7563 56.0459 18.249 49.7322 22.2128 44.1635C23.7433 41.9871 24.1947 41.4969 24.5283 41.5557C24.6852 41.595 27.3147 44.1244 30.3758 47.1832Z" fill="#B50003"/>
<path d="M169.599 34.1635C168.852 34.5165 153.37 49.8106 152.625 50.9282C151.585 52.5557 151.801 53.3988 154.038 56.4381C158.983 63.144 163.163 71.9087 164.988 79.3597C165.125 79.9479 165.4 81.0068 165.576 81.7127C165.988 83.3402 166.42 85.7127 166.655 87.6538C166.872 89.4969 167.284 90.3009 168.323 90.8303C169.088 91.2028 169.5 91.2225 180.882 91.2225C194.186 91.2225 193.636 91.2813 194.519 89.7127C194.912 89.0068 194.952 88.7519 194.834 87.4185C194.519 83.4969 193.676 78.6734 192.458 73.6734C192.302 73.0852 192.086 72.2028 191.968 71.7127C191.243 68.7127 189.378 63.3793 187.396 58.6734C185.297 53.6734 180.391 44.8499 177.741 41.3204C177.468 40.9479 176.486 39.6146 175.563 38.3793C173.053 35.0068 172.189 34.1832 170.972 33.9871C170.54 33.9087 170.03 33.9871 169.599 34.1635ZM171.031 41.9087C171.228 42.144 171.777 42.9087 172.287 43.6341C172.777 44.3597 173.425 45.2616 173.719 45.6341C174.014 46.0068 174.701 47.0656 175.269 47.9871C175.819 48.9087 176.368 49.791 176.467 49.9479C178.017 52.4969 181.961 60.0068 181.961 60.4381C181.961 60.5165 182.079 60.8499 182.236 61.1832C183.334 63.5753 185.67 70.1049 186.082 71.9087C186.16 72.2813 186.572 73.8696 186.965 75.4381C188.102 79.8696 188.848 84.399 188.573 85.1244C188.455 85.399 187.612 85.4381 180.529 85.4381C171.581 85.4381 172.111 85.5362 171.875 83.8696C171.404 80.6343 168.932 71.9675 167.734 69.3988C167.46 68.8303 167.244 68.3204 167.244 68.2616C167.244 67.8694 164.261 61.791 163.339 60.2812C162.888 59.5557 162.534 58.9087 162.534 58.8303C162.534 58.6734 160.945 56.2224 159.749 54.5165C159.219 53.791 158.807 53.1047 158.807 53.0068C158.807 52.6734 170.05 41.5165 170.383 41.5165C170.56 41.5165 170.835 41.6929 171.031 41.9087Z" fill="#B50003"/>
<path d="M94.0316 45.9087C93.9924 45.9479 92.9917 46.0851 91.7946 46.2028C86.163 46.791 80.1192 48.5166 75.0172 51.0263C72.3093 52.3401 66.7757 55.7322 66.089 56.4969C65.9909 56.6146 65.5395 56.9479 65.1079 57.2421C62.4195 59.0656 61.6542 61.2225 63.1259 62.7715C63.4596 63.144 64.1071 63.5362 64.5388 63.6734C65.2452 63.8891 65.4415 63.8696 66.2068 63.5166C66.6777 63.3009 67.5803 62.6734 68.1886 62.144C71.446 59.3793 75.9003 56.7322 80.3547 54.9284C83.2981 53.7322 84.495 53.3793 88.0664 52.6146C88.7139 52.4773 89.4203 52.3009 89.6362 52.2421C90.5192 51.9675 95.4053 51.5166 97.4852 51.5166C99.5456 51.5166 104.706 51.9872 105.079 52.2225C105.158 52.2813 105.864 52.4381 106.649 52.595C109.965 53.2421 111.221 53.595 113.478 54.4969C114.282 54.8107 115.204 55.1832 115.518 55.3009C116.755 55.791 120.542 57.791 121.935 58.6931C124.996 60.6734 129.608 64.4578 131.001 66.1637C131.766 67.1048 133.924 67.2028 134.827 66.3597C135.985 65.2813 136.161 63.8107 135.318 62.5362C133.944 60.5362 126.35 54.2813 124.035 53.2813C123.78 53.1637 123.269 52.8891 122.897 52.6538C121.503 51.8107 117.854 50.0068 116.617 49.5754C115.911 49.3204 115.165 49.046 114.949 48.9479C112.595 47.8891 107.179 46.6734 102.528 46.1244C100.193 45.8696 94.2475 45.7126 94.0316 45.9087Z" fill="#B50003"/>
<path d="M145.659 71.4185C144.521 71.6538 141.832 72.2224 139.674 72.6734C137.515 73.1047 134.866 73.6538 133.787 73.8891C131.001 74.4774 129.274 74.8106 127.822 75.0459C127.135 75.1635 126.507 75.3009 126.409 75.3597C126.311 75.4185 125.604 75.5753 124.82 75.7127C123.544 75.948 119.992 76.6734 117.598 77.1832C117.108 77.2812 116.009 77.5165 115.146 77.693C114.282 77.8891 113.066 78.144 112.438 78.3009C110.789 78.6929 110.181 78.6538 109.435 78.0852C108.592 77.4381 105.452 75.9675 104.02 75.5557C99.3101 74.2028 93.129 74.4381 89.2437 76.1244C83.4746 78.6341 79.6286 82.1244 77.0973 87.2028C75.3901 90.6538 74.9192 92.791 74.9192 97.2028C74.9192 100.693 75.0565 101.752 75.8415 104.262C77.9215 110.909 83.455 116.556 89.9698 118.654C94.7577 120.203 98.0543 120.34 103.176 119.203C107.042 118.34 111.574 115.595 114.321 112.438C116.814 109.595 118.815 105.811 119.463 102.771C119.6 102.026 119.777 101.85 121.915 100.556C122.838 100.007 124.918 98.7127 126.527 97.7127C128.155 96.7127 130.491 95.2616 131.727 94.4969C132.963 93.7322 134.513 92.7715 135.161 92.3597C135.808 91.948 137.358 90.9871 138.595 90.2224C139.831 89.4577 142.127 88.0459 143.657 87.0852C145.207 86.1244 146.777 85.1635 147.131 84.948C152.88 81.4774 153.664 80.8694 154.45 79.3205C154.783 78.6146 154.881 78.1047 154.862 76.8891C154.862 75.0656 154.509 74.0656 153.429 72.791C151.86 70.9087 149.76 70.5362 145.659 71.4185ZM148.484 76.9871C148.661 77.2812 147.876 77.8694 145.423 79.2616C145.227 79.3597 144.207 79.9871 143.167 80.6538C140.263 82.4577 137.044 84.4381 135.847 85.1832C135.259 85.5362 133.218 86.8106 131.334 87.9871C129.45 89.1635 127.076 90.6341 126.056 91.2616C125.055 91.8891 124.015 92.5362 123.76 92.693C122.092 93.7715 120.817 94.4577 120.522 94.4577C120.149 94.4577 120.13 94.4185 119.639 92.3009C119.051 89.6341 118.442 88.144 116.872 85.4774C115.695 83.4577 115.715 83.3988 117.559 83.0263C118.383 82.8499 119.522 82.6538 120.051 82.5753C120.601 82.4969 121.131 82.3988 121.229 82.3205C121.444 82.2028 126.115 81.1832 127.704 80.9282C128.254 80.8499 129.568 80.5753 130.648 80.34C134.023 79.595 135.122 79.3597 136.436 79.1635C137.143 79.0459 137.849 78.9087 138.006 78.8499C138.163 78.791 138.967 78.6146 139.772 78.4774C142.087 78.0656 147.111 77.0068 147.209 76.9087C147.365 76.7518 148.387 76.8106 148.484 76.9871ZM100.605 80.6538C104.02 81.3204 106.571 82.6538 109.121 85.1244C111.967 87.8694 113.497 90.8499 114.184 95.0459C114.792 98.791 113.831 103.124 111.633 106.497C107.493 112.889 99.4671 115.732 92.1871 113.36C87.9094 111.987 84.3969 109.026 82.415 105.144C81.061 102.497 80.6687 100.948 80.5509 97.8694C80.4723 95.4774 80.5312 94.8891 80.9041 93.3597C81.3947 91.4381 82.6702 88.6734 83.7494 87.1832C84.1419 86.6734 85.1818 85.5753 86.0452 84.7518C89.8323 81.2421 95.4837 79.6538 100.605 80.6538Z" fill="#B50003"/>
<path d="M94.9343 87.3793C92.03 88.2223 89.8519 89.8891 88.498 92.3009C86.1237 96.5753 87.0851 101.928 90.8135 105.046C92.6973 106.615 94.2474 107.203 96.9161 107.34C98.6232 107.438 99.1139 107.379 100.35 107.007C104.804 105.634 107.591 101.909 107.591 97.3009C107.591 94.4381 106.649 92.1832 104.647 90.144C102.018 87.4969 98.2112 86.4185 94.9343 87.3793ZM98.8196 93.0263C99.9969 93.4576 101.037 94.4381 101.527 95.5753C103.078 99.2028 99.2316 102.948 95.621 101.301C93.8549 100.497 93.0308 99.2616 93.0308 97.3204C93.0505 95.3009 94.0513 93.8106 95.935 93.0851C97.1515 92.6146 97.6422 92.6146 98.8196 93.0263Z" fill="#B50003"/>
<path d="M51.7253 74.9479C51.3916 75.1047 50.9403 75.4773 50.7245 75.7715C50.1161 76.6145 48.2716 81.4969 47.7614 83.5753C47.6634 84.0068 47.3886 85.0459 47.1727 85.9087C46.6822 87.7322 46.6626 88.3988 47.055 89.1635C47.7811 90.5753 49.6256 91.2028 50.9991 90.4773C51.8626 90.0263 52.2158 89.3793 52.7849 87.242C53.9229 82.8106 53.7856 83.2812 55.0414 80.0656C55.4535 79.0068 55.7871 77.8303 55.7871 77.4773C55.7871 75.3793 53.7071 74.1047 51.7253 74.9479Z" fill="#B50003"/>
<path d="M1.92302 103.575C1.49132 103.732 0.883019 104.144 0.569057 104.477L0 105.124L0.117736 107.477C0.196226 108.791 0.431698 110.909 0.647547 112.203C0.883019 113.497 1.13811 115.124 1.25585 115.83C1.35396 116.536 1.51095 117.32 1.60905 117.595C1.70717 117.869 1.84452 118.438 1.92302 118.869C1.98189 119.301 2.11925 119.909 2.21736 120.242C2.31547 120.556 2.59019 121.615 2.80604 122.595C3.49283 125.477 6.02415 132.811 7.47623 136.026C8.37886 138.085 11.126 143.673 11.5185 144.262C11.754 144.634 12.3819 145.693 12.9117 146.615C13.7947 148.203 16.1102 151.89 16.3457 152.104C16.4046 152.163 16.6792 152.556 16.9735 152.987C18.1509 154.751 20.8588 158.34 21.7616 159.36C21.997 159.634 22.88 160.634 23.7042 161.615C25.843 164.104 30.3954 168.634 32.8876 170.791C34.065 171.772 35.203 172.772 35.4385 172.968C37.7343 174.968 45.034 179.987 48.6249 182.026C51.7056 183.772 59.0641 187.399 59.5155 187.399C59.6332 187.399 59.8687 187.478 60.0649 187.596C61.4581 188.36 70.7788 191.516 71.6423 191.516C71.8973 191.516 72.2702 191.615 72.486 191.713C72.6823 191.831 73.2317 191.987 73.6831 192.085C74.154 192.184 75.5471 192.478 76.7833 192.751C80.0604 193.457 80.9434 193.615 83.4551 193.949C84.6914 194.125 86.3788 194.34 87.1834 194.457C90.5389 194.909 97.4068 195.104 101.704 194.89C105.609 194.693 112.32 193.949 114.851 193.457C116.814 193.066 120.228 192.301 121.425 191.987C122.073 191.831 122.975 191.615 123.446 191.516C124.506 191.281 129.509 189.674 131.04 189.066C131.688 188.81 133.022 188.301 134.003 187.909C141.558 185.007 150.408 179.928 157.432 174.497C159.551 172.869 159.904 172.575 160.867 171.713C161.416 171.222 162.417 170.321 163.123 169.713C164.849 168.222 169.422 163.575 171.266 161.438C175.21 156.89 178.841 151.909 181.509 147.399C183.315 144.34 185.611 139.987 186.357 138.222C186.847 137.046 187.69 135.144 188.043 134.36C188.142 134.144 188.554 133.124 188.926 132.105C189.319 131.085 189.75 129.968 189.908 129.615C190.065 129.281 190.202 128.909 190.202 128.791C190.202 128.693 190.555 127.516 190.987 126.183C191.733 123.83 191.87 123.379 192.498 120.732C193.362 117.124 193.362 117.046 194.01 113.379C194.363 111.458 194.676 108.968 194.834 107.007C194.971 105.164 194.617 104.379 193.341 103.713L192.479 103.281H180.882H169.285L168.421 103.713C167.303 104.281 166.871 105.046 166.655 106.85C166.321 109.693 165.871 111.771 164.399 117.301C163.907 119.144 162.141 123.791 160.964 126.34C157.335 134.222 152.428 141.085 145.914 147.419C142.755 150.497 139.968 152.732 136.044 155.34C130.549 158.987 125.192 161.596 119.168 163.556C117.442 164.104 114.537 164.909 112.791 165.301C106.845 166.654 99.7223 167.222 93.7177 166.85C89.1065 166.556 84.6716 165.968 82.0815 165.321C79.8838 164.772 76.234 163.751 75.0173 163.34C71.3086 162.085 66.246 159.85 63.2437 158.125C62.7532 157.831 62.1057 157.457 61.772 157.281C61.4581 157.104 60.3003 156.379 59.2211 155.674C50.1162 149.713 42.4242 141.634 36.812 132.105C35.1441 129.281 32.5933 123.654 31.2982 119.948C29.8853 115.869 28.5509 110.281 28.237 106.987C28.0407 105.007 27.4325 104.066 26.0196 103.556C24.9011 103.164 3.06113 103.183 1.92302 103.575ZM22.7426 109.948C22.8603 110.32 23.0762 111.164 23.2135 111.811C23.3313 112.458 23.5667 113.556 23.7433 114.262C23.9004 114.968 24.0966 115.85 24.1947 116.222C24.705 118.438 25.7842 121.928 26.3533 123.183C26.4513 123.399 26.5887 123.791 26.6672 124.066C26.726 124.34 27.0008 124.987 27.2558 125.536C27.4913 126.066 27.8838 126.968 28.0996 127.536C28.4528 128.458 30.6506 132.811 31.926 135.144C32.6717 136.477 35.5562 140.811 36.7925 142.438C40.0891 146.771 43.3268 150.222 48.2521 154.674C50.3321 156.556 55.4732 160.203 58.9072 162.262C60.8499 163.399 65.5593 165.81 67.0701 166.399C67.7177 166.674 68.6989 167.066 69.2287 167.321C69.7781 167.556 71.1909 168.085 72.3683 168.478C73.5653 168.869 74.7034 169.281 74.9193 169.379C75.135 169.478 75.7041 169.654 76.1947 169.772C82.3955 171.281 84.2793 171.674 87.1834 172.026C94.0905 172.869 100.036 172.909 107.1 172.104C109.73 171.831 112.575 171.262 116.617 170.243C119.521 169.516 119.247 169.615 123.093 168.281C123.897 168.007 124.741 167.693 124.957 167.596C125.173 167.497 125.801 167.243 126.331 167.007C126.88 166.772 127.488 166.516 127.704 166.419C127.92 166.321 128.548 166.066 129.078 165.831C129.627 165.615 130.216 165.34 130.392 165.243C130.589 165.144 131.55 164.634 132.551 164.104C133.552 163.575 134.729 162.928 135.161 162.674C135.592 162.399 136.083 162.125 136.26 162.066C136.829 161.85 142.617 157.869 144.285 156.537C148.19 153.419 152.291 149.438 155.529 145.615C157.118 143.732 160.375 139.281 161.338 137.693C161.788 136.928 162.259 136.144 162.397 135.928C163.222 134.595 163.634 133.85 164.222 132.713C164.595 132.007 164.889 131.36 164.889 131.262C164.889 131.183 165.085 130.791 165.341 130.379C165.85 129.556 168.186 124.281 168.44 123.379C168.52 123.046 168.951 121.771 169.363 120.536C169.775 119.301 170.265 117.713 170.442 117.007C171.345 113.379 171.737 111.713 171.855 110.83C172.13 108.987 171.306 109.144 180.449 109.203L188.535 109.262L188.495 110.869C188.436 112.869 187.848 115.83 186.218 122.105C185.787 123.791 184.198 128.458 183.296 130.732C182.863 131.869 182.392 133.046 182.274 133.379C181.765 134.732 178.252 141.615 176.898 143.869C171.659 152.596 165.144 160.399 157.825 166.732C155.706 168.556 150.035 172.85 148.171 174.046C144.756 176.222 142.303 177.634 138.987 179.379C134.631 181.634 126.782 184.713 122.7 185.732C122.112 185.89 121.131 186.144 120.542 186.301C118.364 186.928 115.067 187.615 112.398 187.987C111.653 188.104 110.534 188.262 109.946 188.36C107.434 188.791 102.626 189.066 97.3871 189.066C90.4407 189.066 86.8302 188.772 80.5117 187.674C76.8422 187.026 71.4264 185.634 68.3457 184.537C67.6392 184.281 66.403 183.869 65.5984 183.596C64.2642 183.163 63.2437 182.751 61.5758 182.007C61.2619 181.85 60.4378 181.516 59.7509 181.222C58.1026 180.556 52.7652 177.81 50.6853 176.575C42.0513 171.438 33.9668 164.674 27.5895 157.301C27.04 156.654 26.3924 155.909 26.1569 155.634C24.6068 153.869 20.1721 147.615 18.5827 144.987C16.8951 142.164 14.5992 137.85 13.834 136.105C13.5985 135.556 13.1472 134.497 12.8136 133.752C12.48 133.007 12.1268 132.222 12.0287 132.007C10.4392 128.477 7.47623 118.673 7.0249 115.438C6.94641 114.948 6.80906 114.242 6.73056 113.869C6.43622 112.673 6.10265 109.752 6.22038 109.458C6.31849 109.203 7.35849 109.164 14.4226 109.203L22.5071 109.262L22.7426 109.948Z" fill="#B50003"/>
<path d="M81.1004 130.654C78.5493 131.34 76.1946 133.144 74.8015 135.438C74.0165 136.791 73.2512 139.262 73.2512 140.556C73.2512 141.497 73.7615 143.752 74.1735 144.654C74.6249 145.615 75.8611 147.399 76.5087 148.026C77.4308 148.89 79.3343 149.928 80.806 150.379C82.16 150.81 82.3169 150.81 97.3871 150.831C113.242 150.831 112.771 150.85 115.185 150.007C116.617 149.516 118.776 147.772 119.678 146.379C120.797 144.673 121.131 143.83 121.327 142.046C121.974 136.556 118.874 132.026 113.556 130.634C111.869 130.203 82.7487 130.222 81.1004 130.654ZM113.203 136.556C114.891 137.458 115.715 138.948 115.597 140.928C115.499 142.615 114.792 143.713 113.301 144.497L112.261 145.046H97.4852C83.4551 145.046 82.6505 145.026 81.8459 144.673C80.5901 144.144 79.7856 143.242 79.4128 141.987C78.5886 139.164 80.1976 136.634 83.0626 136.203C83.5531 136.124 90.3426 136.085 98.1721 136.105L112.398 136.124L113.203 136.556Z" fill="#B50003"/>
</g>
<defs>
<clipPath id="clip0_97_133">
<rect width="195" height="195" fill="white"/>
</clipPath>
</defs>
</svg>
