<svg width="104" height="34" viewBox="0 0 104 34" fill="none" xmlns="http://www.w3.org/2000/svg">
<path d="M39.5639 0.138378C38.5384 0.212185 37.4137 0.317621 37.0829 0.380882C36.7521 0.444145 35.9802 0.570669 35.3737 0.665562C34.7673 0.760454 33.9734 0.897522 33.6095 0.981871C33.2456 1.05568 32.8266 1.15057 32.6722 1.17166C31.9776 1.29818 29.4635 1.97297 28.7027 2.24711C26.8502 2.91136 25.0528 3.75485 22.3072 5.20988C18.9221 7.02339 16.9483 7.66655 12.9897 8.24645C11.038 8.53113 7.85135 8.6682 4.63158 8.59439L1.61029 8.52059L1.37873 8.76309C1.04794 9.10049 1.06999 9.31136 1.53311 10.2708C2.06238 11.3674 2.27189 12.5799 2.10649 13.687C1.9852 14.5094 1.85288 14.8152 0.992802 16.3334C0.198887 17.7252 -0.0106186 18.5792 0.000407981 20.4876C0.000407981 22.1114 0.121701 22.9021 0.606871 24.5786C1.00383 25.9282 0.67303 25.8333 4.84109 25.7911C8.79963 25.7595 8.63424 25.7911 8.63424 25.0636C8.63424 24.5997 9.00914 22.8705 9.2407 22.2484C10.5639 18.7163 14.0152 15.8801 17.676 15.3107C18.073 15.258 18.1281 15.2264 17.9517 15.1525C17.0586 14.8152 13.8167 15.4689 11.0821 16.5338C10.5308 16.7446 10.2882 16.7552 7.11257 16.7763L3.7274 16.7974L3.69432 16.5549C3.67227 16.4178 3.7274 16.228 3.80458 16.1331C4.01409 15.8906 4.53234 14.8362 4.74185 14.2353C4.84109 13.9611 4.94032 13.2652 4.98443 12.6853L5.05059 11.631L5.43652 11.5677C5.64603 11.5255 6.31865 11.3885 6.92511 11.2619C8.19317 11.0089 11.7327 10.6293 12.8795 10.6293C13.8167 10.6293 16.9042 10.9773 17.8966 11.1881C18.911 11.4096 19.7711 11.6415 20.6863 11.9262C22.1639 12.3901 23.4209 12.717 24.7331 12.9806C27.2471 13.4972 28.2616 13.6659 30.4669 13.9506C31.1616 14.0455 32.0106 14.1614 32.3414 14.2142C32.6722 14.2669 33.3007 14.3407 33.7198 14.3723C34.1498 14.404 35.1642 14.4988 35.9802 14.5832C40.446 15.026 47.8338 15.3107 50.4912 15.1525C52.3988 15.026 53.1155 14.9522 53.0384 14.889C52.9943 14.8362 50.5353 14.6148 47.9992 14.425C47.3045 14.3723 46.2901 14.288 45.7387 14.2247C45.1984 14.1614 44.0517 14.0349 43.2026 13.9506C42.3536 13.8557 41.2399 13.7186 40.7216 13.6343C40.2034 13.5394 39.6741 13.4761 39.5308 13.4761C39.3874 13.4761 38.8692 13.4023 38.373 13.318C37.8768 13.2336 36.9947 13.0965 36.4213 13.0016C35.8479 12.9173 35.0319 12.7697 34.6019 12.6853C34.1829 12.601 33.4331 12.4534 32.9479 12.3585C31.3711 12.0527 28.1182 11.2725 27.6 11.0722C27.4456 11.0194 26.8281 10.8191 26.2217 10.6293C24.8985 10.2287 23.6635 9.74365 22.9357 9.34299C22.649 9.18484 22.3844 9.04777 22.3513 9.04777C22.1859 9.04777 21.4251 8.48896 21.4251 8.37298C21.4251 7.98286 24.7331 6.20098 26.7179 5.51565C30.4228 4.25041 33.4551 3.57561 37.2813 3.19604C39.4205 2.98517 44.9228 2.98517 47.2273 3.19604C50.9323 3.54398 55.5855 4.26095 57.2285 4.73541C57.4269 4.79868 57.8239 4.88303 58.1106 4.9252C58.4083 4.97792 59.0368 5.12553 59.522 5.25205C60.0072 5.37858 60.5806 5.52619 60.7901 5.57891C60.9996 5.62108 61.4406 5.73706 61.7494 5.83195C62.0691 5.92685 62.5874 6.07446 62.9072 6.16935C63.2269 6.2537 63.7121 6.39077 63.9878 6.47512C64.5281 6.62273 65.9285 7.09719 67.1193 7.5084C67.5273 7.65601 67.9132 7.7509 67.9794 7.71927C68.1117 7.63492 67.406 7.10774 66.5239 6.64382C66.1269 6.43294 65.6087 6.14827 65.3661 6.02174C64.5612 5.58945 62.411 4.61943 60.9555 4.03953C60.4152 3.82866 59.8638 3.60724 59.7425 3.56507C59.6212 3.51235 59.2463 3.36474 58.9155 3.24876C58.5847 3.12223 58.1878 2.97462 58.0334 2.91136C57.879 2.8481 57.4049 2.68995 56.9859 2.56342C56.5558 2.42635 56.0927 2.2682 55.9384 2.21548C55.3319 1.97297 52.8399 1.28764 52.0239 1.12948C51.7813 1.08731 51.0095 0.929153 50.3148 0.792086C48.4403 0.412514 46.8414 0.201641 44.8015 0.0856609C42.6623 -0.040863 42.0779 -0.0303192 39.5639 0.138378Z" fill="#D1EDFF"/>
<path d="M74.0771 10.06C73.5919 10.081 72.1254 10.1443 70.8242 10.197C59.114 10.7453 56.225 10.8402 49.3775 10.9456C40.1592 11.0827 31.7901 10.8613 29.5076 10.4079C28.9231 10.3025 28.6475 10.3446 28.7577 10.5344C28.8019 10.5871 28.9673 10.6293 29.1326 10.6293C29.298 10.6293 29.4745 10.6715 29.5296 10.7242C29.6619 10.8402 32.0216 11.3885 33.83 11.7259C35.495 12.0316 38.9353 12.4955 40.2254 12.5799C40.7106 12.6221 41.5045 12.6959 41.9897 12.7486C42.4748 12.8013 49.7193 12.8857 58.0885 12.9384C66.4577 12.9911 74.9041 13.0754 76.8668 13.1176C79.425 13.1703 81.112 13.1492 82.8653 13.0544C86.8238 12.8224 90.5839 13.1703 93.8147 14.056C97.5196 15.0682 100.177 17.2086 101.974 20.6247C102.449 21.5315 102.57 21.8056 102.989 23.0181C103.397 24.1674 103.573 24.8211 103.573 25.1374C103.573 25.3166 103.639 25.5486 103.728 25.6646C103.882 25.8544 103.893 25.8544 103.97 25.5591C104.058 25.1901 103.937 22.4698 103.783 21.8056C103.728 21.542 103.639 21.0886 103.584 20.8039C103.375 19.7601 102.581 17.7885 101.996 16.9028C101.456 16.0804 99.7029 14.2352 98.9751 13.7186C98.8318 13.6132 98.4017 13.3074 98.0268 13.0438C96.1413 11.7048 93.6603 10.8296 90.7272 10.4817C87.8162 10.1232 86.6143 10.0705 80.8584 10.0494C77.6166 10.0389 74.5622 10.0389 74.0771 10.06Z" fill="#D1EDFF"/>
<path d="M83.7254 15.3739C81.7186 15.6059 79.6676 16.5548 78.2232 17.9255C76.9882 19.0853 75.4996 21.5103 74.9703 23.2289C74.86 23.5769 74.6836 24.0724 74.5844 24.336L74.3969 24.8105L54.4608 24.8421L34.5358 24.8632L34.1498 24.0513C32.8597 21.2995 31.4263 19.4227 29.5958 18.0625C28.6917 17.4088 27.159 16.6919 26.3871 16.5759C26.0232 16.5232 25.946 16.5337 25.946 16.6813C25.946 16.7762 26.0453 16.8922 26.1556 16.9344C26.773 17.1558 28.4601 18.7479 29.1879 19.8023C29.7392 20.5825 30.3457 21.7107 30.478 22.1746C30.5331 22.3433 30.6765 22.8494 30.7977 23.2817C30.9521 23.7983 31.0514 24.5785 31.1065 25.5485L31.1837 27.0247H54.6152H78.0467L78.1129 25.9176C78.1901 24.7472 78.4437 23.1024 78.6642 22.4593C79.006 21.4365 79.5022 20.3189 79.9102 19.6546C80.3844 18.8955 82.0163 17.198 82.5346 16.9449C84.2106 16.112 84.9053 15.8484 85.9749 15.6375C86.5152 15.5321 86.1403 15.3634 85.2581 15.3212C84.806 15.3001 84.1224 15.3212 83.7254 15.3739Z" fill="#D1EDFF"/>
<path d="M18.7787 17.8938C17.1357 18.052 15.2171 18.9693 13.96 20.2029C12.9235 21.2045 12.2399 22.3644 11.7878 23.8194C11.5232 24.684 11.5452 27.0036 11.8209 27.9209C12.2619 29.4181 12.9235 30.4513 14.1585 31.6111C15.0517 32.4546 16.1213 33.0556 17.5657 33.5195C18.5912 33.8569 21.1494 33.8569 22.1638 33.5301C23.5863 33.0767 24.8543 32.3492 25.7254 31.5162C26.6406 30.6306 27.5669 29.1966 27.8094 28.2899C27.8646 28.0579 27.9748 27.6784 28.03 27.4464C28.2174 26.7716 28.1843 24.5574 27.9748 23.9037C27.611 22.7228 27.3574 22.1957 26.7619 21.3311C25.0638 18.8744 22.0646 17.5775 18.7787 17.8938Z" fill="#D1EDFF"/>
<path d="M87.9155 17.9045C84.7288 18.2209 81.9832 20.4877 80.9467 23.6825C80.6159 24.7157 80.6269 26.9194 80.9687 28.0265C81.8178 30.7467 83.7915 32.6129 86.7908 33.5408C87.4083 33.72 87.7942 33.7622 89.0733 33.7622C90.3965 33.7622 90.7163 33.7306 91.3337 33.5197C94.2337 32.5497 96.0421 30.8416 96.9463 28.2268C97.255 27.3306 97.2881 27.1302 97.2881 25.8755C97.2771 24.3151 97.1007 23.4821 96.5162 22.3329C96.0311 21.3945 95.3915 20.6037 94.5425 19.8657C92.69 18.3052 90.5067 17.6515 87.9155 17.9045Z" fill="#D1EDFF"/>
<circle cx="20" cy="26" r="5" fill="#000528"/>
<circle cx="89" cy="26" r="5" fill="#000528"/>
</svg>
