<svg xmlns="http://www.w3.org/2000/svg" xmlns:xlink="http://www.w3.org/1999/xlink" width="202" height="206" viewBox="0 0 202 206">
  <defs>
    <clipPath id="clip-path">
      <rect id="Rectangle_1" data-name="Rectangle 1" width="202" height="206" fill="#b50003"/>
    </clipPath>
  </defs>
  <g id="engine" clip-path="url(#clip-path)">
    <path id="Path_1" data-name="Path 1" d="M62.487.063A10.156,10.156,0,0,0,59.25,2.038a8.6,8.6,0,0,0-1.226,1.88,4.824,4.824,0,0,0-.651,3.107,5.277,5.277,0,0,0,.556,2.935,6.375,6.375,0,0,0,2.395,2.877,7.71,7.71,0,0,0,4.368,1.285c2.26,0,2.3.038,2.394,2.148a5.111,5.111,0,0,0,.709,2.954l.632,1.151-.575,1.055a7.451,7.451,0,0,0-.268,6.33A8.384,8.384,0,0,0,71.72,31.5a.935.935,0,0,1,.613.518,28.394,28.394,0,0,1,.1,3.587c-.019,2.7-.077,3.2-.345,3.395-.23.173-1.322.249-3.793.249-3.41,0-3.486,0-4.233.5a12.033,12.033,0,0,0-2.49,3.069,14.519,14.519,0,0,1-2.05,2.685c-.326.1-2.031-.959-6.264-3.913-6.4-4.488-7.816-5.217-10.038-5.217A9.693,9.693,0,0,0,38.982,37.6c-1.149.671-2.069,1.745-4.387,5.16-2.26,3.356-2.605,3.778-2.969,3.778-.287,0-1.015-.441-4.042-2.493-2.165-1.458-2.452-1.88-1.858-2.781a5.744,5.744,0,0,0-.364-6.617c-1.092-1.535-6.187-4.853-7.95-5.179-2.663-.518-5.21.844-6.8,3.625a14.241,14.241,0,0,1-.843,1.266C9.578,34.569,8.448,36.2,7.241,38,6.034,39.786,4.5,42.03,3.85,42.989.268,48.168,0,48.7,0,50.7c0,2.148,1,3.721,3.486,5.428.67.46,1.7,1.17,2.318,1.592a11.652,11.652,0,0,0,4.425,1.861A7.994,7.994,0,0,0,14.9,57.221a1.21,1.21,0,0,1,1.8-.192,13.263,13.263,0,0,0,1.59,1.208c3.659,2.474,3.985,2.819,3.276,3.625-.5.575-4.54,6.579-5.766,8.554l-.958,1.535v2.493c0,2.7.057,2.877,1.341,4.6.92,1.228,1.647,1.841,4.885,4.028l3.736,2.551c.843.594,2.279,1.573,3.18,2.187a8.16,8.16,0,0,1,1.781,1.419c.134.365-.172.978-1.264,2.474-1.168,1.611-3.678,5.447-4.061,6.176-.594,1.189-.479,1.534,2.184,6.291.766,1.362,1.954,3.529,2.624,4.795.69,1.266,1.3,2.379,1.4,2.494.077.1.5.844.92,1.649a19.809,19.809,0,0,0,1.13,2.014,17.568,17.568,0,0,1,.9,1.611c.287.576.69,1.362.919,1.727.211.364.824,1.5,1.36,2.493.517,1,1.054,1.957,1.169,2.11a5.828,5.828,0,0,1,.594,1.055c.211.422.69,1.285,1.092,1.937.383.652.92,1.65,1.207,2.206a19.151,19.151,0,0,0,.9,1.707c.211.365.709,1.228,1.073,1.918s.862,1.554,1.092,1.918c.211.365.69,1.228,1.034,1.918s.939,1.726,1.284,2.321a7.432,7.432,0,0,1,.651,1.209,4.443,4.443,0,0,0,.46.843c.249.4.881,1.554,1.418,2.552s1.168,2.167,1.417,2.608c.23.442,1.034,1.86,1.762,3.165s1.571,2.838,1.9,3.414c.306.575.939,1.726,1.4,2.531.46.826.843,1.535.843,1.593a10.478,10.478,0,0,0,.536,1c.766,1.286,2.318,4.085,3.295,5.908.441.844.881,1.611.958,1.726.077.1.422.709.766,1.342,1.015,1.862,1.935,3.568,2.624,4.8.364.632.766,1.4.939,1.726,1.552,3.144,2.145,3.529,5.383,3.547,1.4,0,1.609.039,1.858.423.268.364.306,1.439.306,7.826,0,7.883,0,7.844,1,9.686a8.629,8.629,0,0,0,2.95,2.685c1.7.748,2.72.843,8.16.864a55.738,55.738,0,0,1,5.766.172,1.723,1.723,0,0,1,.824,1.112,10.793,10.793,0,0,0,16.551,4.949,15.347,15.347,0,0,0,1.456-1.266,11.516,11.516,0,0,0,2.126-3.529,1.722,1.722,0,0,1,.594-1.056c.441-.364.805-.382,5.958-.382,6.072-.021,6.953-.136,8.735-1.151a8.367,8.367,0,0,0,3.065-3.492,1.362,1.362,0,0,1,.306-.633c.1-.076.173-3.337.173-7.864,0-6.79.038-7.787.306-8.036.23-.23.709-.308,2.088-.308,2.567,0,3.295-.364,4.234-2.109.268-.48.67-1.208.9-1.631.249-.421.747-1.323,1.13-2.014.364-.69.862-1.591,1.111-1.994.23-.423.632-1.151.9-1.631.249-.479.671-1.227.9-1.649s.766-1.381,1.168-2.11c1.3-2.378,1.993-3.337,2.433-3.453.25-.057,8.582-.172,18.543-.269,18.236-.172,19.213-.21,21.36-.92a14.594,14.594,0,0,0,4.328-2.608,13.633,13.633,0,0,0,4.387-9.9,12.833,12.833,0,0,0-.881-4.47,2.165,2.165,0,0,1-.269-.69,8.036,8.036,0,0,0-.708-1.42,14.991,14.991,0,0,0-4.885-4.718c-1.743-1.055-2.069-1.458-4.942-5.869-.364-.576-1.628-2.455-2.8-4.182s-3.525-5.217-5.23-7.768l-3.1-4.622.345-.691c.192-.364.556-1.093.8-1.592s.843-1.553,1.3-2.3c.441-.767.823-1.457.823-1.515a7.387,7.387,0,0,1,.653-1.208c.363-.6.977-1.688,1.379-2.417.382-.748.919-1.726,1.168-2.206.728-1.342.575-2.608-.536-4.239-.46-.69-.919-1.4-1.034-1.554-.1-.153-.862-1.3-1.687-2.532a9.962,9.962,0,0,1-1.417-2.474,11.751,11.751,0,0,1,1.877-1.477c2.586-1.765,6.3-4.277,6.647-4.507a4.361,4.361,0,0,0,.5-.345c4.559-3.261,5.191-3.97,5.938-6.694a5.548,5.548,0,0,0-.019-3.568c-.326-1.343-.9-2.359-2.97-5.409-2.892-4.239-3.486-5.1-3.811-5.524-.48-.633-.193-1.131,1.11-1.956.594-.364,1.168-.767,1.283-.863a12.422,12.422,0,0,1,1.074-.786c2.643-1.841,2.662-1.841,3.639-.633a5.269,5.269,0,0,0,2.778,1.745c2.145.748,3.18.384,7.892-2.8a9.148,9.148,0,0,0,3.372-3.28,4.72,4.72,0,0,0,.4-2.589c0-2.187.058-2.052-2.8-6.253-.728-1.055-1.8-2.628-2.414-3.529s-1.533-2.244-2.05-2.973c-.517-.748-1.57-2.3-2.356-3.452-.784-1.17-1.685-2.436-1.991-2.82a6.161,6.161,0,0,0-5.671-2.071c-1.4.249-1.781.46-5.689,3.165a8,8,0,0,0-2.586,2.4l-.671.844v2.321c0,2.014.057,2.379.4,2.877.5.729.652,1.132.5,1.381a9.351,9.351,0,0,1-1.38,1.055c-.689.479-1.954,1.343-2.816,1.937a7.073,7.073,0,0,1-1.953,1.093c-.4,0-.844-.556-3.372-4.316-2.472-3.7-3.621-4.757-6.035-5.5-2.586-.825-4.692-.288-8.2,2.091-1.342.921-3.641,2.474-5.115,3.472s-3.085,2.11-3.563,2.455c-1.456,1.055-1.552,1-3.544-1.995-2.357-3.587-2.146-3.491-7.031-3.491h-3.773l-.192-.5a30.941,30.941,0,0,1,0-6.79,1.142,1.142,0,0,1,.69-.46,8.761,8.761,0,0,0,3.218-2.3,6.836,6.836,0,0,0,1.647-4.431,5.017,5.017,0,0,0-.689-2.8,11.306,11.306,0,0,1-.709-1.63,12.343,12.343,0,0,1,.69-1.688,5.129,5.129,0,0,0,.708-2.877c0-1.669-.019-1.649,2.05-1.649a7.341,7.341,0,0,0,5.785-2.4,7.14,7.14,0,0,0,.67-8.459A6.319,6.319,0,0,0,141.084.734l-1.149-.71-38.5-.019C80.264-.014,62.717.024,62.487.063Zm76.49,5.908a1.565,1.565,0,0,1-.613,2.57c-.307.153-10.517.211-37.354.211-36.473,0-36.933,0-37.546-.384a1.281,1.281,0,0,1-.67-.806,2.425,2.425,0,0,1,.364-1.745c.287-.307,2.337-.326,37.833-.326h37.527Zm-9.789,8.708A1.752,1.752,0,0,1,129.3,17l-.364.479-27.316.058c-17.931.019-27.585-.019-28.045-.153a1.625,1.625,0,0,1-.134-3.069c.211-.1,12.624-.153,27.834-.134l27.412.038Zm-.824,8.459a2.668,2.668,0,0,1,1.054.595,1.717,1.717,0,0,1-.115,2.187l-.441.479H73.348l-.46-.479a1.653,1.653,0,0,1,.728-2.762C74.479,22.907,127.464,22.888,128.364,23.137ZM123.9,32.19c.153.153.23,1.17.23,3.357,0,2.877-.019,3.127-.364,3.318-.249.134-7.72.192-22.8.192-21.8,0-22.451-.019-22.8-.364-.326-.326-.364-.633-.326-3.376.038-2.34.115-3.05.326-3.184C78.616,31.864,123.614,31.9,123.9,32.19ZM18.064,35.739c2.394,1.669,2.912,2.091,2.969,2.4a3.211,3.211,0,0,1-.613,1.343c-.364.556-1.015,1.534-1.437,2.167s-.977,1.458-1.264,1.822-.785,1.093-1.13,1.63c-.326.518-1.111,1.688-1.743,2.589s-1.417,2.052-1.762,2.589c-.345.518-1.035,1.535-1.533,2.244-1.054,1.515-1.456,1.631-2.663.748-.4-.307-1.3-.94-1.992-1.381-1.418-.959-1.59-1.381-.919-2.321a9.92,9.92,0,0,0,.632-.959c.23-.383,2.8-4.162,4.138-6.1.556-.786,1.82-2.647,2.816-4.124,2.05-3.05,2.471-3.549,2.893-3.549A6.046,6.046,0,0,1,18.064,35.739Zm168.266-.48c.211.249,1.034,1.381,1.82,2.551.786,1.151,1.839,2.7,2.356,3.452,2.49,3.606,3.295,4.8,3.832,5.62.325.5.938,1.419,1.4,2.033a4.57,4.57,0,0,1,.805,1.573c0,.4-.959,1.419-1.361,1.419a6.453,6.453,0,0,0-1.264.806c-1.571,1.17-1.819,1.285-2.26,1.074a16.62,16.62,0,0,1-2.145-2.8c-2.549-3.76-5.613-8.267-7.452-10.914-1.092-1.573-1.111-2.148-.077-2.877.421-.288,1.341-.94,2.031-1.458a5.76,5.76,0,0,1,1.609-.9A1.281,1.281,0,0,1,186.33,35.259ZM45.917,43.142a24.275,24.275,0,0,1,3.467,2.474.276.276,0,0,0,.249.153,4.975,4.975,0,0,1,1.092.633c.5.345,1.628,1.132,2.529,1.765,1.8,1.227,2.49,1.8,2.49,2.052a50.667,50.667,0,0,1-3.62,5.524c-.843,1.208-2.433,3.548-3.544,5.179-1.9,2.8-2.969,4.373-5.191,7.576-.5.729-1.8,2.628-2.873,4.22-2.644,3.913-3.7,5.428-4.348,6.253a4.569,4.569,0,0,0-.536.825,12.255,12.255,0,0,1-.843,1.323c-.46.652-1.054,1.535-1.341,1.956a3.79,3.79,0,0,1-.8.921c-.306.173-1.59-.537-3.391-1.9a9.52,9.52,0,0,0-1.188-.844,13.083,13.083,0,0,1-1.3-.844c-3.008-2.091-4.214-2.916-4.636-3.146-.862-.46-1.82-1.554-1.839-2.091-.1-1.822-.441-1.247,6.092-10.76,1.283-1.86,3.161-4.6,4.157-6.08s2.395-3.51,3.084-4.507c.709-1,1.494-2.206,1.781-2.666s.747-1.132,1.054-1.515c.536-.691,2.95-4.2,3.295-4.814a11.306,11.306,0,0,1,2.279-2.743C42.967,41.512,43.771,41.723,45.917,43.142Zm114.61-.729a29.779,29.779,0,0,1,2.241,3.05c.92,1.381,1.724,2.551,1.8,2.609a8.848,8.848,0,0,1,.554.863,9.165,9.165,0,0,0,1.055,1.5c.115.134.708.959,1.3,1.861,1.035,1.554,2.108,3.126,3.584,5.275.363.537.765,1.112.862,1.285.115.173.669,1,1.244,1.822s1.4,2.052,1.859,2.743c.439.69.881,1.323.957,1.439.1.1.767,1.055,1.494,2.11s1.781,2.609,2.376,3.453c.575.844,1.244,1.822,1.494,2.187,1.168,1.726.862,3.127-1.034,4.373-1.207.825-3.1,2.129-4.981,3.433a8.365,8.365,0,0,1-1.379.844.761.761,0,0,0-.421.307,31.812,31.812,0,0,1-3.678,2.494c-.423.153-.423.153-4.216-5.39-.708-1.055-1.666-2.436-2.087-3.069a9.786,9.786,0,0,0-1.533-1.784,2.225,2.225,0,0,0-1.782-.614,1.97,1.97,0,0,0-1.876.825,3.187,3.187,0,0,0-.977,1.535c-.25,1.343-.1,1.63,4.29,8.094.441.633,1.073,1.573,1.418,2.11.345.518,2.069,3.107,3.851,5.754,1.781,2.628,3.524,5.217,3.869,5.754a4.117,4.117,0,0,1,.632,1.266,9.977,9.977,0,0,1-1.3,2.666,9.756,9.756,0,0,0-.6,1.074c-.1.211-.517.959-.919,1.631s-.842,1.457-.977,1.745c-.382.882-1.014.71-1.8-.48-.364-.537-1.993-2.972-3.621-5.37-1.609-2.4-3.257-4.834-3.62-5.409s-1.9-2.858-3.391-5.083c-1.513-2.225-2.74-4.086-2.74-4.143a3.924,3.924,0,0,0-.536-.825,54.7,54.7,0,0,1-3.486-5.16.286.286,0,0,0-.153-.269,14.892,14.892,0,0,1-1.169-1.592c-.575-.844-2.2-3.241-3.6-5.332-1.418-2.091-3.621-5.351-4.9-7.25s-2.605-3.894-2.95-4.431a23.922,23.922,0,0,0-6.858-6.809c-1.992-1.323-3.448-1.937-7.183-3.05a31.914,31.914,0,0,0-7.471-.307,21.935,21.935,0,0,0-13.122,6.311,34.294,34.294,0,0,0-5.076,7.058c-.345.633-1.035,1.861-1.552,2.7a18.827,18.827,0,0,0-.939,1.669,22.585,22.585,0,0,1-1.169,2.091c-.632,1.093-1.283,2.187-1.437,2.455-.345.614-2.529,4.412-2.758,4.8-.517.863-1.686,2.935-2.26,4.028-.383.69-.92,1.63-1.226,2.11-.287.48-.632,1.074-.766,1.343s-.555,1.016-.958,1.688a11.1,11.1,0,0,0-.728,1.285c0,.058-.517.959-1.149,2.033-.632,1.055-1.149,1.976-1.149,2.014s-.517.94-1.149,2.014c-.632,1.055-1.149,1.976-1.149,2.014s-.4.729-.881,1.554-.958,1.669-1.054,1.88a12.912,12.912,0,0,1-.709,1.266c-.709,1.208-3.237,5.62-3.831,6.694-.268.48-.766,1.381-1.149,2.014-.364.633-.92,1.63-1.245,2.206a42.652,42.652,0,0,1-2.854,4.411c-.479.691-1.188,1.842-1.59,2.59-.383.729-.766,1.419-.843,1.534a40.984,40.984,0,0,0-2.2,7.1,35.006,35.006,0,0,0-.038,9.168c.134.557.364,1.477.5,2.053a31.673,31.673,0,0,0,2.088,5.946A28.351,28.351,0,0,0,81.6,158.821c3.831,1.036,2.854.979,17.719.94,7.586-.039,19.06-.1,25.5-.173,6.437-.057,11.9-.057,12.126.019.556.172.517.69-.153,1.88-.307.557-.881,1.592-1.264,2.34-.4.728-.786,1.419-.862,1.534-.077.1-.556.96-1.054,1.919-.5.939-1.034,1.86-1.168,2.033a.959.959,0,0,0-.269.518c0,.115-.21.364-.459.517-.422.269-3.506.307-30.784.288-16.685-.019-30.631-.076-30.956-.134a1.086,1.086,0,0,1-.881-.614c-.134-.269-.843-1.515-1.532-2.743-.709-1.227-1.284-2.282-1.284-2.339a12.388,12.388,0,0,0-.766-1.363,10,10,0,0,1-.766-1.4,5.272,5.272,0,0,0-.536-1.017c-.306-.461-.958-1.63-1.456-2.571a20.874,20.874,0,0,0-1.073-1.918c-.077-.115-.536-.92-1-1.822-1.111-2.109-2.088-3.874-2.26-4.123-.153-.193-.728-1.247-1.82-3.261-.345-.633-1.149-2.091-1.8-3.241-.632-1.133-1.341-2.437-1.552-2.878-.23-.422-.594-1.093-.8-1.458s-1.341-2.4-2.509-4.507c-1.149-2.11-2.356-4.316-2.663-4.891-.326-.576-.651-1.151-.728-1.247-.077-.115-.46-.806-.862-1.534-.728-1.362-1.475-2.743-2.356-4.316-.268-.48-.9-1.65-1.437-2.589-.517-.96-1.149-2.072-1.379-2.494-1.092-1.956-1.743-3.165-2.395-4.412-.383-.748-.919-1.688-1.188-2.109-.249-.422-.824-1.42-1.245-2.206-1.877-3.491-2.222-4.143-2.356-4.316-.076-.115-.441-.748-.824-1.438-.364-.691-1.034-1.88-1.456-2.667a6.515,6.515,0,0,1-.785-1.86,3.363,3.363,0,0,1,.651-1.362c1.571-2.187,2.433-3.472,2.969-4.373a9.638,9.638,0,0,1,.958-1.381,1.721,1.721,0,0,0,.4-.518,14.973,14.973,0,0,1,1.015-1.554c.536-.806,1.3-1.937,1.667-2.493.364-.576,1.226-1.841,1.9-2.82,1.877-2.743,5.4-7.922,6.149-9.073.556-.863,1.571-2.378,2.912-4.392.134-.192.383-.537.555-.767.364-.46,3.6-5.275,7.6-11.24,1.513-2.263,2.912-4.3,3.084-4.507a2.593,2.593,0,0,0,.46-.71,14.378,14.378,0,0,1,1.13-1.726c.556-.786,1.111-1.554,1.207-1.726.632-1.017,2.95-4.412,3.486-5.1l.651-.806h68.157l.4.422c.422.46,2.165,3.031,8.18,12.046a55.242,55.242,0,0,0,4.31,5.946,2.14,2.14,0,0,0,1.877.671c2.778,0,3.66-2.743,1.725-5.466-.651-.94-2.223-3.222-4.655-6.79-.594-.863-.729-1.189-.575-1.438a18.865,18.865,0,0,1,3.448-2.494,1.492,1.492,0,0,0,.517-.383,71.142,71.142,0,0,1,6.053-4.2c1.687-1.113,1.878-1.208,2.644-1.132A2.29,2.29,0,0,1,160.527,42.414ZM22.968,47.439c.326.192.594.4.594.479,0,.1.115.153.268.153a2.252,2.252,0,0,1,.9.518c.345.307,1.264.959,2.069,1.5.939.614,1.475,1.112,1.513,1.362.077.5-2.49,4.335-3.046,4.526-.536.211-.651.134-5-2.973-1.532-1.093-1.609-1.419-.67-2.666.345-.46.785-1.093.977-1.4.709-1.132,1.283-1.822,1.552-1.822A2.866,2.866,0,0,1,22.968,47.439Zm157.865.479a15.98,15.98,0,0,1,2.3,3.8c0,.23-.69.844-2.147,1.861-3.678,2.551-3.735,2.589-4.156,2.455-.536-.153-3.122-4.066-3.046-4.565a4.4,4.4,0,0,1,2.012-1.65.375.375,0,0,0,.287-.173,22.788,22.788,0,0,1,3.122-2.206C180.047,46.979,180.181,47.036,180.833,47.918ZM120.2,55.763a14.051,14.051,0,0,1,5.191,1.956c1,.518,4.291,3.261,4.291,3.587a4.818,4.818,0,0,0,.747,1.036,16.1,16.1,0,0,1,2.318,4.392.945.945,0,0,0,.153.441,13.411,13.411,0,0,1,.9,4.1,17.8,17.8,0,0,1-4,12.026,9.31,9.31,0,0,1-1.245,1.4,4.718,4.718,0,0,0-.881.69,17.482,17.482,0,0,1-7.031,3.625,12.676,12.676,0,0,1-4.214.23c-2.854-.058-3.276-.115-4.846-.652a15.406,15.406,0,0,1-5.747-3.261,16.116,16.116,0,0,1-4.387-5.716,14.183,14.183,0,0,1-1.475-4.8c-.326-2.3.058-6.867.613-7.461a1.041,1.041,0,0,0,.173-.594c0-1.017,2.222-4.584,3.907-6.311,1.916-1.937,5.9-4.335,7.2-4.335a2.048,2.048,0,0,0,.766-.192C113.538,55.456,118.173,55.341,120.2,55.763ZM140.26,76.785c.249.4,2.012,3.011,3.888,5.812s4.368,6.5,5.537,8.248c1.15,1.746,2.184,3.242,2.279,3.357.078.1.441.614.786,1.151.345.518,1,1.534,1.475,2.225.46.691.939,1.381,1.035,1.554.115.173.8,1.189,1.531,2.263.747,1.055,1.724,2.532,2.2,3.261s1.743,2.627,2.835,4.219a13.308,13.308,0,0,1,1.954,3.415,3.708,3.708,0,0,1-.479,1.285c-.268.422-.537.9-.613,1.055-.058.153-.938,1.745-1.935,3.529s-2.145,3.894-2.566,4.7c-.441.806-.882,1.592-1,1.745a8.008,8.008,0,0,0-.67,1.247c-.25.518-.613,1.17-.786,1.439s-.786,1.342-1.34,2.4-1.112,2.053-1.227,2.206a6.139,6.139,0,0,0-.575,1.055c-.191.4-.708,1.381-1.186,2.148a15.4,15.4,0,0,0-.844,1.516,7.472,7.472,0,0,1-.651,1.208c-.365.6-1,1.726-1.418,2.513-.4.786-1.283,2.378-1.954,3.548-.65,1.151-1.475,2.628-1.82,3.261s-.938,1.706-1.3,2.4c-.383.69-1.073,1.919-1.513,2.725a6.249,6.249,0,0,1-1.092,1.591c-.364.135-33.485.538-33.83.4-.555-.21-.268-.69,1.456-2.359a27.559,27.559,0,0,0,4.291-5.255,35.571,35.571,0,0,0,2.682-5.543c.192-.576.421-1.266.517-1.515s.345-1.343.575-2.4a35.6,35.6,0,0,0,0-10.856,27.411,27.411,0,0,0-7.778-14.482,25.87,25.87,0,0,0-9.405-6.233,27.47,27.47,0,0,0-5.555-1.554c-4.042-.671-9.98-.326-12.93.786-1.494.557-1.916.518-1.916-.172a1.181,1.181,0,0,1,.287-.787.821.821,0,0,0,.287-.422,14.578,14.578,0,0,1,1.111-2.052c.613-1.017,1.169-1.995,1.245-2.206.077-.192.613-1.113,1.188-2.052s1.054-1.765,1.054-1.822a7.435,7.435,0,0,1,.651-1.208c.364-.594.843-1.419,1.073-1.841.422-.767,2.931-5.121,3.257-5.658.172-.269,2.433-4.316,3.007-5.37.153-.269.575-1,.939-1.63s.747-1.343.843-1.592a.653.653,0,0,1,1.111-.173,2.291,2.291,0,0,1,.345.806,3.071,3.071,0,0,0,.268.767,2.937,2.937,0,0,1,.287.844,22.205,22.205,0,0,0,13.792,13.388,22.73,22.73,0,0,0,14.195,0,25.568,25.568,0,0,0,6.264-3.28,22.621,22.621,0,0,0,8.639-13.791C138.958,75.807,139.647,75.9,140.26,76.785Zm-46.4,32.742a22.145,22.145,0,0,1,11.073,6.252,18.008,18.008,0,0,1,4.252,5.85,19.1,19.1,0,0,1,2.031,5.755,30.56,30.56,0,0,1,.076,8.247c-.115.518-.287,1.343-.383,1.822a24.716,24.716,0,0,1-2.95,6.617c-.249.327-.67.921-.958,1.344a24.659,24.659,0,0,1-8.543,6.9,19.549,19.549,0,0,1-9.482,2.014,19.773,19.773,0,0,1-8.007-1.362,16.02,16.02,0,0,1-3.391-1.63,23.264,23.264,0,0,1-10.67-14.175A18.908,18.908,0,0,1,66.3,131.7a21.818,21.818,0,0,1,1.111-7.288,36.506,36.506,0,0,1,2.682-5.275A12.348,12.348,0,0,0,70.935,118a22.707,22.707,0,0,1,4.463-4.43c.785-.576,1.456-1.055,1.494-1.055s.575-.307,1.188-.672a22.262,22.262,0,0,1,6.092-2.3,15.576,15.576,0,0,1,5.191-.4A20.51,20.51,0,0,1,93.864,109.527Zm74.039,8.516a13.492,13.492,0,0,1,1.168,1.572c1.743,2.59,2.662,3.952,2.855,4.259.115.172.8,1.189,1.531,2.244.747,1.074,1.609,2.359,1.917,2.858.324.518.88,1.362,1.264,1.879,1.225,1.688,1.187,1.88-.5,2.475a13.042,13.042,0,0,0-8.753,9.206,10.77,10.77,0,0,0-.288,3.933,10.863,10.863,0,0,0,1.13,5.121,3.8,3.8,0,0,0,.556.939c.268.154.211,1.036-.058,1.132-.134.039-4.827.115-10.42.173-8.813.115-10.211.076-10.4-.154-.326-.383-.193-.748,1.264-3.356.69-1.227,1.513-2.705,1.839-3.28s.709-1.266.842-1.535c.154-.268.6-1.093,1-1.822.977-1.8,2.547-4.641,3.046-5.466.21-.365.593-1.055.823-1.535.249-.479.614-1.17.844-1.534s.765-1.324,1.186-2.11,1-1.822,1.246-2.3c.269-.479.8-1.477,1.207-2.206.383-.748.786-1.438.862-1.534.076-.115.46-.805.862-1.534,1.82-3.357,2.949-5.428,3.448-6.234a7.767,7.767,0,0,0,.536-1.017A.663.663,0,0,1,167.9,118.043Zm13.677,20.274a7.916,7.916,0,0,1,5.363,4.028c.249.537.556,1.131.651,1.342a7.37,7.37,0,0,1,.039,4.047,7.712,7.712,0,0,1-7.567,5.831,6.752,6.752,0,0,1-5.421-2.32,7.605,7.605,0,0,1-2.222-6.521,8.767,8.767,0,0,1,2.548-4.624,8.332,8.332,0,0,1,3.467-1.783A5.152,5.152,0,0,1,181.58,138.317Zm-57.641,38.055c.307.575.249,13.982-.057,14.6a2.136,2.136,0,0,1-.881.806c-.594.287-2.414.326-22.26.326-23.332.019-22.508.058-23.236-.959-.249-.364-.307-.978-.307-3.28,0-2.033.058-2.857.249-2.972.115-.078,6.264-.193,13.639-.25,13.026-.1,13.428-.116,13.926-.479a2.676,2.676,0,0,0-.306-4.47c-.4-.21-3.257-.268-13.7-.306-10.555-.039-13.275-.1-13.5-.288-.46-.384-.422-2.608.038-2.877.211-.134,8.046-.192,23.256-.212C123.288,176.006,123.748,176.006,123.939,176.372ZM104.8,197.815c.306.307-.365,1.132-1.514,1.88a3.9,3.9,0,0,1-2.3.633,4.844,4.844,0,0,1-3.907-1.266c-.8-.729-.9-1.075-.383-1.381C97.178,197.393,104.5,197.508,104.8,197.815Z" fill="#b50003"/>
    <path id="Path_2" data-name="Path 2" d="M113.882,62.055a10.625,10.625,0,0,0-7.758,10.377,11.446,11.446,0,0,0,.958,4.6,10.238,10.238,0,0,1,.556.959,11.076,11.076,0,0,0,6.819,4.853,9.054,9.054,0,0,0,4.693-.019,10.872,10.872,0,0,0,7.778-6.867c.306-.786.364-1.419.344-3.721-.019-2.685-.038-2.82-.613-4.086a10.7,10.7,0,0,0-10-6.445A11.558,11.558,0,0,0,113.882,62.055Zm4.809,5.313a8.334,8.334,0,0,1,2.72,2.436A7.012,7.012,0,0,1,122,71.472a3.138,3.138,0,0,1-.039,2.052,5.473,5.473,0,0,1-3.582,3.894c-3.563,1.419-7.682-2.244-6.8-6.042a6.219,6.219,0,0,1,.728-1.765,8.205,8.205,0,0,1,2.911-2.417A7.935,7.935,0,0,1,118.691,67.368Z" fill="#b50003"/>
    <path id="Path_3" data-name="Path 3" d="M85.819,118.983a13.817,13.817,0,0,0-6.59,3.912,18.84,18.84,0,0,0-3.084,5.735,17.7,17.7,0,0,0,.153,6.714,14.73,14.73,0,0,0,2.988,5.294A12.853,12.853,0,0,0,88.98,144.8a12.045,12.045,0,0,0,8.237-2.877,13.316,13.316,0,0,0,4.329-6.388,9.6,9.6,0,0,0,.421-3.74,10.662,10.662,0,0,0-.938-5.217,3.66,3.66,0,0,1-.268-.69,19.014,19.014,0,0,0-2.376-3.357,13.6,13.6,0,0,0-6.226-3.51A15.689,15.689,0,0,0,85.819,118.983Zm5.632,5.428a6.49,6.49,0,0,1,2.912,1.822,7.712,7.712,0,0,1-2.318,12.544,5.155,5.155,0,0,1-3.142.614,5.122,5.122,0,0,1-3.218-.691,7.986,7.986,0,0,1-3.755-3.74c-.575-1.17-.613-1.362-.594-3.261a5.919,5.919,0,0,1,.5-3.126c.881-1.9,2.26-3.126,4.751-4.239A8.769,8.769,0,0,1,91.451,124.411Z" fill="#b50003"/>
    <path id="Path_4" data-name="Path 4" d="M178.8,143.112a3.134,3.134,0,0,0-1.628,2.014,2.342,2.342,0,0,0,.115,1.707,2.619,2.619,0,0,0,2.03,1.937,2.875,2.875,0,0,0,2.893-.766c.824-.73.824-.73.824-2.072,0-1.247-.039-1.4-.575-1.956A3.039,3.039,0,0,0,178.8,143.112Z" fill="#b50003"/>
  </g>
</svg>
