<svg width="122" height="173" viewBox="0 0 122 173" fill="none" xmlns="http://www.w3.org/2000/svg">
<path d="M52.7003 107.186C52.177 107.709 52.2385 111.034 52.8234 112.819C54.0855 116.636 56.148 121.223 58.3336 125.133C58.9184 126.148 59.5033 127.257 59.688 127.595C59.8419 127.934 60.7346 129.381 61.6889 130.827C62.6432 132.274 63.4127 133.629 63.4127 133.813C63.4127 134.552 61.8428 135.229 59.7188 135.383C58.5183 135.445 57.564 135.599 57.564 135.66C57.564 135.753 57.8718 136.06 58.272 136.368C58.9184 136.892 58.9184 136.953 58.3951 137.169C57.6871 137.446 52.2693 136.461 50.7302 135.783C48.4522 134.798 49.7143 134.09 52.177 134.983C53.5622 135.476 56.5174 135.599 56.7944 135.168C56.8868 134.983 56.3019 134.798 55.5015 134.675C54.6704 134.583 53.3467 134.306 52.4848 134.06C51.6537 133.844 50.1145 133.413 49.0987 133.136C48.0829 132.859 46.7592 132.459 46.1743 132.274C45.5894 132.12 44.2658 131.966 43.2807 131.997C42.2649 132.028 40.0485 131.843 38.3555 131.597C34.3845 131.012 30.475 131.012 29.0282 131.597C28.0124 132.028 27.9508 132.12 28.1355 133.074C28.3818 134.46 30.8444 136.707 33.0608 137.538C35.1848 138.338 38.6633 138.462 40.6334 137.754C41.7108 137.384 42.0494 137.353 42.7266 137.723C43.1884 137.938 45.928 138.369 48.7909 138.646C55.44 139.293 59.1647 140.093 62.3969 141.478C62.9202 141.724 63.4743 141.909 63.659 141.909C63.8129 141.909 64.1208 142.094 64.3054 142.34C64.7672 142.894 66.7989 143.264 67.9686 142.987C68.5843 142.863 69.0152 142.463 69.3538 141.724C70.1234 140.155 70.0003 138.646 69.0152 137.015C66.5218 132.859 65.5675 127.78 66.2756 122.27L66.5218 120.33L65.1982 119.099C64.4594 118.422 63.6282 117.652 63.3204 117.375C63.0433 117.098 62.6432 116.298 62.4585 115.621C61.7197 112.881 58.3028 108.971 55.3476 107.494C53.7777 106.724 53.2236 106.663 52.7003 107.186ZM34.0151 133.629C34.0151 134.09 33.7996 134.398 33.461 134.46C32.7837 134.583 32.4451 133.721 32.9377 133.136C33.4917 132.49 34.0151 132.736 34.0151 133.629ZM66.0293 135.753C66.2756 136.153 65.4136 136.491 64.7672 136.245C64.1515 135.999 64.4901 135.445 65.2597 135.445C65.5675 135.445 65.9369 135.599 66.0293 135.753Z" fill="#B50003"/>
<path d="M55.7479 1.10819C55.163 2.09324 55.1322 2.33951 55.4708 3.29378C55.8094 4.24805 55.8094 4.40196 55.2553 4.80214C54.5165 5.35623 53.9625 5.35623 52.3002 4.74057C51.5614 4.49431 49.776 4.24805 48.3292 4.21726L45.7126 4.1557L45.7742 4.98684C45.8358 5.91032 45.3125 6.15659 43.0345 6.15659C41.9263 6.15659 41.5569 6.27972 41.5569 6.61833C41.5569 6.98773 42.111 7.08007 44.7891 7.08007C47.929 7.08007 48.2676 7.14164 49.8068 8.18826C50.1146 8.40374 49.4066 9.60427 48.8525 9.88132C48.4831 10.0352 47.6827 10.4662 47.0979 10.8356C46.513 11.1742 44.2966 12.344 42.1726 13.3906C39.0635 14.9605 37.9246 15.3607 36.2623 15.5454C34.4461 15.7301 34.1075 15.8532 33.5534 16.6228C33.2148 17.0845 32.9377 17.577 32.9377 17.6694C32.9377 17.7617 32.5375 18.5313 32.0142 19.3317C31.2754 20.563 31.0907 21.1787 31.0907 22.5947C31.0907 24.1646 31.1523 24.3493 31.8603 24.6263C32.7222 24.9649 34.2306 24.7495 35.4619 24.1338C36.4162 23.6413 37.7399 23.5797 38.0169 23.9799C38.2324 24.3493 36.724 25.5498 36.016 25.5498C35.308 25.5498 33.7996 26.7504 34.0151 27.1198C34.2922 27.5507 36.7856 27.4584 38.0785 26.9351C40.7566 25.9192 42.4496 25.8577 45.7434 26.658C47.4057 27.0582 49.4989 27.3968 50.3609 27.3968C52.0539 27.3968 52.9466 28.0125 52.9466 29.1514C52.9466 29.7671 51.6845 33.892 51.0996 35.2464C50.9457 35.5851 50.5456 36.5085 50.2069 37.3089C49.1603 39.8023 47.5596 41.8956 44.1735 45.2509C41.9879 47.4057 40.6335 49.0372 40.0794 50.1454C39.2174 51.8692 37.4936 53.5623 35.4004 54.6705C33.9228 55.4708 32.5375 56.5174 31.06 57.9642C30.198 58.7954 29.7363 59.0109 29.213 58.8877C27.797 58.5799 22.5947 55.871 20.4706 54.3319C17.4847 52.2078 16.6536 51.6537 15.2683 51.0381C12.2824 49.6528 8.55765 51.1612 7.41868 54.2087C7.17242 54.7936 6.80302 55.6863 6.58754 56.2404C6.34128 56.7637 6.15658 57.4101 6.15658 57.6564C6.15658 57.9027 5.9411 58.5183 5.69484 58.9801C5.44858 59.4726 5.2331 60.3345 5.2331 60.9194C5.2331 62.2738 4.30961 65.3829 2.18559 71.1701C1.81619 72.1552 1.53915 73.2633 1.53915 73.6635C1.53915 74.0637 1.32367 74.8025 1.0774 75.3258C0.307829 76.8649 0 79.2968 0 83.9142C0 88.2238 0.307829 89.8861 1.04662 89.8861C1.75463 89.8861 3.17064 88.6856 4.18648 87.2388C5.10996 85.9459 5.2331 85.5457 5.2331 83.8527C5.2331 82.7753 5.01762 81.2669 4.74057 80.4665C4.00178 78.281 4.06335 72.8324 4.8637 71.324C5.84875 69.477 7.08007 68.0303 7.66495 68.0303C8.77313 68.0303 10.774 65.4753 10.774 64.0593C10.774 63.7206 11.0511 62.8279 11.3897 62.0584C12.1593 60.2114 12.7749 60.2422 14.6527 62.2431C17.3308 65.1059 18.5929 66.3372 19.7934 67.2607C21.7635 68.769 22.1021 70.1235 20.3783 69.5694C19.1778 69.1384 13.3598 68.3381 11.6667 68.3381C9.08096 68.3381 7.17242 69.5694 5.87954 72.0628C5.07918 73.5712 4.98683 77.6037 5.69484 79.3276C5.9411 79.9125 6.15658 80.7744 6.15658 81.2361C6.18737 81.6671 6.37206 82.3751 6.61833 82.8061C6.86459 83.237 7.04929 83.8835 7.08007 84.2221C7.08007 84.5915 7.26477 85.5765 7.51103 86.3769C8.21904 88.8395 8.92705 92.1333 8.92705 92.8721C8.92705 94.1342 10.1891 96.7507 11.3281 97.9205C11.9438 98.5361 12.7441 99.5827 13.0827 100.229C15.3607 104.662 16.9306 106.632 18.5005 106.971C19.855 107.278 20.5322 106.694 21.0863 104.754C21.5788 103.092 21.5788 102.015 21.0863 99.8906C20.84 98.8747 18.9007 96.6584 18.2543 96.6584C17.3616 96.6584 16.3149 95.6733 16.3149 94.8114C16.3149 94.3496 15.9148 93.4262 15.453 92.7797C14.5295 91.5176 13.9447 90.1324 13.5445 88.347C13.2059 86.777 12.4363 84.1913 11.5744 81.6055C10.8664 79.5738 10.8356 79.266 11.205 78.3425C11.8206 76.8649 12.8365 76.7418 14.8374 77.8808C15.7301 78.3733 16.6843 78.8966 16.9306 78.989C17.1769 79.0813 17.8849 79.4199 18.4698 79.7278C19.0546 80.0356 20.7169 80.8975 22.1329 81.6363C23.7336 82.4674 24.7802 83.2062 24.9649 83.6372C25.4575 84.9301 27.9201 85.8228 31.8603 86.1306C34.2306 86.3461 34.323 86.3769 34.3537 87.1157C34.3537 87.5466 34.4769 88.1623 34.6308 88.5009C35.4311 90.3786 40.5719 95.9196 43.7117 98.2899C45.4048 99.552 48.5139 101.584 49.5605 102.076C50.2993 102.446 53.8393 104.6 56.1788 106.14C58.5491 107.679 63.4128 112.358 63.4128 113.096C63.4128 114.174 64.4594 116.575 65.1982 117.191C65.9678 117.899 67.5069 118.114 68.2149 117.652C68.7075 117.344 69.8772 115.097 69.8772 114.451C69.8772 114.174 70.0004 113.866 70.1543 113.774C70.5237 113.527 71.3548 110.695 71.5395 109.033C71.6934 107.525 72.1552 106.817 72.9863 106.817C73.6943 106.817 73.7559 107.648 73.1094 108.479C72.8632 108.818 72.6477 109.526 72.6169 110.018C72.6169 111.065 71.6934 114.759 71.324 115.374C71.1701 115.559 70.4621 116.914 69.7233 118.33C66.0294 125.502 66.6142 130.304 72.463 140.031C73.8482 142.279 75.1103 144.372 75.2642 144.68C75.4489 144.988 75.7568 145.449 75.9722 145.696C76.3109 146.096 76.2493 146.404 75.6952 147.512C73.9098 151.052 68.3073 157.301 65.8139 158.47C64.7673 158.932 63.9053 159.763 62.6432 161.364C61.7197 162.595 60.3037 164.381 59.5342 165.304C57.6564 167.644 56.9484 169.091 56.9484 170.66C56.9484 172.785 57.1023 173 58.8569 173C60.9502 173 62.7356 172.477 64.09 171.399C64.7057 170.938 65.3521 170.537 65.5368 170.537C66.2756 170.537 67.1068 168.875 67.1068 167.428C67.1068 166.012 67.1683 165.889 68.2765 165.181C68.923 164.781 69.7233 164.042 70.0311 163.58C71.0778 162.041 71.7242 160.718 71.7242 160.164C71.7242 159.856 72.2167 159.271 72.8016 158.901C73.3865 158.501 74.2484 157.67 74.7101 157.054C75.8799 155.515 77.419 154.099 79.4199 152.714C80.3434 152.068 81.8518 150.959 82.7445 150.221C84.1913 149.112 84.376 148.805 84.2221 148.097C84.1297 147.666 83.945 146.681 83.7911 145.911C83.6372 145.141 82.9292 143.602 82.252 142.463C81.113 140.616 80.9591 140.155 80.9591 138.523C80.9591 137.23 81.1746 136.245 81.6055 135.352C82.3135 133.967 83.3601 132.674 83.8219 132.674C84.2221 132.674 87.3311 130.212 89.3012 128.334C90.902 126.764 93.5185 123.532 93.9802 122.516C94.1034 122.27 94.4728 121.593 94.8422 121.008C95.7349 119.53 96.3197 117.775 96.8123 114.974C97.3356 112.173 97.7973 111.496 98.7516 112.081C99.6135 112.604 99.8598 114.574 99.5827 118.914C99.4596 120.977 99.4904 122.67 99.6751 123.132C99.8906 123.686 100.014 123.778 100.137 123.44C100.383 122.639 101.276 118.083 101.368 117.129C101.399 116.513 101.614 116.175 102.015 116.113C102.938 115.928 103.184 116.483 103.184 118.791C103.184 121.069 102.815 122.362 101.214 125.871C99.8598 128.827 99.6751 133.629 100.937 132.859C101.122 132.736 101.276 132.09 101.276 131.381C101.276 130.52 101.522 129.812 102.138 129.011C103.277 127.503 103.554 127.01 104.785 124.517C106.971 119.992 107.34 116.082 105.77 113.158C104.385 110.572 105.031 109.464 106.724 111.588C107.525 112.573 108.602 115.898 108.633 117.468C108.664 118.483 109.926 122.208 110.234 122.208C110.388 122.208 110.511 120.023 110.511 117.283C110.511 112.419 110.511 112.327 109.618 110.665L108.725 108.972L109.495 108.356C109.926 108.017 110.511 107.74 110.788 107.74C111.311 107.74 114.174 105.924 115.067 105.031C115.959 104.108 117.745 101.768 118.237 100.814C119.469 98.5053 119.838 96.4121 119.684 92.7182C119.592 90.7173 119.376 88.5009 119.191 87.7313C118.607 85.361 117.899 80.5281 117.899 78.9274C117.899 76.3109 119.561 71.6934 121.162 69.8464C121.716 69.2308 121.746 67.1068 121.192 67.1068C121.008 67.1068 120.638 67.5377 120.392 68.0303C120.177 68.5536 119.376 69.6925 118.607 70.5852C117.868 71.4779 116.883 72.7708 116.452 73.4788C114.759 76.4032 113.127 74.1561 113.897 69.9696C114.328 67.784 115.22 65.9062 117.344 62.7972C119.038 60.273 119.807 58.6415 119.684 57.8103C119.53 56.7021 119.007 56.8868 118.36 58.3028C117.529 60.0883 110.695 67.2607 110.049 67.0144C109.71 66.8605 109.587 66.3372 109.587 64.7365C109.587 61.1041 111.465 56.9792 114.605 53.7778C117.006 51.2843 117.129 50.8226 114.974 52.1155C113.527 52.9774 111.28 55.0399 110.08 56.6098C107.155 60.4577 105.801 65.3214 106.509 69.631C106.817 71.7242 107.032 72.6169 108.233 76.9573C110.326 84.5607 110.572 85.8536 110.572 90.2863C110.603 93.5801 110.48 94.6883 110.049 95.9196C108.51 100.014 103.615 104.57 99.9521 105.339C98.1052 105.739 96.6584 105.493 96.6584 104.785C96.6584 104.169 94.6883 100.568 93.4262 98.8132C91.7947 96.5968 87.2696 92.4103 83.1139 89.2705C74.6178 82.8984 70.4005 78.8658 67.8148 74.6486C66.368 72.3091 64.3363 67.3222 64.3363 66.2141C64.3363 65.937 64.6133 65.3829 64.9212 64.9827L65.4753 64.244L67.4762 65.229C68.5536 65.7523 69.8157 66.1833 70.2158 66.1833C71.1393 66.1833 72.5246 66.8605 75.1103 68.5843C76.1569 69.2924 77.0804 69.8772 77.142 69.8772C77.2036 69.8772 77.2651 69.6617 77.2651 69.4155C77.2651 69.1692 77.142 68.9537 76.9881 68.9537C76.8034 68.9537 76.3724 68.3996 76.003 67.7532C75.2335 66.368 74.1253 65.4753 72.8632 65.1367C72.3706 65.0135 72.032 64.7673 72.1244 64.5518C72.3091 63.9977 74.0329 64.2747 75.5105 65.1367C76.2185 65.5368 77.0804 65.8754 77.3883 65.8754C78.6504 65.8754 76.0338 63.813 73.2941 62.6125C70.5544 61.4119 69.2308 60.4269 69.908 60.0267C70.0927 59.9036 70.616 59.9959 71.0778 60.2114C71.5087 60.4577 72.0628 60.6424 72.3091 60.6424C72.8016 60.6424 75.4797 61.5043 76.8034 62.0584C78.8966 62.9511 80.8975 63.1973 82.8368 62.7664C84.5299 62.397 85.9151 61.5043 85.5149 61.0733C85.3302 60.9194 85.1763 60.981 83.1754 61.966C81.3285 62.8895 81.1438 62.8279 76.8957 59.5342C75.8183 58.6722 74.8025 58.1797 73.879 58.0258C72.463 57.7795 70.7084 56.7329 70.9854 56.2712C71.0778 56.148 72.9247 56.0249 75.0795 56.0249C78.2194 56.0249 79.1121 56.1173 79.4199 56.4867C79.8509 57.01 80.8359 57.1023 81.113 56.6406C81.2053 56.4559 81.0514 56.2404 80.7436 56.1173C80.4358 55.9941 80.1279 55.8094 80.0356 55.6863C79.7278 55.2861 76.4648 53.6238 75.4797 53.4084C74.156 53.1313 74.156 52.331 75.5105 52.331C76.4032 52.3617 78.0655 52.8543 80.4358 53.8085C80.9283 54.024 81.8518 54.1779 82.529 54.1779C83.5448 54.1779 83.7603 54.0856 83.668 53.6546C83.6064 53.316 83.0215 53.0082 81.9749 52.7311C81.0822 52.5157 79.8509 51.9616 79.2352 51.5614C78.5888 51.1304 77.7269 50.6995 77.2959 50.6071C75.8491 50.3301 73.8174 49.2527 73.9714 48.8525C74.1253 48.4215 76.0338 48.5139 76.4648 48.9448C76.6495 49.1295 77.0496 49.2527 77.3883 49.2527C77.8808 49.2527 77.9116 49.1603 77.6345 48.8833C77.142 48.3907 77.1728 47.4057 77.6653 47.4057C78.989 47.4057 81.3593 48.4523 82.252 49.4066C83.1754 50.4224 84.0374 50.8226 84.0374 50.2069C84.0374 49.4989 79.6354 44.9431 78.989 44.9431C78.7427 44.9431 77.5422 44.0196 76.3724 42.8806C74.6794 41.3107 74.2792 40.7566 74.5254 40.4488C75.0795 39.7715 78.4964 40.7874 80.3434 42.1418C81.5132 43.0345 84.9301 43.8657 85.3918 43.4039C85.8228 42.973 85.361 42.1726 84.6838 42.1726C83.3909 42.1726 81.8826 41.1568 81.2669 39.8639C80.5897 38.4479 79.2352 37.1242 77.5422 36.1699C75.4797 35.0002 74.2792 33.8304 74.6486 33.2763C74.8025 32.9993 76.0646 33.5534 76.6495 34.169C76.7418 34.2614 77.3883 34.7231 78.127 35.2157C78.8351 35.7082 79.4199 36.2315 79.4199 36.3546C79.4199 36.5085 79.5738 36.6317 79.7585 36.6317C79.9432 36.6317 80.8975 37.2473 81.8826 38.0169C83.4833 39.2482 84.653 39.7408 84.653 39.2174C84.653 39.1251 84.2528 38.5094 83.7295 37.863C83.237 37.2166 82.806 36.6009 82.806 36.4778C82.806 36.3854 82.252 35.6466 81.5747 34.8463C80.3742 33.461 79.7585 32.5375 79.1737 31.2447C78.989 30.9061 78.2502 30.0441 77.4806 29.3361C74.7717 26.8119 74.9564 26.1655 78.0039 27.5507C78.9274 27.9817 80.2203 28.3203 80.8975 28.3203C81.5747 28.3203 82.6214 28.5358 83.2062 28.782C83.8219 29.0283 84.8069 29.2438 85.4226 29.2438C86.1614 29.2438 86.5 29.1206 86.5 28.782C86.5 28.5358 86.2537 28.3203 85.9767 28.3203C84.5607 28.3203 79.697 25.95 78.7735 24.811C78.0655 23.9491 78.5272 23.4874 79.6046 23.9799C80.1587 24.2262 81.113 24.2877 82.529 24.1338C84.5915 23.9491 87.4235 24.4416 87.4235 24.9957C87.4235 25.1189 87.6697 25.242 87.9776 25.242C88.9011 25.242 86.2845 23.1795 84.7146 22.687C83.9142 22.41 82.3751 22.1021 81.2669 21.979C79.5123 21.7943 79.1121 21.6096 77.9731 20.5322C77.2343 19.8242 76.2185 18.9931 75.726 18.6545C75.2335 18.2851 74.8025 17.8233 74.8025 17.6078C74.8025 17.1769 76.3724 17.0845 76.8342 17.4847C77.3883 18.008 81.1746 19.0854 82.3443 19.0854C83.2678 19.0854 83.7603 19.3317 84.8377 20.3167C86.1306 21.4865 87.1157 21.8867 87.1157 21.2402C87.1157 21.0555 86.9925 20.9324 86.8078 20.9324C86.6539 20.9324 86.5 20.7785 86.5 20.5938C86.5 20.4399 85.9151 19.6703 85.2379 18.9315C84.2836 17.9157 83.4217 17.3924 81.9133 16.869C80.5281 16.3765 79.5123 15.7609 78.6504 14.9297C77.419 13.6676 75.6028 12.621 74.7101 12.621C73.9098 12.621 73.8482 12.1285 74.587 11.482C75.2335 10.8972 76.9881 10.0968 78.4349 9.69662C78.8966 9.57349 79.1121 9.29644 79.0505 8.98862C78.9274 8.28061 76.8342 7.97278 73.4173 8.18826L70.6468 8.37296L69.2 7.26477C68.3996 6.64911 67.5993 6.15659 67.4454 6.15659C66.8297 6.15659 67.1068 5.29467 67.7532 5.14075C68.3073 4.98684 68.3996 4.80214 68.2149 4.00178C67.9379 2.55499 66.3064 0.615662 65.3829 0.615662C64.798 0.615662 64.5826 0.800359 64.4594 1.53915C64.3363 2.03168 64.1516 2.46264 63.9977 2.46264C63.4128 2.46264 63.7514 3.69395 64.4902 4.18648C65.5984 4.89449 65.1367 5.29467 63.4744 5.0484C61.5658 4.77136 61.2272 4.58666 59.5034 2.73968C58.703 1.87776 57.6872 0.923491 57.2254 0.584879L56.3943 3.56883e-06L55.7479 1.10819ZM65.3214 7.7573C64.952 8.12669 64.2439 7.78808 64.4902 7.3879C64.5826 7.23399 64.8904 7.20321 65.1367 7.29556C65.4445 7.41869 65.506 7.5726 65.3214 7.7573ZM66.1833 10.3123C66.1833 10.5585 66.0601 10.774 65.9062 10.774C65.506 10.774 65.229 10.2815 65.4753 10.0352C65.8139 9.69662 66.1833 9.85054 66.1833 10.3123ZM55.1938 10.9895C55.4708 11.2666 54.7936 12.0361 54.455 11.8206C54.024 11.5744 54.1164 10.774 54.5781 10.774C54.8244 10.774 55.1014 10.8664 55.1938 10.9895ZM46.79 13.9754C46.79 14.4988 43.1884 16.3149 41.9571 16.4073C40.4488 16.4996 40.9721 15.6685 43.0961 14.5911C45.2201 13.5137 46.79 13.2367 46.79 13.9754ZM52.4849 14.3141C54.1779 16.0379 53.0697 17.6386 50.8534 16.6843C49.1911 16.0071 48.7601 15.0836 49.6528 14.1909C50.5148 13.329 51.4998 13.3598 52.4849 14.3141ZM66.9836 15.8532C67.1068 16.0995 67.5685 16.3149 68.0302 16.3149C68.5228 16.3149 68.9845 16.4381 69.1076 16.6228C69.3231 16.9614 67.9995 17.8541 66.5835 18.3466C65.3214 18.7776 64.798 18.3158 65.1059 16.9306C65.3829 15.6377 66.645 14.9297 66.9836 15.8532ZM35.2157 19.5779C35.9237 20.2552 35.8313 20.8093 34.9078 21.5173C33.6765 22.5023 32.9377 22.3792 32.9377 21.1787C32.9377 20.1628 33.6765 19.0854 34.3537 19.0854C34.5692 19.0854 34.9694 19.3009 35.2157 19.5779ZM54.1779 22.0406C54.1779 22.1329 53.747 22.7794 53.2237 23.4258C52.5464 24.2877 52.0539 24.6263 51.4383 24.6263C50.053 24.6263 50.053 24.2569 51.469 23.0256C52.608 22.0406 54.1779 21.4557 54.1779 22.0406ZM58.7954 23.4566C58.7954 24.1646 57.4409 25.5498 56.7637 25.5498C55.9941 25.5498 55.9941 24.8726 56.7945 23.8568C57.718 22.6254 58.7954 22.41 58.7954 23.4566ZM60.6116 25.673C61.1349 26.2886 60.1498 27.2429 58.6107 27.6738C56.4251 28.2587 56.3635 27.1198 58.4875 25.9808C60.0883 25.1189 60.1498 25.1189 60.6116 25.673ZM70.5852 30.3827C70.8623 30.6598 69.908 31.7064 69.3539 31.7064C68.9537 31.7064 68.7998 30.7521 69.1692 30.3827C69.4155 30.1057 70.339 30.1057 70.5852 30.3827ZM70.4929 33.3687C70.4929 33.8612 69.6617 34.2614 69.2308 33.9843C68.6459 33.6457 68.9537 32.9377 69.7233 32.9377C70.1851 32.9377 70.4929 33.1224 70.4929 33.3687ZM57.1947 34.2614C57.9027 35.0925 56.148 39.4637 53.747 42.7883C51.2843 46.2052 49.5605 47.6212 49.5605 46.2052C49.5605 45.6203 50.053 44.6352 53.9932 37.4012C54.5781 36.3238 56.4251 33.8612 56.6406 33.8612C56.7637 33.8612 57.01 34.0459 57.1947 34.2614ZM70.0004 35.8621C70.0927 36.1391 69.9696 36.4162 69.6925 36.5393C69.1076 36.7548 68.8306 36.4778 69.0461 35.8621C69.2923 35.2772 69.7541 35.2772 70.0004 35.8621ZM70.2158 38.0169C70.2158 38.1708 69.8464 38.3555 69.4155 38.4171C68.8614 38.4787 68.6459 38.3863 68.6459 38.0169C68.6459 37.6475 68.8614 37.5552 69.4155 37.6167C69.8464 37.6783 70.2158 37.8322 70.2158 38.0169ZM70.1235 40.418C70.2466 41.0644 69.3539 41.4646 68.8922 41.0028C68.6459 40.7566 68.6459 40.5103 68.9537 40.1717C69.4463 39.5868 70.0004 39.71 70.1235 40.418ZM69.6002 42.6343C69.6002 42.7883 69.2308 42.973 68.7998 43.0345C68.2457 43.0961 68.0302 43.0037 68.0302 42.6343C68.0302 42.2649 68.2457 42.1726 68.7998 42.2342C69.2308 42.2957 69.6002 42.4496 69.6002 42.6343ZM68.8922 45.3432C68.9845 45.7434 68.769 45.8666 68.061 45.8666C67.0144 45.8666 66.7066 45.097 67.6609 44.8507C68.4304 44.6352 68.7998 44.7891 68.8922 45.3432ZM67.9687 48.0829C67.8763 48.2984 67.6301 48.4831 67.4146 48.4831C67.1991 48.4831 66.9528 48.2984 66.8913 48.0829C66.7989 47.8674 67.0144 47.7135 67.4146 47.7135C67.8148 47.7135 68.0302 47.8674 67.9687 48.0829ZM67.1068 50.0222C67.1068 50.2685 66.8913 50.484 66.645 50.484C66.1525 50.484 66.0294 50.1146 66.3988 49.776C66.7374 49.4066 67.1068 49.5297 67.1068 50.0222ZM12.7749 53.2545C13.052 53.7162 12.3439 54.4858 11.6359 54.4858C10.9279 54.4858 10.5278 53.5931 11.1126 53.2237C11.6975 52.8543 12.5286 52.8851 12.7749 53.2545ZM49.1603 53.747C50.484 54.2703 51.1304 55.1938 50.5148 55.8094C50.2993 56.0249 49.5605 56.0249 48.0521 55.7171C46.0512 55.3477 45.2509 55.3785 41.9571 55.9018C40.9105 56.0557 40.6335 56.0249 40.6335 55.6555C40.6335 53.9009 46.2359 52.6388 49.1603 53.747ZM9.08096 58.1797C9.81975 59.3803 7.84964 63.9053 7.08007 62.7972C6.61833 62.1507 6.98772 60.119 7.72651 58.8877C8.37295 57.8411 8.74235 57.6564 9.08096 58.1797ZM19.3932 62.3662C19.3932 62.6125 19.1162 62.7972 18.7776 62.7972C18.1004 62.7972 17.0845 61.4427 17.3923 60.9502C17.6386 60.5192 19.3932 61.7505 19.3932 62.3662ZM55.5632 61.1349C55.8402 61.4119 56.0249 61.9968 55.9633 62.4585C55.9018 63.0742 55.6863 63.2897 55.0091 63.3512C53.4391 63.5359 52.7311 62.3354 53.7778 61.1964C54.3934 60.5192 54.9167 60.4884 55.5632 61.1349ZM29.1514 63.2897C29.3669 63.8746 28.4126 66.8913 27.5199 68.3381C26.5349 69.908 25.3036 70.9854 24.9034 70.5852C24.6879 70.3698 24.8418 69.6925 25.4883 68.3073C25.9808 67.2299 26.658 65.7215 26.9658 64.952C27.7662 63.0434 28.7512 62.2738 29.1514 63.2897ZM63.7206 70.3698C64.0593 71.1701 64.3363 72.0012 64.3363 72.2475C64.3363 72.4938 64.521 73.0786 64.7673 73.5096C64.9827 73.9714 65.506 74.9564 65.8754 75.726C66.2756 76.4956 67.5377 78.4041 68.6767 79.9432C71.324 83.5141 71.5087 84.2836 69.2923 82.5906C65.0135 79.2968 61.5658 73.9098 61.5658 70.4005C61.5658 69.0769 61.6274 68.9537 62.3354 68.9537C62.9203 68.9537 63.1973 69.2308 63.7206 70.3698ZM8.34217 71.8166C8.00356 72.1859 7.60338 72.3706 7.51103 72.2475C7.2032 71.9397 8.34217 70.7699 8.68078 70.9854C8.86548 71.1085 8.71157 71.4779 8.34217 71.8166ZM21.9482 77.9116C22.687 78.2502 23.0564 79.0505 22.5947 79.4815C22.0406 80.0356 18.4698 77.9116 18.4698 77.0189C18.4698 76.6803 20.3783 77.1728 21.9482 77.9116ZM10.1276 85.0224C10.3738 86.5 10.497 87.8237 10.3738 87.9468C10.2507 88.0699 9.88132 87.8852 9.5427 87.5466C9.08096 87.1157 8.86548 86.3461 8.74235 84.5299C8.52687 82.2827 8.55765 82.1288 9.11174 82.252C9.57349 82.3443 9.78897 82.8368 10.1276 85.0224ZM114.636 85.9767C115.313 87.7929 115.313 94.3804 114.636 96.5352C113.774 99.1518 112.542 101.368 111.219 102.723C110.018 103.923 108.818 104.385 108.264 103.862C107.956 103.554 108.787 101.614 109.618 100.722C112.665 97.4279 113.281 95.4886 113.281 89.2397C113.281 85.5765 113.373 84.653 113.712 84.653C113.928 84.653 114.359 85.2379 114.636 85.9767ZM42.973 90.1632C43.4963 90.471 44.5429 91.4868 45.2817 92.3488C47.4057 94.9037 48.637 96.1043 50.9457 97.9512C52.1463 98.9055 53.5623 100.168 54.1472 100.783C55.0399 101.707 55.1322 101.891 54.7012 102.076C54.1472 102.292 53.9009 102.199 52.5772 101.337C46.0512 97.1817 41.2491 92.6258 41.2491 90.5633C41.2491 89.4244 41.6185 89.332 42.973 90.1632ZM70.8007 94.3496C71.2317 94.873 71.047 96.0119 70.2466 97.4895C69.7233 98.5361 68.8306 98.844 68.5536 98.0744C68.3073 97.4895 68.9537 95.0577 69.5078 94.4112C70.0619 93.7648 70.3082 93.7648 70.8007 94.3496ZM18.9315 103.738C18.7776 103.985 18.5929 103.985 18.4082 103.8C18.2235 103.615 18.1927 103.307 18.3158 103.123C18.4698 102.877 18.6544 102.877 18.8391 103.061C19.0238 103.246 19.0546 103.554 18.9315 103.738ZM93.8263 112.419C93.8879 113.835 93.8263 114.205 93.4569 114.205C92.8721 114.205 92.0409 112.542 92.0409 111.373C92.0409 110.572 92.1333 110.48 92.9028 110.572C93.7032 110.665 93.734 110.757 93.8263 112.419ZM71.8781 121.008C71.5703 122.824 70.5852 125.133 70.1543 125.133C69.6617 125.133 69.4155 123.501 69.6925 122.023C70.1543 119.622 72.2783 118.607 71.8781 121.008ZM73.879 135.63C74.9564 138.092 74.4947 139.847 73.2326 138.123C72.3399 136.861 72.1552 134.214 72.9863 134.214C73.171 134.214 73.5712 134.86 73.879 135.63ZM81.7286 148.066C81.5747 148.312 81.39 148.312 81.2053 148.127C81.0206 147.943 80.9899 147.635 81.113 147.45C81.2669 147.204 81.4516 147.204 81.6363 147.389C81.821 147.573 81.8518 147.881 81.7286 148.066ZM76.9573 150.436C76.9573 151.236 70.6776 157.762 70.1851 157.455C70.0004 157.362 69.8772 156.962 69.8772 156.623C69.8772 155.731 75.3258 150.282 76.2801 150.251C76.6495 150.221 76.9573 150.313 76.9573 150.436ZM66.2756 160.594C66.3988 160.687 66.3372 160.964 66.1525 161.21C65.8754 161.518 65.6907 161.518 65.3829 161.272C65.1367 161.087 65.0443 160.81 65.1367 160.656C65.3214 160.317 65.9986 160.287 66.2756 160.594ZM61.8121 168.29C61.8737 168.752 61.6582 169.121 61.1041 169.491C60.3961 169.952 60.2422 169.952 59.842 169.552C59.4418 169.152 59.4726 168.998 60.0575 168.259C60.7963 167.305 61.689 167.305 61.8121 168.29Z" fill="#B50003"/>
</svg>
