<svg width="1323" height="2040" viewBox="0 0 1323 2040" fill="none" xmlns="http://www.w3.org/2000/svg">
<path d="M626.456 10.142C621.103 19.157 620.822 21.4108 623.921 30.1441C627.019 38.8775 627.019 40.2861 621.948 43.9484C615.187 49.0194 610.116 49.0194 594.903 43.385C588.142 41.1312 571.802 38.8775 558.561 38.5957L534.615 38.0323L535.179 45.6387C535.742 54.0904 530.953 56.3441 510.105 56.3441C499.964 56.3441 496.583 57.471 496.583 60.5699C496.583 63.9506 501.654 64.7957 526.164 64.7957C554.899 64.7957 557.998 65.3592 572.084 74.9377C574.901 76.9097 568.422 87.8968 563.351 90.4323C559.97 91.8409 552.645 95.785 547.293 99.1656C541.94 102.265 521.656 112.97 502.217 122.548C473.764 136.916 463.34 140.579 448.127 142.269C431.505 143.959 428.407 145.086 423.336 152.129C420.237 156.355 417.701 160.862 417.701 161.708C417.701 162.553 414.039 169.596 409.25 176.92C402.488 188.189 400.798 193.824 400.798 206.783C400.798 221.151 401.361 222.841 407.841 225.376C415.729 228.475 429.533 226.503 440.802 220.869C449.536 216.361 461.65 215.798 464.185 219.46C466.157 222.841 452.353 233.828 445.873 233.828C439.394 233.828 425.589 244.815 427.561 248.196C430.097 252.14 452.916 251.295 464.748 246.505C489.258 237.209 504.753 236.645 534.897 243.97C550.11 247.632 569.267 250.731 577.155 250.731C592.65 250.731 600.819 256.366 600.819 266.789C600.819 272.424 589.269 310.174 583.916 322.57C582.508 325.669 578.845 334.12 575.746 341.445C566.168 364.265 551.518 383.422 520.529 414.129C500.527 433.85 488.131 448.781 483.06 458.923C475.172 474.699 459.396 490.194 440.239 500.336C426.716 507.66 414.039 517.239 400.516 530.48C392.628 538.086 388.402 540.058 383.613 538.931C370.654 536.114 323.043 511.323 303.604 497.237C276.277 477.798 268.671 472.727 255.994 467.093C228.667 454.415 194.579 468.219 184.155 496.11C181.901 501.462 178.52 509.632 176.548 514.703C174.295 519.493 172.604 525.409 172.604 527.662C172.604 529.916 170.632 535.551 168.379 539.776C166.125 544.284 164.153 552.172 164.153 557.525C164.153 569.921 155.701 598.374 136.262 651.338C132.882 660.353 130.346 670.495 130.346 674.157C130.346 677.819 128.374 684.581 126.12 689.37C119.077 703.456 116.26 725.712 116.26 767.97C116.26 807.411 119.077 822.624 125.839 822.624C132.318 822.624 145.277 811.637 154.574 798.396C163.026 786.564 164.153 782.901 164.153 767.407C164.153 757.546 162.181 743.742 159.645 736.417C152.884 716.415 153.447 666.551 160.772 652.746C169.787 635.843 181.056 622.602 186.409 622.602C196.551 622.602 214.862 599.219 214.862 586.26C214.862 583.161 217.398 574.991 220.497 567.948C227.54 551.045 233.174 551.327 250.359 569.639C274.869 595.839 286.419 607.108 297.407 615.559C315.437 629.364 318.536 641.759 302.759 636.688C291.772 632.744 238.527 625.419 223.032 625.419C199.368 625.419 181.901 636.688 170.069 659.508C162.744 673.312 161.899 710.217 168.379 725.994C170.632 731.346 172.604 739.235 172.604 743.46C172.886 747.404 174.576 753.884 176.83 757.828C179.084 761.772 180.774 767.688 181.056 770.787C181.056 774.168 182.746 783.183 185 790.508C191.48 813.045 197.959 843.189 197.959 849.951C197.959 861.501 209.51 885.447 219.933 896.153C225.568 901.787 232.893 911.366 235.991 917.282C256.839 957.85 271.207 975.88 285.574 978.979C297.97 981.796 304.168 976.443 309.239 958.695C313.746 943.482 313.746 933.622 309.239 914.183C306.985 904.886 289.237 884.602 283.32 884.602C275.151 884.602 265.572 875.587 265.572 867.699C265.572 863.473 261.91 855.022 257.684 849.105C249.232 837.555 243.88 824.878 240.217 808.538C237.118 794.17 230.075 770.505 222.187 746.841C215.708 728.247 215.426 725.43 218.807 716.979C224.441 703.456 233.738 702.329 252.05 712.753C260.219 717.26 268.953 722.05 271.207 722.895C273.46 723.74 279.94 726.839 285.293 729.656C290.645 732.473 305.858 740.361 318.817 747.123C333.467 754.729 343.045 761.49 344.736 765.435C349.243 777.267 371.781 785.437 407.841 788.254C429.533 790.226 430.379 790.508 430.66 797.269C430.66 801.213 431.787 806.847 433.196 809.946C440.521 827.131 487.568 877.841 516.303 899.533C531.798 911.084 560.252 929.678 569.83 934.185C576.591 937.566 608.989 957.286 630.4 971.372C652.093 985.458 696.604 1028.28 696.604 1035.04C696.604 1044.9 706.183 1066.88 712.944 1072.51C719.987 1078.99 734.073 1080.96 740.553 1076.74C745.06 1073.92 755.766 1053.35 755.766 1047.44C755.766 1044.9 756.893 1042.08 758.301 1041.24C761.682 1038.99 769.288 1013.07 770.979 997.854C772.387 984.05 776.613 977.57 784.219 977.57C790.699 977.57 791.262 985.176 785.346 992.783C783.093 995.882 781.121 1002.36 780.839 1006.87C780.839 1016.45 772.387 1050.25 769.007 1055.89C767.598 1057.58 761.118 1069.97 754.357 1082.93C720.551 1148.57 725.903 1192.52 779.43 1281.55C792.108 1302.11 803.658 1321.27 805.067 1324.09C806.757 1326.9 809.574 1331.13 811.546 1333.38C814.645 1337.05 814.082 1339.86 809.011 1350C792.671 1382.4 741.398 1439.59 718.579 1450.3C709 1454.52 701.112 1462.13 689.561 1476.78C681.11 1488.05 668.151 1504.39 661.108 1512.84C643.923 1534.25 637.443 1547.49 637.443 1561.86C637.443 1581.3 638.852 1583.27 654.91 1583.27C674.067 1583.27 690.407 1578.48 702.802 1568.62C708.437 1564.39 714.353 1560.73 716.043 1560.73C722.804 1560.73 730.411 1545.52 730.411 1532.28C730.411 1519.32 730.974 1518.19 741.116 1511.71C747.032 1508.05 754.357 1501.29 757.174 1497.06C766.753 1482.98 772.669 1470.86 772.669 1465.79C772.669 1462.97 777.176 1457.62 782.529 1454.24C787.882 1450.58 795.77 1442.97 799.996 1437.34C810.701 1423.25 824.787 1410.29 843.099 1397.62C851.551 1391.7 865.355 1381.56 873.525 1374.8C886.766 1364.65 888.456 1361.84 887.047 1355.36C886.202 1351.41 884.512 1342.4 883.103 1335.36C881.695 1328.31 875.215 1314.23 869.017 1303.8C858.594 1286.9 857.185 1282.67 857.185 1267.74C857.185 1255.91 859.157 1246.89 863.101 1238.72C869.581 1226.05 879.159 1214.22 883.385 1214.22C887.047 1214.22 915.501 1191.68 933.531 1174.49C948.181 1160.12 972.127 1130.54 976.353 1121.25C977.48 1118.99 980.86 1112.8 984.241 1107.44C992.411 1093.92 997.764 1077.86 1002.27 1052.23C1007.06 1026.59 1011.29 1020.39 1020.02 1025.74C1027.91 1030.53 1030.16 1048.56 1027.63 1088.29C1026.5 1107.16 1026.78 1122.66 1028.47 1126.88C1030.44 1131.95 1031.57 1132.8 1032.7 1129.7C1034.95 1122.37 1043.12 1080.68 1043.97 1071.95C1044.25 1066.31 1046.22 1063.21 1049.88 1062.65C1058.33 1060.96 1060.59 1066.03 1060.59 1087.16C1060.59 1108.01 1057.21 1119.84 1042.56 1151.95C1030.16 1179 1028.47 1222.95 1040.02 1215.91C1041.71 1214.78 1043.12 1208.86 1043.12 1202.38C1043.12 1194.49 1045.37 1188.02 1051.01 1180.69C1061.43 1166.89 1063.97 1162.38 1075.24 1139.56C1095.24 1098.15 1098.62 1062.37 1084.25 1035.6C1071.57 1011.94 1077.49 1001.8 1092.99 1021.24C1100.31 1030.25 1110.17 1060.68 1110.45 1075.05C1110.73 1084.34 1122.28 1118.43 1125.1 1118.43C1126.51 1118.43 1127.64 1098.43 1127.64 1073.35C1127.64 1028.84 1127.64 1028 1119.47 1012.79L1111.3 997.29L1118.34 991.656C1122.28 988.557 1127.64 986.022 1130.17 986.022C1134.96 986.022 1161.16 969.4 1169.33 961.23C1177.5 952.779 1193.84 931.368 1198.35 922.635C1209.62 901.506 1213 882.349 1211.59 848.542C1210.74 830.23 1208.77 809.946 1207.08 802.903C1201.73 781.211 1195.25 736.981 1195.25 722.331C1195.25 698.385 1210.46 656.127 1225.11 639.224C1230.18 633.589 1230.46 614.151 1225.39 614.151C1223.7 614.151 1220.32 618.095 1218.07 622.602C1216.1 627.391 1208.77 637.815 1201.73 645.985C1194.97 654.155 1185.95 665.987 1182.01 672.467C1166.51 699.23 1151.58 678.665 1158.63 640.351C1162.57 620.348 1170.74 603.164 1190.18 574.71C1205.67 551.609 1212.72 536.678 1211.59 529.071C1210.18 518.929 1205.39 520.619 1199.48 533.579C1191.87 549.918 1129.33 615.559 1123.41 613.305C1120.31 611.897 1119.19 607.108 1119.19 592.458C1119.19 559.215 1136.37 521.465 1165.11 492.166C1187.08 469.346 1188.21 465.121 1168.49 476.953C1155.25 484.841 1134.68 503.716 1123.69 518.084C1096.93 553.299 1084.53 597.811 1091.01 637.252C1093.83 656.409 1095.8 664.579 1106.79 704.301C1125.95 773.886 1128.2 785.718 1128.2 826.286C1128.48 856.43 1127.35 866.572 1123.41 877.841C1109.32 915.31 1064.53 957.004 1031.01 964.047C1014.1 967.71 1000.86 965.456 1000.86 958.976C1000.86 953.342 982.832 920.381 971.282 904.323C956.351 884.039 914.938 845.725 876.905 816.989C799.151 758.673 760.555 721.768 736.89 683.172C723.65 661.761 705.056 616.123 705.056 605.981C705.056 603.445 707.591 598.374 710.409 594.712L715.48 587.951L733.792 596.966C743.652 601.755 755.202 605.699 758.865 605.699C767.316 605.699 779.994 611.897 803.658 627.673C813.237 634.153 821.688 639.505 822.252 639.505C822.815 639.505 823.379 637.533 823.379 635.28C823.379 633.026 822.252 631.054 820.843 631.054C819.153 631.054 815.209 625.983 811.828 620.067C804.785 607.389 794.643 599.219 783.093 596.121C778.585 594.994 775.486 592.74 776.331 590.768C778.022 585.697 793.798 588.232 807.321 596.121C813.8 599.783 821.688 602.882 824.505 602.882C836.056 602.882 812.11 584.007 787.037 573.019C761.964 562.032 749.85 553.017 756.047 549.355C757.738 548.228 762.527 549.073 766.753 551.045C770.697 553.299 775.768 554.989 778.022 554.989C782.529 554.989 807.039 562.878 819.153 567.948C838.31 576.118 856.622 578.372 874.37 574.428C889.865 571.047 902.542 562.878 898.88 558.933C897.189 557.525 895.781 558.088 877.469 567.103C860.566 575.555 858.875 574.991 819.998 544.847C810.138 536.959 800.841 532.452 792.389 531.043C779.43 528.789 763.372 519.211 765.908 514.985C766.753 513.858 783.656 512.731 803.376 512.731C832.112 512.731 840.282 513.576 843.099 516.957C847.043 521.746 856.058 522.591 858.594 518.366C859.439 516.675 858.03 514.703 855.213 513.576C852.396 512.45 849.579 510.759 848.733 509.632C845.916 505.97 816.054 490.757 807.039 488.785C794.925 486.25 794.925 478.925 807.321 478.925C815.49 479.207 830.703 483.714 852.396 492.447C856.903 494.419 865.355 495.828 871.553 495.828C880.85 495.828 882.822 494.983 881.976 491.039C881.413 487.94 876.06 485.123 866.482 482.587C858.312 480.615 847.043 475.544 841.409 471.882C835.493 467.938 827.604 463.994 823.66 463.148C810.419 460.613 791.826 450.753 793.235 447.09C794.643 443.146 812.11 443.991 816.054 447.936C817.744 449.626 821.407 450.753 824.505 450.753C829.013 450.753 829.295 449.908 826.759 447.372C822.252 442.865 822.533 433.85 827.041 433.85C839.155 433.85 860.847 443.428 869.017 452.161C877.469 461.458 885.357 465.121 885.357 459.486C885.357 453.007 845.071 411.312 839.155 411.312C836.901 411.312 825.914 402.86 815.209 392.437C799.714 378.069 796.052 372.998 798.305 370.181C803.376 363.983 834.647 373.28 851.551 385.675C862.256 393.845 893.527 401.452 897.753 397.226C901.697 393.282 897.471 385.957 891.273 385.957C879.441 385.957 865.637 376.66 860.002 364.828C853.804 351.869 841.409 339.755 825.914 331.022C807.039 320.316 796.052 309.611 799.432 304.54C800.841 302.004 812.392 307.075 817.744 312.71C818.589 313.555 824.505 317.781 831.267 322.288C837.746 326.796 843.099 331.585 843.099 332.712C843.099 334.12 844.508 335.247 846.198 335.247C847.888 335.247 856.622 340.882 865.637 347.925C880.286 359.194 890.992 363.701 890.992 358.912C890.992 358.067 887.329 352.432 882.54 346.516C878.032 340.6 874.088 334.966 874.088 333.839C874.088 332.994 869.017 326.232 862.819 318.908C851.832 306.23 846.198 297.779 840.845 285.946C839.155 282.847 832.394 274.959 825.351 268.48C800.559 245.379 802.25 239.462 830.14 252.14C838.592 256.084 850.424 259.183 856.622 259.183C862.819 259.183 872.398 261.155 877.751 263.409C883.385 265.662 892.4 267.634 898.035 267.634C904.796 267.634 907.895 266.508 907.895 263.409C907.895 261.155 905.641 259.183 903.105 259.183C890.146 259.183 845.635 237.49 837.183 227.067C830.703 219.179 834.929 214.953 844.789 219.46C849.86 221.714 858.594 222.277 871.553 220.869C890.428 219.179 916.346 223.686 916.346 228.757C916.346 229.884 918.6 231.011 921.417 231.011C929.869 231.011 905.923 212.136 891.555 207.628C884.23 205.093 870.144 202.275 860.002 201.148C843.944 199.458 840.282 197.768 829.858 187.908C823.097 181.428 813.8 173.822 809.293 170.723C804.785 167.342 800.841 163.116 800.841 161.144C800.841 157.2 815.209 156.355 819.435 160.017C824.505 164.806 859.157 174.667 869.862 174.667C878.314 174.667 882.822 176.92 892.682 185.936C904.514 196.641 913.529 200.303 913.529 194.387C913.529 192.697 912.402 191.57 910.712 191.57C909.303 191.57 907.895 190.161 907.895 188.471C907.895 187.062 902.542 180.019 896.344 173.258C887.611 163.961 879.723 159.172 865.918 154.383C853.241 149.875 843.944 144.241 836.056 136.634C824.787 125.084 808.166 115.505 799.996 115.505C792.671 115.505 792.108 110.998 798.869 105.082C804.785 99.7291 820.843 92.4043 834.084 88.742C838.31 87.6151 840.282 85.0796 839.718 82.2624C838.592 75.7828 819.435 72.9656 788.164 74.9377L762.809 76.628L749.568 66.4861C742.243 60.8516 734.918 56.3441 733.51 56.3441C727.875 56.3441 730.411 48.4559 736.327 47.0473C741.398 45.6387 742.243 43.9484 740.553 36.6237C738.017 23.3828 723.086 5.63444 714.635 5.63444C709.282 5.63444 707.31 7.32476 706.183 14.0861C705.056 18.5936 703.366 22.5377 701.957 22.5377C696.604 22.5377 699.703 33.8065 706.465 38.314C716.607 44.7936 712.381 48.4559 697.168 46.2022C679.701 43.6667 676.602 41.9764 660.826 25.0732C653.501 17.185 644.204 8.45164 639.979 5.35272L632.372 3.02792e-05L626.456 10.142ZM714.071 70.9936C710.69 74.3742 704.211 71.2753 706.465 67.6129C707.31 66.2043 710.127 65.9226 712.381 66.7678C715.198 67.8947 715.761 69.3033 714.071 70.9936ZM721.959 94.3764C721.959 96.6301 720.832 98.6022 719.424 98.6022C715.761 98.6022 713.226 94.0947 715.48 91.8409C718.579 88.742 721.959 90.1506 721.959 94.3764ZM621.385 100.574C623.921 103.11 617.723 110.153 614.624 108.181C610.68 105.927 611.525 98.6022 615.751 98.6022C618.004 98.6022 620.54 99.4474 621.385 100.574ZM544.475 127.901C544.475 132.69 511.514 149.312 500.245 150.157C486.441 151.002 491.23 143.396 510.669 133.536C530.108 123.675 544.475 121.14 544.475 127.901ZM596.594 131C612.088 146.776 601.946 161.426 581.662 152.693C566.45 146.495 562.505 138.043 570.675 129.873C578.564 121.985 587.579 122.267 596.594 131ZM729.284 145.086C730.411 147.34 734.637 149.312 738.862 149.312C743.37 149.312 747.596 150.439 748.723 152.129C750.695 155.228 738.581 163.398 725.622 167.905C714.071 171.85 709.282 167.624 712.099 154.946C714.635 143.114 726.185 136.634 729.284 145.086ZM438.548 179.174C445.028 185.372 444.183 190.443 435.731 196.923C424.462 205.938 417.701 204.811 417.701 193.824C417.701 184.527 424.462 174.667 430.66 174.667C432.632 174.667 436.295 176.639 438.548 179.174ZM612.088 201.712C612.088 202.557 608.144 208.473 603.355 214.389C597.157 222.277 592.65 225.376 587.015 225.376C574.338 225.376 574.338 221.996 587.297 210.727C597.721 201.712 612.088 196.359 612.088 201.712ZM654.346 214.671C654.346 221.151 641.951 233.828 635.753 233.828C628.71 233.828 628.71 227.63 636.035 218.333C644.486 207.065 654.346 205.093 654.346 214.671ZM670.968 234.955C675.757 240.589 666.742 249.323 652.656 253.267C632.654 258.619 632.09 248.196 651.529 237.772C666.179 229.884 666.742 229.884 670.968 234.955ZM762.245 278.058C764.781 280.594 756.047 290.172 750.976 290.172C747.314 290.172 745.905 281.439 749.286 278.058C751.54 275.523 759.992 275.523 762.245 278.058ZM761.4 305.385C761.4 309.893 753.794 313.555 749.85 311.019C744.497 307.92 747.314 301.441 754.357 301.441C758.583 301.441 761.4 303.131 761.4 305.385ZM639.697 313.555C646.176 321.161 630.118 361.166 608.144 391.591C585.607 422.862 569.83 435.822 569.83 422.862C569.83 417.51 574.338 408.495 610.398 342.29C615.751 332.43 632.654 309.893 634.626 309.893C635.753 309.893 638.007 311.583 639.697 313.555ZM756.893 328.204C757.738 330.74 756.611 333.275 754.075 334.402C748.723 336.374 746.187 333.839 748.159 328.204C750.413 322.852 754.639 322.852 756.893 328.204ZM758.865 347.925C758.865 349.333 755.484 351.024 751.54 351.587C746.469 352.151 744.497 351.305 744.497 347.925C744.497 344.544 746.469 343.699 751.54 344.262C755.484 344.826 758.865 346.234 758.865 347.925ZM758.019 369.899C759.146 375.815 750.976 379.477 746.751 375.252C744.497 372.998 744.497 370.744 747.314 367.645C751.822 362.293 756.893 363.419 758.019 369.899ZM753.23 390.183C753.23 391.591 749.85 393.282 745.905 393.845C740.835 394.409 738.862 393.564 738.862 390.183C738.862 386.802 740.835 385.957 745.905 386.521C749.85 387.084 753.23 388.493 753.23 390.183ZM746.751 414.974C747.596 418.637 745.624 419.764 739.144 419.764C729.566 419.764 726.748 412.721 735.482 410.467C742.525 408.495 745.905 409.903 746.751 414.974ZM738.299 440.047C737.454 442.019 735.2 443.71 733.228 443.71C731.256 443.71 729.002 442.019 728.439 440.047C727.594 438.075 729.566 436.667 733.228 436.667C736.89 436.667 738.862 438.075 738.299 440.047ZM730.411 457.796C730.411 460.05 728.439 462.022 726.185 462.022C721.678 462.022 720.551 458.641 723.931 455.542C727.03 452.161 730.411 453.288 730.411 457.796ZM233.174 487.376C235.71 491.602 229.23 498.645 222.751 498.645C216.271 498.645 212.609 490.475 217.961 487.095C223.314 483.714 230.92 483.996 233.174 487.376ZM566.168 491.884C578.282 496.673 584.198 505.125 578.564 510.759C576.591 512.731 569.83 512.731 556.026 509.914C537.714 506.533 530.389 506.815 500.245 511.604C490.667 513.013 488.131 512.731 488.131 509.351C488.131 493.293 539.404 481.742 566.168 491.884ZM199.368 532.452C206.129 543.439 188.099 584.852 181.056 574.71C176.83 568.794 180.211 550.2 186.972 538.931C192.888 529.353 196.269 527.662 199.368 532.452ZM293.744 570.766C293.744 573.019 291.209 574.71 288.11 574.71C281.912 574.71 272.615 562.314 275.432 557.807C277.686 553.862 293.744 565.131 293.744 570.766ZM624.766 559.497C627.301 562.032 628.991 567.385 628.428 571.611C627.865 577.245 625.893 579.217 619.695 579.781C605.327 581.471 598.847 570.484 608.426 560.06C614.06 553.862 618.85 553.581 624.766 559.497ZM383.05 579.217C385.022 584.57 376.288 612.179 368.118 625.419C359.103 639.787 347.834 649.647 344.172 645.985C342.2 644.013 343.609 637.815 349.525 625.138C354.032 615.278 360.23 601.473 363.047 594.43C370.372 576.964 379.387 569.921 383.05 579.217ZM699.422 644.013C702.521 651.338 705.056 658.944 705.056 661.198C705.056 663.452 706.746 668.804 709 672.748C710.972 676.974 715.761 685.989 719.142 693.032C722.804 700.075 734.355 717.542 744.779 731.628C769.007 764.308 770.697 771.351 750.413 755.856C711.254 725.712 679.701 676.411 679.701 644.295C679.701 632.181 680.265 631.054 686.744 631.054C692.097 631.054 694.632 633.589 699.422 644.013ZM192.606 657.254C189.508 660.635 185.845 662.325 185 661.198C182.183 658.381 192.606 647.675 195.705 649.647C197.396 650.774 195.987 654.155 192.606 657.254ZM317.127 713.035C323.888 716.133 327.269 723.458 323.043 727.402C317.972 732.473 285.293 713.035 285.293 704.865C285.293 701.766 302.759 706.273 317.127 713.035ZM208.946 778.112C211.2 791.635 212.327 803.749 211.2 804.875C210.073 806.002 206.693 804.312 203.594 801.213C199.368 797.269 197.396 790.226 196.269 773.604C194.297 753.039 194.579 751.63 199.65 752.757C203.875 753.602 205.847 758.11 208.946 778.112ZM1165.39 786.845C1171.59 803.467 1171.59 863.755 1165.39 883.475C1157.5 907.422 1146.23 927.706 1134.12 940.101C1123.13 951.088 1112.14 955.314 1107.07 950.525C1104.25 947.708 1111.86 929.959 1119.47 921.789C1147.36 891.645 1152.99 873.897 1152.99 816.708C1152.99 783.183 1153.84 774.731 1156.94 774.731C1158.91 774.731 1162.85 780.084 1165.39 786.845ZM509.542 825.159C514.331 827.976 523.91 837.273 530.671 845.161C550.11 868.544 561.379 879.531 582.508 896.435C593.495 905.168 606.454 916.718 611.807 922.353C619.976 930.804 620.822 932.495 616.878 934.185C611.807 936.157 609.553 935.312 597.439 927.424C537.714 889.392 493.766 847.697 493.766 828.822C493.766 818.398 497.146 817.553 509.542 825.159ZM764.217 863.473C768.161 868.262 766.471 878.686 759.146 892.209C754.357 901.787 746.187 904.604 743.652 897.561C741.398 892.209 747.314 869.953 752.385 864.037C757.456 858.121 759.71 858.121 764.217 863.473ZM289.518 949.398C288.11 951.652 286.419 951.652 284.729 949.961C283.039 948.271 282.757 945.454 283.884 943.764C285.293 941.51 286.983 941.51 288.673 943.2C290.363 944.89 290.645 947.708 289.518 949.398ZM974.944 1028.84C975.508 1041.8 974.944 1045.18 971.564 1045.18C966.211 1045.18 958.604 1029.97 958.604 1019.26C958.604 1011.94 959.45 1011.09 966.493 1011.94C973.817 1012.79 974.099 1013.63 974.944 1028.84ZM774.078 1107.44C771.26 1124.06 762.245 1145.19 758.301 1145.19C753.794 1145.19 751.54 1130.26 754.075 1116.74C758.301 1094.77 777.74 1085.47 774.078 1107.44ZM792.389 1241.26C802.25 1263.8 798.024 1279.86 786.473 1264.08C778.303 1252.53 776.613 1228.3 784.219 1228.3C785.91 1228.3 789.572 1234.22 792.389 1241.26ZM864.228 1355.08C862.819 1357.33 861.129 1357.33 859.439 1355.64C857.749 1353.95 857.467 1351.13 858.594 1349.44C860.002 1347.19 861.693 1347.19 863.383 1348.88C865.073 1350.57 865.355 1353.39 864.228 1355.08ZM820.561 1376.77C820.561 1384.09 763.09 1443.82 758.583 1441C756.893 1440.16 755.766 1436.49 755.766 1433.39C755.766 1425.22 805.63 1375.36 814.364 1375.08C817.744 1374.8 820.561 1375.64 820.561 1376.77ZM722.804 1469.74C723.931 1470.58 723.368 1473.12 721.678 1475.37C719.142 1478.19 717.452 1478.19 714.635 1475.93C712.381 1474.24 711.536 1471.71 712.381 1470.3C714.071 1467.2 720.269 1466.92 722.804 1469.74ZM681.955 1540.17C682.518 1544.39 680.546 1547.77 675.475 1551.15C668.996 1555.38 667.587 1555.38 663.925 1551.72C660.262 1548.05 660.544 1546.65 665.897 1539.88C672.658 1531.15 680.828 1531.15 681.955 1540.17Z" fill="#D1EDFF"/>
<path d="M598.566 980.951C593.776 985.74 594.34 1016.17 599.692 1032.51C611.243 1067.44 630.118 1109.42 650.12 1145.19C655.473 1154.49 660.826 1164.63 662.516 1167.73C663.925 1170.83 672.095 1184.07 680.828 1197.31C689.561 1210.55 696.604 1222.95 696.604 1224.64C696.604 1231.4 682.237 1237.6 662.798 1239.01C651.811 1239.57 643.077 1240.98 643.077 1241.54C643.077 1242.39 645.895 1245.2 649.557 1248.02C655.473 1252.81 655.473 1253.37 650.684 1255.35C644.204 1257.88 594.621 1248.87 580.535 1242.67C559.688 1233.65 571.239 1227.17 593.776 1235.34C606.454 1239.85 633.499 1240.98 636.034 1237.03C636.88 1235.34 631.527 1233.65 624.202 1232.53C616.596 1231.68 604.482 1229.15 596.594 1226.89C588.987 1224.92 574.901 1220.98 565.604 1218.44C556.307 1215.91 544.194 1212.24 538.841 1210.55C533.488 1209.14 521.374 1207.74 512.359 1208.02C503.062 1208.3 482.778 1206.61 467.284 1204.35C430.942 1199 395.163 1199 381.923 1204.35C372.626 1208.3 372.062 1209.14 373.753 1217.88C376.006 1230.56 398.544 1251.12 418.828 1258.73C438.267 1266.05 470.101 1267.18 488.131 1260.7C497.991 1257.32 501.09 1257.04 507.288 1260.42C511.514 1262.39 536.587 1266.33 562.787 1268.87C623.639 1274.79 657.727 1282.11 687.308 1294.79C692.097 1297.04 697.168 1298.73 698.858 1298.73C700.267 1298.73 703.084 1300.42 704.774 1302.68C709 1307.75 727.594 1311.13 738.299 1308.59C743.933 1307.46 747.877 1303.8 750.976 1297.04C758.019 1282.67 756.892 1268.87 747.877 1253.94C725.058 1215.91 716.325 1169.42 722.804 1118.99L725.058 1101.25L712.944 1089.98C706.183 1083.78 698.576 1076.74 695.759 1074.2C693.224 1071.66 689.561 1064.34 687.871 1058.14C681.11 1033.07 649.839 997.29 622.794 983.768C608.426 976.725 603.355 976.161 598.566 980.951ZM427.561 1222.95C427.561 1227.17 425.589 1229.99 422.49 1230.56C416.292 1231.68 413.193 1223.79 417.701 1218.44C422.772 1212.52 427.561 1214.78 427.561 1222.95ZM720.551 1242.39C722.804 1246.05 714.916 1249.15 709 1246.89C703.366 1244.64 706.465 1239.57 713.508 1239.57C716.325 1239.57 719.705 1240.98 720.551 1242.39Z" fill="#D1EDFF"/>
<path d="M13.1507 1766.95C2.44536 1783.85 2.72708 1787.23 15.4045 1788.36C22.7292 1788.93 27.8002 1791.46 31.7443 1796.53C37.097 1803.57 37.3787 1807.52 37.3787 1901.61C37.3787 1992.61 37.097 1999.65 32.3077 2003.88C29.4905 2006.69 22.7292 2008.67 17.3765 2008.67C5.26256 2008.67 1.6002 2011.2 0.473313 2019.94C-1.49873 2033.74 -0.371847 2034.02 67.2411 2034.02H130.628L129.783 2021.91L128.938 2010.08L115.134 2008.39C104.428 2007.26 99.9206 2005 94.8497 1998.53C88.6518 1990.92 88.0884 1987.82 88.0884 1954.86C88.0884 1921.62 88.3701 1919.08 94.568 1913.45C104.146 1904.43 109.781 1905.84 123.303 1919.64C132.319 1929.22 136.826 1931.76 141.334 1930.63C149.503 1928.66 150.349 1922.74 149.503 1883.3L148.658 1849.49L139.643 1848.65C132.882 1848.09 130.346 1848.93 128.938 1853.44C123.022 1872.31 105.837 1879.08 94.2862 1866.96C88.9335 1861.05 88.0884 1857.38 88.0884 1833.72C88.0884 1812.03 89.2153 1805.83 93.7228 1798.79L99.3572 1790.33L649.276 1788.93L1199.48 1787.52L1200.32 1771.18L1201.17 1755.12H610.962H20.4755L13.1507 1766.95Z" fill="#D1EDFF"/>
<path d="M1238.07 1759.91C1230.75 1763.57 1229.06 1765.82 1229.62 1771.74C1231.59 1787.52 1283.15 1793.71 1309.91 1781.32C1323.71 1774.84 1324 1767.51 1310.76 1760.47C1297.51 1753.43 1251.88 1752.86 1238.07 1759.91Z" fill="#D1EDFF"/>
<path d="M879.723 1822.73C854.931 1824.98 843.662 1830.34 832.394 1844.71C823.379 1856.26 818.871 1875.13 823.942 1881.05C827.886 1885.84 863.946 1886.12 867.89 1881.05C869.581 1879.36 871.834 1873.72 872.961 1869.22C876.06 1855.97 882.258 1848.65 892.963 1844.99C901.133 1842.45 904.514 1842.73 913.529 1846.68C919.727 1849.49 925.08 1854.28 925.925 1857.66C929.024 1869.22 927.615 1904.15 924.234 1906.4C922.262 1907.53 910.43 1909.5 898.034 1910.63C847.325 1914.85 843.099 1915.7 831.83 1926.69C818.871 1939.08 813.518 1955.7 816.054 1977.68C818.871 2005 827.323 2019.09 847.888 2029.51C855.776 2033.46 867.045 2034.02 928.179 2033.46C998.327 2032.61 999.454 2032.61 1000.3 2026.7C1001.14 2020.78 999.172 2017.96 987.058 2008.1C981.424 2003.31 981.142 2000.78 981.142 1938.24C981.142 1899.36 979.733 1867.81 978.043 1859.92C974.381 1844.99 965.084 1833.44 951.843 1827.52C940.856 1822.45 907.331 1820.2 879.723 1822.73ZM923.108 1934.29C926.77 1937.67 927.615 1945.56 927.615 1972.04C927.615 1990.35 926.77 2007.26 925.925 2009.79C923.671 2015.71 893.809 2015.99 882.822 2010.08C872.961 2005.29 871.271 1999.37 871.271 1970.63C871.271 1938.24 878.032 1930.35 905.641 1930.07C914.093 1929.79 920.29 1931.48 923.108 1934.29Z" fill="#D1EDFF"/>
<path d="M251.486 1825.27C225.004 1830.34 211.763 1838.79 203.593 1856.82C198.522 1868.09 197.959 1875.41 197.959 1930.63C197.959 1986.13 198.522 1993.17 203.593 2003.88C214.017 2025.85 219.933 2030.36 245.006 2035.71C287.828 2044.73 333.467 2037.68 350.933 2019.65C357.131 2012.89 364.174 1993.74 364.174 1982.75V1974.58L338.256 1975.42L312.056 1976.27L310.647 1992.05C309.802 2000.78 307.548 2009.79 305.576 2012.05C300.505 2018.25 284.447 2020.78 271.488 2017.12C254.021 2012.61 248.669 2001.34 248.669 1970.07C248.669 1934.29 246.978 1935.42 306.985 1935.42C333.467 1935.42 357.131 1934.57 359.667 1933.73C363.329 1932.32 364.174 1926.69 364.174 1900.49C364.174 1852.88 356.568 1837.94 328.114 1829.77C309.802 1824.42 269.516 1822.17 251.486 1825.27ZM304.168 1855.13C309.802 1861.33 310.647 1865.55 310.647 1883.58C310.647 1914.57 309.52 1915.7 281.348 1915.7C250.359 1915.7 247.542 1912.88 249.232 1883.58C250.641 1854 260.219 1844.14 285.292 1846.4C294.589 1847.24 299.378 1849.49 304.168 1855.13Z" fill="#D1EDFF"/>
<path d="M523.346 1827.24C517.148 1829.77 507.006 1834 500.527 1837.1C485.877 1843.86 483.905 1843.86 477.426 1836.82C472.636 1831.46 469.256 1831.18 439.957 1831.75C408.968 1832.59 407.841 1832.87 406.996 1839.07C406.432 1843.58 408.968 1848.09 416.011 1854.28L426.153 1863.3V1934.29V2005.57L417.701 2010.64C408.686 2015.99 403.897 2026.98 408.404 2031.49C409.813 2032.89 429.533 2033.74 454.606 2033.46C494.611 2032.61 497.991 2032.33 498.836 2027.26C499.682 2023.88 495.738 2018.25 488.413 2011.48L476.862 2000.78V1940.21V1879.64L489.821 1868.09C503.907 1855.69 517.148 1852.88 520.247 1861.05C521.092 1863.58 521.938 1879.64 521.938 1897.11C521.938 1917.95 523.064 1929.79 525.318 1932.04C528.699 1935.42 563.069 1936.83 570.957 1933.73C574.901 1932.32 575.464 1925.56 575.464 1889.78C575.464 1842.17 573.211 1834.85 557.434 1827.24C545.602 1821.6 537.996 1821.6 523.346 1827.24Z" fill="#D1EDFF"/>
<path d="M727.594 1828.37C719.142 1831.18 708.437 1835.41 703.648 1837.94C692.661 1843.86 690.125 1843.58 683.927 1836.82C679.138 1831.46 675.758 1831.18 646.177 1831.75C614.906 1832.59 613.497 1832.87 612.652 1838.79C611.807 1844.99 617.441 1852.31 627.865 1858.23C632.936 1861.33 633.218 1865.55 633.218 1932.32V2003.31L622.231 2012.33C614.906 2018.53 611.807 2023.32 612.37 2026.98C613.497 2032.33 616.315 2032.61 659.418 2033.46L705.056 2034.02V2026.42C705.056 2021.34 701.676 2015.99 695.196 2009.79L685.336 2000.78V1939.65V1878.51L697.168 1867.52C705.902 1859.36 711.536 1856.54 718.297 1856.54C729.566 1856.54 730.13 1858.23 731.256 1901.61L731.82 1934.01H755.766H779.712L780.558 1888.09C780.839 1861.61 779.994 1840.2 778.585 1837.1C774.923 1830.62 758.583 1822.73 749.568 1823.01C746.188 1823.01 736.046 1825.55 727.594 1828.37Z" fill="#D1EDFF"/>
<path d="M1144.54 1828.08C1136.09 1831.18 1125.38 1835.41 1120.59 1837.94C1109.61 1843.86 1107.07 1843.58 1100.87 1836.82C1096.08 1831.46 1092.7 1831.18 1063.12 1831.75C1031.85 1832.59 1030.44 1832.87 1029.6 1838.79C1029.03 1842.45 1031.29 1847.24 1035.23 1850.9C1052.98 1866.96 1051.57 1859.92 1051.57 1933.45V2000.78L1040.02 2011.48C1032.7 2018.25 1028.75 2023.88 1029.6 2027.26C1030.44 2032.33 1034.11 2032.61 1074.67 2033.46C1118.06 2034.02 1118.9 2034.02 1120.88 2027.82C1122.28 2022.75 1120.59 2019.65 1112.42 2012.61L1102.28 2003.88V1940.21V1876.54L1114.68 1866.68C1129.89 1854 1140.6 1853.16 1144.82 1864.14C1146.23 1868.37 1147.36 1884.71 1147.08 1900.49C1146.79 1916.26 1147.64 1930.63 1148.48 1932.32C1151.3 1936.55 1190.46 1936.26 1194.69 1932.04C1198.35 1928.38 1199.48 1859.07 1196.38 1843.02C1193 1825.83 1170.46 1819.35 1144.54 1828.08Z" fill="#D1EDFF"/>
<path d="M1233.85 1833.16C1229.06 1837.66 1232.72 1847.24 1242.3 1855.41L1252.72 1864.14L1252.44 1930.91C1252.16 1967.54 1251.31 1999.93 1250.47 2002.47C1249.62 2005.29 1245.11 2009.79 1240.33 2012.33C1233.85 2016.27 1231.87 2019.37 1231.87 2025.85V2034.02H1276.95H1322.02V2025.57C1322.02 2019.65 1319.77 2015.43 1313.57 2010.92L1305.12 2004.72V1932.04V1859.64L1313.57 1855.13C1320.62 1851.47 1322.02 1848.93 1322.02 1841.04V1831.18H1278.92C1254.97 1831.18 1234.69 1832.03 1233.85 1833.16Z" fill="#D1EDFF"/>
</svg>
