<svg width="220" height="245" viewBox="0 0 220 245" fill="none" xmlns="http://www.w3.org/2000/svg">
<circle cx="69.3189" cy="69.3189" r="11.9056" stroke="#B50003" stroke-width="4"/>
<circle cx="69.319" cy="68.891" r="31.5873" stroke="#B50003" stroke-width="4"/>
<path d="M63.9618 3H73.3305C75.6248 3 77.6287 4.56157 78.4205 6.71492C80.4379 12.2006 85.1109 21.826 93.0654 21.826C98.5349 21.826 102.608 20.4814 105.336 19.1144C107.839 17.86 111.164 17.8896 113.144 19.8693L119.079 25.8048C121.182 27.9072 121.033 31.4836 119.539 34.0545C117.799 37.0503 116.252 41.57 117.24 47.4978C118.477 54.9197 125.806 57.5734 130.89 58.5221C133.604 59.0288 135.852 61.2887 135.852 64.0502V74.6156C135.852 76.9093 134.292 78.9116 132.13 79.6768C127.211 81.4176 118.965 85.1342 117.24 90.926C115.837 95.6357 118.654 102.024 120.826 105.959C122 108.085 121.763 110.791 120.045 112.509L113.128 119.425C111.155 121.399 107.89 121.386 105.455 120.021C102.52 118.375 98.1861 116.857 93.0654 117.881C86.3388 119.227 82.2234 127.779 80.3541 132.81C79.559 134.95 77.5632 136.494 75.2801 136.494H63.5894C61.2981 136.494 59.2972 134.937 58.5444 132.772C56.8961 128.034 53.4807 120.183 48.3536 117.881C43.4825 115.695 36.9617 118.474 32.9538 120.717C30.792 121.927 28.0169 121.719 26.2652 119.967L18.7698 112.472C17.0686 110.771 16.8176 108.097 17.9566 105.978C20.0743 102.038 22.8243 95.6243 21.3981 90.926C19.6583 85.1941 11.5335 81.4579 6.68171 79.697C4.54005 78.9198 3 76.9269 3 74.6485V63.5437C3 60.9882 4.9273 58.8362 7.42114 58.2782C12.1165 57.2277 19.1639 54.9202 21.3981 50.279C23.8165 45.2552 20.4851 37.7265 18.0312 33.3164C16.8501 31.1936 17.0893 28.4882 18.807 26.7704L26.3671 19.2103C28.0739 17.5035 30.7585 17.2551 32.8738 18.4179C37.4102 20.9115 45.286 24.3696 50.4929 21.826C55.2633 19.4957 57.6321 12.2068 58.7035 7.41223C59.2599 4.92229 61.4104 3 63.9618 3Z" stroke="#B50003" stroke-width="6"/>
<circle cx="117.645" cy="176.877" r="8.6966" transform="rotate(23.8769 117.645 176.877)" stroke="#B50003" stroke-width="4"/>
<circle cx="117.754" cy="177.159" r="23.8858" transform="rotate(23.8769 117.754 177.159)" stroke="#B50003" stroke-width="4"/>
<path d="M135.548 129.12L140.377 131.258C142.475 132.186 143.669 134.425 143.578 136.717C143.395 141.328 143.983 148.691 149.227 151.012C152.473 152.449 155.318 152.904 157.537 152.945C160.335 152.996 163.382 154.375 164.391 156.985L165.834 160.716C166.907 163.49 165.291 166.714 163.044 168.663C161.162 170.295 159.223 172.81 158.249 176.602C156.942 181.688 160.388 185.576 163.49 187.935C165.688 189.606 166.846 192.573 165.728 195.099L163.27 200.651C162.342 202.749 160.104 203.943 157.814 203.816C153.736 203.592 147.53 203.864 144.727 207.149C142.493 209.767 142.288 214.452 142.498 217.87C142.647 220.296 141.343 222.679 139.075 223.554L134.049 225.494C131.445 226.499 128.472 225.142 126.642 223.036C125.054 221.21 122.68 219.327 119.319 218.578C114.521 217.507 109.371 221.536 106.357 224.483C104.725 226.079 102.277 226.691 100.189 225.767L93.5972 222.849C91.5022 221.921 90.3081 219.688 90.4492 217.401C90.6901 213.494 90.5269 207.625 87.8485 204.647C85.3468 201.865 80.6012 201.552 77.1154 201.767C74.644 201.919 72.1877 200.617 71.2946 198.308L69.0561 192.519C68.188 190.274 69.0497 187.73 70.9111 186.204C73.5498 184.04 76.8506 180.704 77.2688 177.288C77.789 173.04 73.8964 168.287 71.0425 165.428C69.4327 163.815 68.8268 161.373 69.7491 159.289L72.4252 153.244C73.4597 150.907 76.0963 149.729 78.6158 150.157C82.2221 150.77 87.1768 151.036 89.9248 148.697C92.9304 146.139 93.1698 140.572 92.9131 136.687C92.7528 134.262 94.0594 131.879 96.3268 131.004L102.202 128.737C104.453 127.868 107.005 128.736 108.514 130.618C111.025 133.749 115.148 137.902 119.262 137.748C122.989 137.609 126.593 133.942 128.902 130.992C130.475 128.983 133.215 128.088 135.548 129.12Z" stroke="#B50003" stroke-width="5"/>
<circle cx="170.62" cy="103.544" r="6.20155" transform="rotate(22.655 170.62 103.544)" stroke="#B50003" stroke-width="3"/>
<circle cx="170.735" cy="103.824" r="17.1121" transform="rotate(22.655 170.735 103.824)" stroke="#B50003" stroke-width="3"/>
<path d="M184.014 69.2613L185.402 69.8407C187.52 70.7246 188.745 72.9443 188.799 75.2385C188.877 78.5517 189.661 82.9952 193.101 84.4313C194.836 85.1551 196.406 85.5018 197.754 85.6336C200.531 85.9053 203.637 87.2253 204.697 89.8071C205.821 92.5454 204.221 95.8115 202.329 98.0874C201.367 99.2442 200.496 100.789 200.017 102.832C199.284 105.957 200.983 108.411 202.901 110.099C204.975 111.923 206.243 114.837 205.179 117.386L204.426 119.19C203.542 121.307 201.327 122.533 199.034 122.544C196.154 122.558 192.439 123.037 190.688 125.182C189.343 126.829 189.088 129.541 189.168 131.837C189.252 134.263 188.023 136.675 185.778 137.599L184.534 138.111C181.951 139.174 178.952 137.813 176.826 136.001C175.726 135.064 174.291 134.233 172.468 133.867C169.364 133.245 166.12 135.551 163.937 137.604C162.273 139.169 159.846 139.847 157.738 138.967L154.907 137.786C152.792 136.903 151.564 134.69 151.577 132.398C151.593 129.65 151.224 126.134 149.478 124.272C147.905 122.594 145.187 122.231 142.86 122.289C140.381 122.351 137.888 121.129 136.946 118.836L136.124 116.834C135.212 114.61 136.036 112.064 137.786 110.416C139.458 108.843 141.194 106.732 141.408 104.614C141.685 101.884 139.457 98.9223 137.479 96.8723C135.898 95.2328 135.227 92.8116 136.104 90.7095L137.065 88.4066C138.049 86.0484 140.663 84.8411 143.207 85.082C145.633 85.3116 148.478 85.173 150.14 83.6944C152 82.0396 152.309 78.7671 152.197 76.0929C152.095 73.6675 153.329 71.257 155.574 70.3331L157.66 69.4744C159.894 68.555 162.455 69.3833 164.083 71.1678C165.956 73.2202 168.611 75.4494 171.212 75.2948C173.517 75.1578 175.718 73.1524 177.326 71.2148C178.954 69.2508 181.659 68.2785 184.014 69.2613Z" stroke="#B50003" stroke-width="5"/>
</svg>
