<svg xmlns="http://www.w3.org/2000/svg" width="911" height="911" viewBox="0 0 911 911">
  <g id="linkedin" transform="translate(581 -1983)">
    <rect id="Rectangle_2" data-name="Rectangle 2" width="911" height="911" rx="358" transform="translate(-581 1983)" fill="#d1edff"/>
    <circle id="Ellipse_3" data-name="Ellipse 3" cx="73.5" cy="73.5" r="73.5" transform="translate(-412.088 2120)" fill="#000528"/>
    <g id="Path_9" data-name="Path 9" transform="translate(-728.984 -1237)" fill="#000528" stroke-linecap="round" stroke-linejoin="round">
      <path d="M 447.2838439941406 3940.186767578125 L 439.7838439941406 3940.186767578125 L 341.0069274902344 3940.186767578125 L 333.5069274902344 3940.186767578125 L 333.5069274902344 3932.686767578125 L 333.5069274902344 3582.239013671875 L 333.5069274902344 3574.739013671875 L 341.0069274902344 3574.739013671875 L 439.7838439941406 3574.739013671875 L 447.2838439941406 3574.739013671875 L 447.2838439941406 3582.239013671875 L 447.2838439941406 3932.686767578125 L 447.2838439941406 3940.186767578125 Z" stroke="none"/>
      <path d="M 439.7838439941406 3932.686767578125 L 439.7838439941406 3582.239013671875 L 341.0069274902344 3582.239013671875 L 341.0069274902344 3932.686767578125 L 439.7838439941406 3932.686767578125 M 439.7838439941406 3947.686767578125 L 341.0069274902344 3947.686767578125 C 332.7226257324219 3947.686767578125 326.0069274902344 3940.970947265625 326.0069274902344 3932.686767578125 L 326.0069274902344 3582.239013671875 C 326.0069274902344 3573.954833984375 332.7226257324219 3567.239013671875 341.0069274902344 3567.239013671875 L 439.7838439941406 3567.239013671875 C 448.0681457519531 3567.239013671875 454.7838439941406 3573.954833984375 454.7838439941406 3582.239013671875 L 454.7838439941406 3932.686767578125 C 454.7838439941406 3940.970947265625 448.0681457519531 3947.686767578125 439.7838439941406 3947.686767578125 Z" stroke="none" fill="#000528"/>
    </g>
    <path id="Path_10" data-name="Path 10" d="M392.045,3903.532s13.047-62.818,99.389-64.578c112.079,3.6,141.579,62.086,141.6,198.645s0,146.487,0,146.487H529.08L524.089,3989.5s3.782-56.585-59.822-59.236c-65.875,1.893-64.112,59.236-64.112,59.236v200.458H287.866V3838.954h104.18Z" transform="translate(-471.952 -1493.715)" fill="#000528" stroke="#000528" stroke-linecap="round" stroke-linejoin="round" stroke-width="13"/>
  </g>
</svg>
