<svg width="162" height="214" viewBox="0 0 162 214" fill="none" xmlns="http://www.w3.org/2000/svg">
<path d="M75.6595 0.155937C70.4771 0.456624 62.0579 1.97775 58.1843 3.3043C57.6537 3.49887 56.5748 3.85262 55.7965 4.08255C53.8155 4.70161 49.4644 6.48805 47.7487 7.37242C42.9377 9.88404 42.6194 10.0609 38.8342 12.6433C36.5879 14.1821 33.7226 16.4461 31.9184 18.1618C30.1851 19.8067 26.0993 24.4054 24.8435 26.1211C17.6447 36.0438 14.5317 48.0889 16.1766 59.6919C16.4242 61.4253 16.7426 63.2294 16.8841 63.7247C18.7413 70.1452 19.3427 71.7017 21.4652 75.5752C22.774 77.9454 25.6571 82.2434 26.7006 83.3577C27.1959 83.8707 27.302 84.136 27.249 84.702C27.249 84.8612 26.5061 85.6925 25.604 86.5592C21.589 90.4504 19.5903 92.6613 16.6719 96.4464C13.0813 101.116 11.2241 104.105 7.8635 110.685C6.94376 112.489 5.70563 115.514 4.59132 118.68C4.11376 120.024 3.68926 121.191 3.6362 121.28C3.44164 121.58 2.11508 126.94 1.58446 129.487C0.187148 136.332 -0.290413 143.813 0.169461 151.366C0.823897 161.749 3.88383 172.874 8.62407 182.142C11.118 186.989 13.7534 191.251 16.3004 194.559C16.9195 195.337 17.6624 196.31 17.963 196.717C18.9359 198.008 22.3142 201.651 24.4897 203.756C28.1864 207.329 31.6708 210.194 35.1729 212.565L36.8709 213.714L80.7005 213.767C124.388 213.803 124.548 213.803 125.273 213.449C126.21 212.989 126.635 212.706 129.659 210.442C131.039 209.416 132.401 208.408 132.719 208.178C133.02 207.966 133.356 207.683 133.444 207.559C133.551 207.435 134.506 206.533 135.567 205.56C137.636 203.703 142.748 198.45 143.243 197.707C143.402 197.459 143.986 196.717 144.552 196.045C145.1 195.372 145.861 194.382 146.232 193.851C146.586 193.338 147.135 192.56 147.418 192.136C148.673 190.349 150.336 187.784 150.336 187.643C150.336 187.572 150.672 186.989 151.061 186.369C151.928 185.043 154.422 180.108 155.448 177.72C159.038 169.283 161.196 160.369 161.833 151.26C162.204 146.077 161.939 138.826 161.214 134.032C159.392 121.934 155.041 110.526 148.62 101.045C145.879 96.9771 142.943 93.2273 140.962 91.2286C140.714 90.981 139.989 90.2205 139.352 89.5483C138.715 88.8585 137.46 87.6204 136.575 86.7714C135.673 85.9224 134.859 85.0203 134.771 84.7727C134.63 84.3836 134.753 84.1183 136.062 82.3849C136.858 81.3237 137.972 79.7495 138.521 78.9005C139.6 77.2379 142.023 72.9575 142.023 72.7099C142.023 72.6214 142.377 71.7724 142.819 70.7996C143.261 69.8268 143.615 68.9071 143.615 68.7479C143.615 68.5887 143.827 67.8989 144.075 67.2445C144.588 65.8825 144.977 64.2199 145.684 60.5409C146.126 58.2946 146.162 57.6755 146.162 53.7312C146.179 49.1856 146.073 48.142 145.26 44.3569C145.012 43.2426 144.747 42.0398 144.676 41.7038C144.411 40.448 142.801 36.0261 142.041 34.4873C141.74 33.8859 141.492 33.3553 141.492 33.3022C141.492 32.8247 137.778 26.8817 136.469 25.2367C136.115 24.8122 135.655 24.2286 135.443 23.9456C134.417 22.6013 130.968 18.9223 129.978 18.091C129.624 17.808 128.545 16.8883 127.59 16.057C126.617 15.2256 125.344 14.1821 124.742 13.7576C122.708 12.2718 121.417 11.3698 121.063 11.1752C120.869 11.0691 119.719 10.397 118.499 9.68948C117.278 8.98198 116.005 8.27448 115.669 8.13298C115.332 7.99148 114.855 7.74386 114.607 7.58467C114.36 7.42548 113.776 7.12479 113.281 6.91255C112.803 6.7003 111.848 6.29348 111.158 5.9928C109.107 5.10842 105.817 3.85262 105.569 3.85262C105.445 3.85262 104.791 3.65805 104.101 3.42812C102.881 3.02131 101.253 2.56143 98.8655 2.01312C91.5782 0.297437 83.9019 -0.321624 75.6595 0.155937ZM89.3142 6.31117C93.6123 6.8418 95.1334 7.12479 97.9811 7.83229C102.155 8.87585 105.251 9.88404 107.833 11.0337C108.134 11.1752 108.434 11.2813 108.487 11.2813C108.594 11.2813 109.849 11.8473 112.396 13.0678C113.581 13.6338 116.924 15.5263 118.145 16.3223C124.318 20.3904 130.402 26.3157 133.356 31.0913C133.674 31.6219 134.081 32.2233 134.258 32.4179C135.107 33.3907 138.149 40.165 138.91 42.7827C139.883 46.1079 140.307 49.3801 140.325 53.4659C140.343 56.6143 140.272 57.534 139.918 59.4797C138.786 65.8471 136.823 70.7643 133.285 76.0705C131.375 78.9359 129.978 80.6515 127.572 83.0747C126.67 83.9945 125.927 84.8788 125.927 85.038C125.927 85.4095 126.193 85.7278 127.165 86.4707C129.96 88.5932 134.223 92.5906 136.876 95.5621C140.413 99.5064 142.377 102.159 145.224 106.794C146.781 109.341 146.834 109.429 148.054 111.835C152.282 120.095 154.935 129.204 155.89 138.808C156.261 142.416 156.261 149.102 155.89 152.445C155.112 159.697 153.113 168.24 151.097 172.856C150.796 173.528 150.495 174.289 150.424 174.537C150.23 175.191 147.612 180.586 146.586 182.407C142.713 189.306 138.468 194.718 132.56 200.325C130.155 202.589 126.316 205.773 124.335 207.117L123.363 207.789H81.0542C42.6901 207.807 38.6927 207.771 38.2506 207.524C37.6138 207.17 36.6233 206.445 36.1634 206.02C35.9689 205.843 35.4736 205.472 35.0668 205.189C32.9443 203.756 26.7183 197.866 24.1183 194.859C21.7482 192.118 18.9889 188.368 17.3794 185.75C15.7521 183.08 15.5222 182.655 13.7181 179.047C10.9234 173.44 9.8445 170.575 7.93425 163.482C7.63357 162.421 7.15601 159.891 6.53695 156.318C6.16551 154.178 5.82945 148.978 5.82945 145.529C5.82945 138.773 6.89069 131.185 8.64175 125.312C10.4105 119.44 11.2418 117.3 13.665 112.471C16.3181 107.165 18.0515 104.388 21.6774 99.6302C24.0829 96.4818 30.0613 90.1851 32.0953 88.664C32.7851 88.151 34.5893 86.6653 35.5974 85.8163C35.8627 85.5863 36.075 85.268 36.075 85.1265C36.075 84.9673 35.1906 83.9237 34.1117 82.774C31.1225 79.6257 28.8055 76.5481 26.8952 73.1698C24.4543 68.8717 22.8271 64.273 21.9958 59.3028C21.6243 57.0565 21.5536 50.8128 21.8897 48.5134C22.774 42.429 25.0734 36.4506 28.5225 31.2328C30.8395 27.713 34.4831 23.6272 37.6138 21.0271C40.32 18.7631 40.7268 18.4625 41.3105 18.091C41.6289 17.8965 42.4602 17.3305 43.1677 16.8352C45.8915 14.9426 47.5542 14.0229 52.259 11.7943C56.3094 9.88404 63.1899 7.81461 68.6199 6.87717C75.1112 5.76286 83.0883 5.53292 89.3142 6.31117Z" fill="#B50003"/>
<path d="M73.9261 15.5263C72.2104 15.7032 69.858 16.057 68.7083 16.3223C67.5409 16.5699 66.1967 16.8529 65.7014 16.959C64.2511 17.2597 60.9081 18.3386 58.538 19.2407C54.4699 20.8149 49.6589 23.3972 46.9704 25.4313C46.4044 25.8735 45.7146 26.3864 45.467 26.581C43.2561 28.2436 40.7621 30.6314 38.7281 33.0369C36.3933 35.7962 34.0232 39.7758 32.9973 42.6058C32.679 43.5256 32.3075 44.4984 32.2014 44.7991C31.6354 46.1964 31.1048 49.4862 30.9986 52.0509C30.8395 56.5435 31.2993 59.7096 32.7143 63.6185C33.7933 66.6608 34.7484 68.4295 37.4723 72.4623C38.3389 73.7534 41.1336 76.7957 42.7608 78.2637C44.7064 79.9794 44.6357 79.9794 46.599 78.9005C48.3854 77.9277 52.2236 76.212 54.4699 75.3984C55.1067 75.1684 56.1856 74.7616 56.8577 74.514C57.5475 74.2664 58.538 73.9657 59.0686 73.8242C59.5993 73.6827 60.8374 73.3643 61.8102 73.099C69.6104 70.9765 78.5072 70.1452 86.3958 70.7819C97.0967 71.6663 105.41 73.9657 114.873 78.6705C116.04 79.2542 117.101 79.7318 117.225 79.7318C117.879 79.7318 122.284 75.4337 123.946 73.1697C124.548 72.3561 125.22 71.4541 125.432 71.1711C127.271 68.7656 129.217 64.4321 130.261 60.364C131.11 57.0919 131.269 51.8387 130.632 48.2481C130.349 46.7093 129.182 42.8004 128.916 42.4997C128.828 42.4113 128.757 42.2344 128.757 42.1106C128.757 41.8099 127.625 39.3513 127.165 38.6085C124.265 34.0274 122.071 31.3566 118.817 28.4912C111.954 22.4244 103.393 18.3033 93.8068 16.4284C90.6938 15.8093 89.9863 15.7209 86.9618 15.4379C83.1059 15.0841 77.8174 15.1372 73.9261 15.5263ZM86.8203 21.2748C92.3388 21.8231 97.9811 23.2204 102.438 25.1306C109.602 28.2082 115.226 32.3471 119.401 37.6356C123.292 42.5528 125.432 48.8141 125.167 54.4387C125.043 57.0919 124.742 58.666 123.893 61.2307C122.885 64.2376 121.576 66.6077 119.312 69.5261C116.818 72.7099 116.5 72.8868 114.554 71.967C105.587 67.7751 94.532 65.1927 83.8311 64.7859C78.4541 64.5736 70.4417 65.175 65.8783 66.1125C60.3952 67.2445 54.0631 69.0663 51.1977 70.3574C50.614 70.6228 49.8181 70.9411 49.429 71.0649C49.0399 71.1888 48.1732 71.5602 47.501 71.8786C46.316 72.4623 45.75 72.5861 45.2017 72.3738C44.8479 72.2323 42.6016 69.5792 41.505 67.9873C40.0016 65.8295 38.4451 62.628 37.7376 60.2756C37.2246 58.5422 36.7824 55.3939 36.7824 53.4482C36.7824 51.4849 37.2954 48.2658 37.9144 46.3025C38.392 44.7814 39.7893 41.863 40.9036 40.1296C42.4601 37.6533 43.2561 36.6628 45.3962 34.505C52.9311 26.9171 63.3313 22.4067 76.2255 21.1333C78.0473 20.9387 84.4148 21.0448 86.8203 21.2748Z" fill="#B50003"/>
<path d="M63.0483 85.5156C62.0755 85.7455 58.2904 87.0898 57.0346 87.6381C50.048 90.698 45.4493 93.528 40.1077 98.056C31.6354 105.272 24.9142 115.248 21.3767 125.896C20.4039 128.868 19.4487 132.653 19.4487 133.59C19.4487 135.925 22.261 137.251 24.1182 135.783C24.7903 135.253 24.9849 134.757 25.6393 132.193C28.9115 119.122 36.3402 107.979 47.165 99.8778C51.5691 96.5879 58.9625 92.8205 63.5966 91.4939C65.5422 90.9279 66.2851 90.3089 66.6919 88.8939C67.2402 86.9483 65.1354 85.0203 63.0483 85.5156Z" fill="#B50003"/>
</svg>
