<svg width="245" height="163" viewBox="0 0 245 163" fill="none" xmlns="http://www.w3.org/2000/svg">
<g clip-path="url(#clip0_97_128)">
<path d="M79.93 0.679164C79.3957 0.970235 78.74 1.60089 78.4728 2.06175C77.9869 2.88646 77.9627 3.27455 77.9627 12.0067C77.9627 22.2428 77.987 22.3639 79.7601 23.4554L80.6344 24.0134L95.3282 24.1347C103.416 24.2075 110.168 24.353 110.338 24.45C110.751 24.7169 110.751 31.9209 110.338 32.3331C110.119 32.5514 107.035 32.6242 98.0241 32.6242C91.3936 32.6242 85.5646 32.7455 85.0304 32.8425C84.5203 32.9638 83.7189 33.4246 83.2817 33.8612C82.8445 34.2979 79.1285 39.6585 75.024 45.771C70.9437 51.8835 67.3977 57.0014 67.1549 57.1228C66.8634 57.2683 62.3944 57.3653 55.3267 57.3653C42.5029 57.3653 42.7944 57.3169 41.7259 59.2088C41.1672 60.1548 41.1672 60.2032 41.143 72.2827C41.143 78.9531 41.0457 84.6776 40.9486 85.0171L40.7786 85.6236L36.9169 85.6963C34.4152 85.7447 32.9824 85.672 32.8122 85.5022C32.618 85.3325 32.4965 81.1362 32.4237 72.5496L32.3022 59.8879L31.6951 58.9905C30.5779 57.3411 30.5779 57.3411 20.3527 57.3653C11.9979 57.3653 11.1235 57.4138 10.3221 57.8019C9.44771 58.2629 9.01054 58.845 3.61872 66.9222C-0.145848 72.5254 0.121315 71.555 0.121315 79.5595C0.121315 86.0116 0.145602 86.3996 0.631352 87.2972C0.898515 87.8308 2.74437 90.6688 4.68735 93.6037L8.25763 98.9643L8.37906 117.278C8.47622 130.279 8.57336 135.761 8.76767 136.197C9.13198 136.973 10.0063 137.774 10.9292 138.162C11.4636 138.404 13.8195 138.501 19.3813 138.574C28.4891 138.671 30.0192 138.501 31.1608 137.337C31.5736 136.901 32.0351 136.246 32.1565 135.882C32.3266 135.421 32.4237 130.982 32.4237 122.881C32.4237 111.262 32.4479 110.534 32.8609 110.171C33.468 109.613 39.8314 109.564 40.5843 110.098C41.0215 110.437 41.0457 110.922 41.1672 123.269L41.2887 136.124L41.9687 136.998C42.4058 137.58 42.9645 137.968 43.5716 138.138C44.1059 138.283 49.1092 138.404 55.7639 138.453C61.9572 138.501 67.2033 138.623 67.4219 138.72C67.6163 138.817 68.1263 139.423 68.5148 140.078C68.9036 140.733 70.7007 143.498 72.5223 146.191C74.3438 148.907 77.307 153.37 79.1527 156.111C82.3831 161.035 83.6218 162.491 84.7147 162.758C85.0062 162.83 112.427 162.854 145.652 162.83L206.055 162.758L206.807 162.03C208.337 160.574 208.264 161.714 208.264 141.679C208.264 130.376 208.363 123.123 208.509 122.759L208.751 122.129H212.613C215.454 122.129 216.547 122.201 216.693 122.42C216.789 122.59 216.935 129.381 217.008 137.531L217.13 152.327L217.689 153.104C218.806 154.68 219.048 154.729 226.772 154.826C232.892 154.899 233.839 154.85 234.593 154.51C235.395 154.122 240.737 149.029 243.676 145.851L244.94 144.468V110.51C244.94 89.2134 244.841 76.3335 244.696 75.9455C244.331 74.9995 236.317 66.9706 235.005 66.2673C233.888 65.6608 233.839 65.6366 226.844 65.5638C220.167 65.4911 219.753 65.5153 218.975 65.9763C218.514 66.2429 217.932 66.7767 217.64 67.1405C217.154 67.8196 217.13 68.1349 217.008 78.5407C216.935 84.4349 216.789 89.4075 216.693 89.553C216.547 89.7955 215.454 89.8683 212.636 89.8683C209.066 89.8683 208.751 89.8441 208.509 89.4075C208.363 89.0921 208.264 83.9741 208.264 74.4657V59.9849L207.609 59.0389C206.346 57.2683 206.929 57.3411 191.969 57.3653C183.418 57.3653 178.44 57.2683 178.149 57.1228C177.906 56.9772 174.336 51.8593 170.255 45.7224C166.175 39.5857 162.483 34.2495 162.095 33.8612C161.706 33.449 160.953 33.0124 160.467 32.8669C159.909 32.7213 155.003 32.6242 147.376 32.6242C135.573 32.6242 135.16 32.6 134.917 32.1634C134.601 31.5571 134.601 25.1049 134.917 24.6197C135.111 24.3045 137.127 24.2317 149.902 24.1347L164.669 24.0134L165.592 23.4313C166.102 23.1402 166.709 22.4611 166.976 21.9273C167.438 21.0541 167.462 20.472 167.462 12.0795C167.462 3.2988 167.438 3.12902 166.904 2.20729C166.612 1.67366 166.053 1.01875 165.689 0.751932L165.009 0.242557L122.943 0.194044L80.8772 0.121277L79.93 0.679164ZM159.059 7.88318L159.69 8.12575V11.9582C159.69 14.6263 159.593 15.8876 159.399 16.0817C159.18 16.3 150.679 16.3728 122.603 16.3728C86.7791 16.3728 86.1233 16.3728 85.8561 15.9119C85.5891 15.3783 85.5162 8.63513 85.8076 8.22277C85.9047 8.07723 86.1475 7.88318 86.3419 7.81041C86.9977 7.56786 158.403 7.61638 159.059 7.88318ZM126.489 24.45C126.878 24.7169 126.902 25.1777 126.853 28.622L126.781 32.503L122.7 32.5758L118.644 32.6242L118.401 32.0179C118.256 31.654 118.159 29.9562 118.159 28.2339C118.159 23.9892 118.013 24.1347 122.603 24.1347C125.008 24.1347 126.198 24.2317 126.489 24.45ZM157.067 40.6045C157.383 40.7258 158.136 41.5746 158.743 42.4722C159.35 43.3938 160.394 44.9463 161.05 45.9165C161.706 46.8867 162.629 48.2693 163.09 48.997C163.552 49.7246 164.766 51.5438 165.786 53.0478C166.806 54.5517 168.701 57.4138 170.037 59.4028C172.757 63.5263 173.631 64.4965 174.748 64.7392C175.185 64.812 177.298 64.8847 179.436 64.8847C182.715 64.8847 183.395 64.9575 183.783 65.297C184.196 65.6608 184.22 67.383 184.22 110.074C184.22 151.042 184.196 154.51 183.808 154.923C183.444 155.335 181.622 155.359 136.107 155.359C103.076 155.359 88.6249 155.287 88.2121 155.093C87.872 154.947 84.836 150.605 80.1486 143.547C75.4854 136.561 72.3037 132.025 71.7936 131.613L70.9679 130.982L60.1601 130.861C49.8378 130.74 49.3764 130.715 49.0363 130.279C48.7449 129.866 48.6962 125.039 48.6962 97.8242C48.6962 66.1702 48.6962 65.8549 49.1821 65.3697C49.6435 64.9089 49.9835 64.8847 59.5772 64.8847C65.0174 64.8847 69.8992 64.812 70.4093 64.7148C71.5508 64.5451 72.7895 63.3808 73.9311 61.4646C74.6111 60.3246 76.0683 58.1173 79.7843 52.6354C80.3185 51.8349 81.6301 49.8702 82.6988 48.2693C83.7675 46.6684 84.7389 45.1888 84.8847 44.9947C85.0304 44.8008 85.6861 43.7821 86.3905 42.7389C87.0705 41.6718 87.872 40.7258 88.1392 40.6287C88.8192 40.3376 156.339 40.3376 157.067 40.6045ZM24.2145 65.297C24.6274 65.6608 24.6516 66.995 24.6516 97.8728C24.6516 129.381 24.6516 130.06 24.1902 130.473C23.7773 130.861 23.2917 130.885 20.2314 130.812C18.3126 130.788 16.6125 130.643 16.4668 130.546C16.2239 130.4 16.1511 126.834 16.1511 114.173C16.1511 105.271 16.0539 97.5817 15.9325 97.0965C15.7139 96.1749 14.4266 94.0888 10.8807 88.8981C7.69901 84.241 7.89332 84.8231 7.89332 79.3897V74.684L8.93768 73.0589C11.5607 68.9354 14.2323 65.1514 14.6209 65.0545C14.8638 64.9817 17.0254 64.9331 19.4055 64.9089C23.1459 64.8847 23.8259 64.9331 24.2145 65.297ZM200.031 65.1272C200.494 65.3941 200.494 66.146 200.494 110.122C200.494 154.098 200.494 154.85 200.031 155.117C199.765 155.238 198.064 155.359 196.218 155.359C193.45 155.359 192.794 155.287 192.43 154.947C192.016 154.583 191.992 152.861 191.992 110.171C191.992 69.2022 192.016 65.7336 192.406 65.3213C192.745 64.9331 193.207 64.8847 196.169 64.8847C198.04 64.8847 199.765 65.0059 200.031 65.1272ZM231.726 73.7138C232.358 74.1746 236.972 78.8318 237.216 79.2928C237.337 79.4867 237.386 93.5309 237.362 110.486L237.289 141.315L234.349 144.202L231.411 147.112H228.229C225.314 147.112 225.023 147.064 224.781 146.651C224.611 146.336 224.538 134.548 224.538 110.243C224.538 85.9388 224.611 74.1504 224.781 73.8352C225.023 73.4228 225.314 73.3742 228.132 73.3742C230.44 73.3742 231.362 73.4713 231.726 73.7138ZM40.5843 93.8463C40.9972 94.1616 41.0457 94.5013 41.0457 97.6787C41.0457 99.595 40.9728 101.341 40.8757 101.56C40.7058 101.948 40.2928 101.996 36.8441 101.996C34.1966 101.996 32.9095 101.899 32.7151 101.705C32.3995 101.39 32.3022 94.5497 32.618 94.0888C32.9337 93.628 33.468 93.5553 36.8197 93.5309C39.297 93.5067 40.22 93.5795 40.5843 93.8463ZM216.547 97.8728C216.984 98.1153 217.008 98.4791 217.008 105.999C217.008 113.518 216.984 113.882 216.547 114.124C216.279 114.246 214.458 114.367 212.418 114.367C209.066 114.367 208.751 114.318 208.509 113.906C208.363 113.615 208.264 110.656 208.264 105.999C208.264 101.341 208.363 98.3822 208.509 98.0911C208.751 97.6787 209.066 97.6303 212.418 97.6303C214.458 97.6303 216.279 97.7514 216.547 97.8728Z" fill="#B50003"/>
<path d="M137.37 53.6299C136.908 53.8482 135.233 55.2066 133.605 56.7104C131.978 58.1901 129.574 60.3973 128.238 61.5858C126.926 62.7987 125.056 64.5209 124.109 65.3941C123.186 66.2673 119.834 69.3236 116.701 72.1615C113.568 75.0237 110.289 78.0313 109.415 78.8562C108.541 79.6566 105.359 82.5915 102.323 85.3325C99.2872 88.0977 96.5669 90.596 96.2512 90.8871C95.9111 91.2023 94.4539 92.5365 92.9966 93.8705C87.9449 98.4791 86.6092 99.8617 86.3177 100.711C85.9048 101.996 86.2448 103.549 87.1192 104.422C88.552 105.877 88.6493 105.877 99.19 105.877C104.485 105.877 108.954 105.974 109.148 106.096C109.488 106.314 109.294 107.648 108.443 110.971C108.322 111.432 108.104 112.475 107.982 113.275C107.836 114.076 107.399 116.089 106.986 117.763C106.573 119.436 106.088 121.619 105.893 122.614C105.699 123.608 105.359 125.137 105.165 126.01C104.946 126.883 104.63 128.29 104.436 129.163C104.242 130.036 103.926 131.443 103.732 132.316C102.785 136.561 102.614 137.531 102.614 138.696C102.614 140.321 103.27 141.412 104.63 142.019C106.962 143.086 107.885 142.576 114.54 136.44C117.503 133.699 120.053 131.346 120.199 131.225C124.376 127.441 126.101 125.864 127.388 124.651C129.671 122.517 132.415 119.994 133.945 118.636C134.674 117.981 136.544 116.283 138.074 114.852C139.604 113.421 141.402 111.796 142.057 111.189C142.713 110.607 143.539 109.855 143.879 109.54C144.219 109.225 147.425 106.314 150.971 103.088C154.517 99.8617 157.699 96.854 158.063 96.4416C159.739 94.4527 159.35 91.7603 157.188 90.4505C156.46 90.0138 155.804 89.9896 146.405 89.9169C138.196 89.8683 136.374 89.7713 136.131 89.5045C135.84 89.1406 135.937 88.5585 137.224 82.9796C137.564 81.5486 138.05 79.2928 138.317 78.0071C138.584 76.7215 138.973 74.9751 139.191 74.1019C139.701 71.8705 140.479 68.3776 140.746 66.9464C140.867 66.2673 141.304 64.3026 141.717 62.5804C142.835 57.899 142.98 56.9772 142.689 55.9343C142.13 53.824 139.532 52.7081 137.37 53.6299ZM132.075 69.5903C132.148 69.7602 132.1 70.3423 131.978 70.8517C131.832 71.3853 131.565 72.5496 131.395 73.4955C131.201 74.4173 130.545 77.3764 129.938 80.0446C129.331 82.7129 128.651 85.7205 128.432 86.7151C128.238 87.7095 127.898 89.2376 127.704 90.1108C126.805 94.113 127.072 95.7383 128.772 96.9026L129.646 97.5089L137.03 97.5817C144.049 97.6545 144.389 97.6787 144.389 98.1153C144.389 98.3822 143.879 99.0613 143.248 99.6434C140.236 102.409 118.474 122.274 116.264 124.263C114.88 125.5 113.641 126.471 113.471 126.422C112.985 126.252 113.228 124.773 114.758 118.369C115.171 116.623 115.657 114.512 115.827 113.639C116.191 111.893 116.628 110.001 117.551 105.999C118.571 101.56 118.304 99.8617 116.41 98.7218C115.681 98.2852 115.05 98.2366 108.346 98.1153C102.639 98.0183 101.06 97.9213 100.963 97.6787C100.842 97.2664 102.663 95.4956 112.33 86.7151C113.738 85.4537 115.487 83.8528 116.216 83.1737C116.944 82.4946 118.207 81.3545 119.009 80.6268C119.81 79.8991 121.34 78.4923 122.409 77.4978C123.478 76.479 125.542 74.5629 127.023 73.253C128.481 71.9188 130.059 70.4635 130.521 70.0269C131.42 69.178 131.881 69.0567 132.075 69.5903Z" fill="#B50003"/>
<path d="M57.5855 74.0049C57.294 74.7326 57.4155 80.7723 57.7312 81.0876C58.0471 81.403 64.0947 81.5242 64.8233 81.2331C65.1632 81.112 65.2118 80.554 65.2118 77.7403C65.2118 75.8969 65.139 74.2232 65.0661 74.0049C64.9446 73.6653 64.3861 73.6169 61.3259 73.6169C58.2657 73.6169 57.707 73.6653 57.5855 74.0049Z" fill="#B50003"/>
<path d="M57.7314 90.1594C57.5128 90.3777 57.4399 94.2586 57.4399 106.144C57.4399 120.237 57.4886 121.838 57.8287 121.983C58.3143 122.177 64.3376 122.177 64.8235 121.983C65.1634 121.838 65.212 120.237 65.212 106.144C65.212 94.2586 65.1391 90.3777 64.9205 90.1594C64.5076 89.747 58.1443 89.747 57.7314 90.1594Z" fill="#B50003"/>
</g>
<defs>
<clipPath id="clip0_97_128">
<rect width="245" height="163" fill="white"/>
</clipPath>
</defs>
</svg>
