<svg width="382" height="246" viewBox="0 0 382 246" fill="none" xmlns="http://www.w3.org/2000/svg">
<path d="M248.193 0.19897C248.074 0.318028 241.923 0.595831 234.541 0.794262C227.16 0.992692 217.516 1.34987 213.151 1.5483C205.888 1.94516 198.824 2.18328 167.512 3.17543C161.638 3.37386 151.875 3.69135 145.883 3.92946C139.89 4.16758 131.397 4.48507 127.032 4.60413C121.515 4.80256 119.571 5.00099 120.682 5.19942C122.468 5.55659 137.509 6.19157 156.598 6.74718C163.702 6.98529 170.051 7.22341 170.686 7.30278C171.361 7.42184 179.1 7.69964 187.95 7.97745C196.8 8.21556 205.015 8.45368 206.205 8.53305C207.396 8.57274 208.864 8.65211 209.499 8.6918C210.888 8.73148 210.928 9.80301 209.579 10.3189C206.721 11.3905 198.784 15.5178 195.093 17.8593C194.776 18.0577 193.466 18.8514 192.236 19.6055C190.093 20.9151 182.989 26.2331 178.425 29.9239L176.242 31.7097L170.925 31.7494C168.027 31.7494 162.67 31.9875 159.019 32.305C155.407 32.6225 148.423 33.0194 143.501 33.1384C138.58 33.2972 131.199 33.6544 127.032 33.9718C122.904 34.2496 119.055 34.5671 118.499 34.5671C115.88 34.7259 122.984 35.2418 128.619 35.2815C132.112 35.3212 137.469 35.599 140.525 35.9165C143.581 36.234 148.303 36.5118 151.042 36.5118C157.63 36.5118 168.583 37.3055 169.218 37.7817C169.575 38.0992 169.178 38.8135 167.432 40.8375C166.162 42.2662 164.932 43.6156 164.694 43.8537C163.265 45.084 154.971 56.8707 153.661 59.4503C152.629 61.4743 152.986 61.4346 120.682 62.7046C115.681 62.903 109.411 63.2602 106.792 63.4586C104.173 63.6967 99.9658 63.8952 97.4656 63.8952C94.9653 63.9349 92.1873 64.0936 91.3142 64.2523C90.0443 64.4905 90.7983 64.6095 94.886 64.8476C97.7434 65.0064 101.752 65.2842 103.815 65.4826C105.879 65.681 112.308 65.9588 118.102 66.0779C123.896 66.2366 131.516 66.5938 135.088 66.9113C138.62 67.2288 143.025 67.4669 144.89 67.4669C146.716 67.4669 148.303 67.6257 148.423 67.8241C148.621 68.1416 148.026 69.6893 145.883 74.412C145.486 75.2851 144.851 76.7931 144.494 77.7853C144.097 78.7775 143.66 79.9283 143.462 80.3649C142.668 82.2698 140.327 89.6118 140.327 90.2071C140.327 90.5642 140.088 90.9611 139.85 91.1595C139.255 91.5167 133.064 91.9136 120.88 92.4295C116.197 92.6279 108.419 92.9851 103.617 93.2232C98.8149 93.4613 92.0682 93.7391 88.6552 93.8979C85.2026 94.0169 82.3848 94.255 82.3848 94.4535C82.3848 94.9694 90.3617 95.7234 99.6483 96.0806C124.69 96.9934 137.112 97.549 137.509 97.8268C138.104 98.184 138.064 100.208 137.39 104.534C137.072 106.518 136.596 110.288 136.358 112.908C135.644 120.17 136.04 119.654 131.357 119.734C129.214 119.773 125.484 120.011 123.063 120.249C120.682 120.488 113.181 120.845 106.395 121.043C81.1546 121.797 59.5653 122.631 55.4777 123.027C53.1362 123.226 48.3739 123.424 44.8815 123.464C39.6032 123.504 35.8727 123.861 36.7458 124.218C36.9443 124.297 44.8815 124.655 62.5418 125.369C68.336 125.607 77.5431 126.004 82.9801 126.242C88.4568 126.48 96.5528 126.837 101.037 126.996C125.286 127.869 133.858 128.226 134.612 128.385C135.723 128.623 135.763 128.822 136.318 133.346C137.072 139.616 137.945 145.728 138.382 147.99C138.62 149.141 138.66 150.252 138.461 150.411C138.144 150.728 123.936 151.324 99.8467 151.998C86.8297 152.355 64.6848 153.07 53.414 153.467C39.4048 153.943 48.096 154.459 89.1315 155.61C95.9972 155.768 103.776 156.046 106.395 156.126C109.014 156.245 117.666 156.562 125.603 156.8C142.073 157.277 140.525 156.88 141.914 161.126C142.351 162.555 142.986 164.38 143.303 165.174C143.62 166.008 144.176 167.436 144.533 168.349C145.525 170.968 147.153 174.54 148.581 177.358C149.296 178.747 149.732 180.056 149.573 180.215C149.216 180.572 148.462 180.612 118.896 181.485C106.99 181.842 93.2588 182.318 88.3378 182.557C83.4167 182.795 75.7573 182.993 71.2727 182.993C64.4467 183.033 58.6129 183.39 59.3669 183.747C60.1606 184.104 111.911 185.851 140.525 186.486C149.613 186.684 153.026 186.882 153.621 187.279C154.058 187.557 155.01 188.787 155.764 189.978C157.868 193.431 162.789 199.86 166.797 204.503C168.861 206.845 170.488 209.027 170.369 209.305C170.091 209.98 163.344 210.337 150.089 210.337C144.375 210.337 132.945 210.535 124.651 210.734C116.356 210.972 99.9261 211.289 88.1393 211.527C67.2247 211.885 47.4611 212.599 47.1039 212.956C47.0245 213.036 47.0245 213.234 47.1436 213.353C47.2626 213.472 58.7716 213.71 72.7014 213.909C86.6709 214.107 101.196 214.385 105.006 214.504C108.816 214.663 121.952 214.94 134.175 215.139C146.399 215.377 158.622 215.695 161.36 215.893C164.099 216.052 169.218 216.25 172.71 216.25C178.147 216.29 179.219 216.369 179.655 216.964C180.806 218.353 194.458 228.196 195.212 228.196C195.371 228.196 196.125 228.672 196.959 229.227C197.792 229.783 198.864 230.418 199.379 230.616C200.253 230.974 200.927 232.005 200.53 232.402C200.411 232.521 192.673 232.76 183.346 232.958C173.98 233.156 162.035 233.474 156.796 233.712C148.065 234.109 135.088 234.426 94.2907 235.339C86.1153 235.538 74.1301 235.855 67.701 236.093C61.2718 236.331 47.977 236.728 38.1348 236.966C20.0777 237.363 16.7043 237.601 16.7043 238.316C16.7043 238.554 21.6254 238.792 30.1579 238.99C37.5395 239.109 43.9687 239.347 44.4449 239.506C44.9212 239.625 54.1283 239.903 64.923 240.101C75.7176 240.3 87.1472 240.578 90.3221 240.697C93.4969 240.816 103.141 241.094 111.753 241.292C120.364 241.49 132.786 241.848 139.334 242.046C154.931 242.602 179.259 243.237 200.253 243.713C209.539 243.872 218.111 244.149 219.302 244.268C220.492 244.427 226.922 244.665 233.589 244.864C240.256 245.062 248.709 245.459 252.4 245.737C257.718 246.094 260.536 246.094 265.695 245.697C274.426 245.062 277.839 244.705 280.22 244.149C281.331 243.911 283.633 243.395 285.379 243.078C288.554 242.443 293.316 241.173 295.023 240.459C295.539 240.26 296.214 240.101 296.531 240.101C296.888 240.101 297.722 239.863 298.396 239.546C299.111 239.228 300.817 238.593 302.246 238.117C306.413 236.728 314.549 232.879 319.628 229.902C321.255 228.95 322.605 228.196 322.724 228.196C323.2 228.196 332.844 221.37 336.376 218.552C341.178 214.663 348.599 207.519 352.25 203.193C355.346 199.582 360.823 192.161 362.41 189.581C363.045 188.51 363.878 187.16 364.236 186.605C367.41 181.644 371.736 172.675 374.316 165.769C376.022 161.205 376.062 161.126 377.888 154.776C378.165 153.784 378.681 151.562 379.038 149.816C379.396 148.069 379.872 145.926 380.11 145.093C381.261 140.489 382.134 128.187 381.896 119.257C381.658 110.606 381.261 107.074 379.753 99.8111C379.197 97.1918 378.602 94.255 378.443 93.2629C378.284 92.2707 377.967 91.0405 377.729 90.4849C377.53 89.9292 377.054 88.4212 376.657 87.1115C376.3 85.8019 375.744 84.1351 375.427 83.4207C375.11 82.7064 374.871 81.9523 374.871 81.7142C374.871 81.4761 374.633 80.7221 374.316 80.0474C374.038 79.3331 373.086 77.19 372.292 75.2057C369.792 69.2528 366.021 61.7918 364.712 60.2837C364.394 59.9662 364.156 59.49 364.156 59.3313C364.156 59.1328 362.966 57.1882 361.497 54.9658C352.687 41.8297 341.853 30.797 328.836 21.7485C320.66 16.0734 308.913 10.0014 300.857 7.34247C299.309 6.82655 297.642 6.23126 297.087 6.03283C291.491 3.88978 279.744 1.42924 269.902 0.397401C265.893 0.000539606 248.59 -0.158205 248.193 0.19897ZM265.893 15.875C282.403 17.0259 297.087 21.3913 311.572 29.3683C314.747 31.1144 322.724 36.3927 324.51 37.9008C325.264 38.5357 326.772 39.8057 327.883 40.6788C335.185 46.5523 343.321 55.8389 349.75 65.681C353.322 71.118 357.489 79.4124 359.513 85.1272C362.132 92.5485 363.085 95.9218 364.712 103.978C365.823 109.455 366.656 120.091 366.379 125.409C366.061 132.116 365.148 140.847 364.593 142.196C364.355 142.831 364.156 143.823 364.156 144.418C364.156 145.45 363.124 149.776 362.172 152.792C361.934 153.546 361.457 155.054 361.14 156.165C360.783 157.237 360.267 158.705 359.949 159.42C359.632 160.094 359.394 160.848 359.394 161.086C359.394 161.325 359.235 161.84 358.997 162.237C358.799 162.595 358.164 164.063 357.568 165.492C351.179 181.247 337.924 197.915 323.081 208.988C316.255 214.067 310.937 217.163 301.254 221.687C295.856 224.187 285.459 227.323 279.545 228.156C278.315 228.354 277.085 228.632 276.807 228.791C275.974 229.307 265.179 230.14 259.186 230.14C252.757 230.18 242.002 229.267 238.55 228.434C237.24 228.156 234.978 227.64 233.549 227.283C230.811 226.688 230.096 226.449 225.255 224.783C223.628 224.227 221.921 223.671 221.485 223.552C220.294 223.235 218.945 222.679 211.96 219.465C208.071 217.679 200.768 213.353 196.641 210.416C179.814 198.431 166.083 180.85 158.82 161.999C158.463 161.086 157.907 159.658 157.59 158.824C156.836 156.919 155.01 150.728 154.574 148.506C154.375 147.553 154.137 146.641 154.018 146.442C153.661 145.847 152.55 138.426 152.232 134.14C152.034 131.838 151.716 128.464 151.518 126.639C151.28 124.536 151.28 121.877 151.518 119.495C151.716 117.392 152.034 113.82 152.232 111.518C152.629 106.994 153.463 101.637 154.217 98.8189C154.455 97.8268 154.971 95.9615 155.288 94.6519C156.082 91.7151 158.066 85.5638 158.781 83.9366C159.058 83.262 159.455 82.3095 159.693 81.7539C160.686 79.2934 164.456 71.753 166.043 69.0544C167.75 66.197 171.242 60.7203 171.679 60.3234C171.798 60.2044 172.194 59.6488 172.552 59.0535C173.345 57.8629 179.933 50.1241 182.037 48.0207C184.815 45.1633 189.14 41.3138 193.665 37.7023C195.331 36.353 202.157 31.7494 202.515 31.7494C202.634 31.7494 203.07 31.5113 203.388 31.1938C204.102 30.5985 207.436 28.7333 211.365 26.749C216.921 23.9313 221.524 22.1851 231.208 19.288C235.533 17.9783 244.304 16.4703 250.654 15.9544C256.686 15.4384 259.623 15.4384 265.893 15.875Z" fill="#B50003"/>
<path d="M253.233 36.3133C250.614 36.5514 247.479 36.988 246.288 37.2658C245.098 37.5436 242.875 38.0595 241.327 38.377C239.819 38.6945 237.954 39.2104 237.24 39.5279C236.525 39.8454 235.692 40.0835 235.375 40.0835C235.057 40.0835 234.224 40.3216 233.509 40.6391C232.795 40.9566 231.406 41.5122 230.414 41.9091C228.707 42.5837 219.222 46.9492 218.23 47.5445C216.127 48.7747 209.698 53.6561 206.205 56.6326C195.609 65.7207 187.553 77.1106 182.592 90.088C181.203 93.6994 180.886 94.6916 180.29 97.033C179.933 98.3427 179.497 100.129 179.258 101.002C177.234 108.78 176.599 122.432 177.869 130.369C178.742 135.965 179.616 140.053 180.251 141.799C180.568 142.593 180.806 143.585 180.806 143.982C180.806 144.339 181.084 145.172 181.401 145.807C181.719 146.403 181.997 147.117 181.997 147.315C181.997 147.673 182.394 148.744 183.783 151.8C184.854 154.26 187.235 158.983 187.989 160.134C188.386 160.769 188.862 161.602 189.021 161.92C190.49 165.055 199.062 175.612 202.276 178.231C203.229 179.064 204.737 180.334 205.61 181.128C208.428 183.668 208.348 182.636 205.451 179.66C196.046 169.897 189.815 159.181 186.203 146.442C184.934 141.878 184.338 138.505 183.783 132.274C182.87 121.956 184.06 112.55 187.553 101.994C190.013 94.5328 194.895 85.8813 200.451 79.0949C202.038 77.1503 208.031 71.0783 209.777 69.6496C211.841 67.9828 215.69 65.0857 215.849 65.0857C215.968 65.0857 217 64.4508 218.19 63.6967C220.572 62.1093 227.318 58.736 230.017 57.7438C240.256 54.0133 246.249 53.0608 257.003 53.299C261.25 53.418 265.893 53.6958 267.322 53.9339C271.449 54.6086 278.513 56.5929 279.823 57.4263C280.26 57.7041 280.815 57.9422 281.133 57.9422C281.688 57.9422 288.713 61.3552 291.53 62.9824C295.34 65.2048 302.603 71.0783 305.579 74.3326C307.325 76.2375 308.992 77.7853 309.31 77.7853C309.588 77.7853 310.58 77.2694 311.492 76.6344C313.318 75.3644 317.684 72.5467 318.318 72.2292C318.993 71.8721 322.208 69.8084 323.954 68.6178C324.867 67.9828 325.74 67.4669 325.938 67.4669C326.534 67.4272 328.042 65.9588 328.042 65.3635C328.042 64.4111 319.866 57.1882 314.191 53.1402C311.334 51.0765 307.405 48.4176 307.246 48.4176C307.127 48.4176 305.778 47.6635 304.151 46.7111C300.658 44.6474 294.547 41.6709 292.919 41.2344C292.284 41.0756 290.499 40.52 288.951 39.9644C284.228 38.2976 276.489 36.7499 270.06 36.1546C264.504 35.6386 259.583 35.6783 253.233 36.3133Z" fill="#B50003"/>
<path d="M331.613 75.1263C329.986 75.9994 326.097 78.1821 323.994 79.4124C322.922 80.0473 321.97 80.5633 321.89 80.5633C321.811 80.5633 320.779 81.1189 319.628 81.7935C318.477 82.4682 316.572 83.5397 315.461 84.1747C314.31 84.8097 312.405 85.8415 311.294 86.4765C310.143 87.1115 308.318 88.1433 307.206 88.7783C306.135 89.4133 304.944 90.0482 304.627 90.207C304.309 90.3657 303.317 90.9213 302.444 91.3976C300.976 92.231 299.825 92.866 293.515 96.3186C292.324 96.9933 290.459 98.0251 289.348 98.6601C286.887 100.049 284.585 101.319 282.8 102.311C282.045 102.708 279.704 104.018 277.64 105.169C275.577 106.32 273.076 107.709 272.124 108.224L270.338 109.137L266.965 107.47C263.75 105.883 263.314 105.764 259.623 105.645C256.726 105.526 255.257 105.645 253.868 106.161C247.638 108.383 244.185 112.153 242.28 118.662C241.328 121.916 241.328 124.535 242.28 127.79C243.352 131.481 244.145 132.87 246.685 135.33C250.535 139.14 255.376 140.846 260.734 140.291C264.068 139.973 265.973 139.259 269.068 137.116C271.291 135.608 274.862 131.481 274.862 130.369C274.862 130.131 275.14 129.298 275.497 128.583C275.974 127.631 276.172 126.083 276.212 122.789C276.251 118.543 276.331 118.225 277.243 117.352C277.799 116.836 285.22 111.161 293.713 104.732C302.246 98.3426 311.691 91.1991 314.707 88.8973C317.723 86.5956 320.7 84.3731 321.335 83.9366C328.399 78.8568 332.804 75.4438 332.804 74.9675C332.804 74.531 332.804 74.531 331.613 75.1263ZM261.29 114.654C263.036 115.566 264.861 117.233 265.893 118.821C266.925 120.448 267.203 124.496 266.369 126.123C265.615 127.591 262.996 130.092 261.25 131.044C257.758 132.909 252.4 130.528 250.058 126.083C248.987 124.059 248.947 123.861 249.463 122.075C250.058 119.892 252.36 117.154 255.178 115.249C257.519 113.701 259.107 113.542 261.29 114.654Z" fill="#B50003"/>
<path d="M0.750437 238.395C2.45694 238.474 5.11591 238.474 6.70335 238.395C8.2908 238.355 6.90178 238.276 3.60784 238.276C0.353576 238.276 -0.956065 238.355 0.750437 238.395Z" fill="#B50003"/>
</svg>
