<svg xmlns="http://www.w3.org/2000/svg" width="876.123" height="853.146" viewBox="0 0 876.123 853.146">
  <g id="website" transform="translate(-459.383 -2021.725)">
    <path id="Path_1" data-name="Path 1" d="M954.341,2717.769v65.069s-256.5,92.016-435.763-165.629c-135.56-227.905,3.451-419.5,8.38-424.426,119.292-174.5,320.4-170.951,320.4-170.951s189.467-10.29,325.52,170.951c109.762,170.393,44.215,340.227,44.215,340.227l-27.784-27.866s51.266-126.118-35.492-271.448c-58.85-107.462-170.079-150.943-170.079-150.943s-69.175-25.8-136.381-25.8-132.444,25.8-132.444,25.8-74.963,28.06-147.106,110.03c-67.087,85.262-71.355,182.3-72.285,198.535-9.909,101.967,31.877,169.645,47.536,195.49,60.386,107.447,148.393,143.333,173.172,150.169C892.246,2807.9,954.341,2717.769,954.341,2717.769Z" fill="#d1edff"/>
    <path id="Path_2" data-name="Path 2" d="M541.139,2228.451h613.7l-21.66-30.324H552.691Z" fill="#d1edff"/>
    <path id="Path_3" data-name="Path 3" d="M831.763,2053.611l-.479,711.029,34.754-.465.153-710.564Z" fill="#d1edff"/>
    <path id="Path_4" data-name="Path 4" d="M493.487,2432H952.678v-40.377H493.487Z" fill="#d1edff"/>
    <path id="Path_5" data-name="Path 5" d="M952.678,2588.007v38.988h-410.1v-38.988Z" fill="#d1edff"/>
    <path id="Path_6" data-name="Path 6" d="M1008.994,2817.6V2417.615l288.8,272.916H1188.05l56.316,118.408-96.748,46.208-59.2-111.188-79.42,73.644" fill="none" stroke="#d1edff" stroke-linecap="round" stroke-linejoin="round" stroke-width="30"/>
    <path id="Path_7" data-name="Path 7" d="M713.677,2082.233s-124.8,118.7-111.89,363.9c10.108,194.94,110.955,289.36,110.955,289.36s50.393,25.144,119.658,28.936c-177.966-37.161-195.234-312.156-195.49-315.5-1.189-364.872,198.2-391.864,197.09-392.266C763.9,2059.978,713.677,2082.233,713.677,2082.233Z" fill="#d1edff"/>
    <path id="Path_8" data-name="Path 8" d="M1060.346,2386.84l42.839,40.891h103.778v-35.227H1094.909s1.335-83.538-26.3-158.807c-22.146-81.073-85.715-152.146-85.715-152.146s-53.677-20.264-117.848-24.348c114.729,19.446,167.805,175.828,168.194,176.494C1062.8,2327.537,1060.346,2386.84,1060.346,2386.84Z" fill="#d1edff"/>
  </g>
</svg>
